<svg width="470" height="600" viewBox="0 0 470 600" fill="none" xmlns="http://www.w3.org/2000/svg">
<path d="M462 165.492V568C462 581.255 451.255 592 438 592H32C18.7452 592 8 581.255 8 568V32C8 18.7452 18.7452 8 32 8H332.503C339.844 8 346.781 11.3596 351.332 17.1191L456.83 150.611C460.178 154.848 462 160.091 462 165.492Z" fill="#38160F" stroke="#F6752D" stroke-width="16"/>
<rect x="68" y="219.211" width="333" height="18" fill="#FFD1B0" fill-opacity="0.6"/>
<rect x="68" y="269.211" width="333" height="18" fill="#FFD1B0" fill-opacity="0.6"/>
<rect x="68" y="319.211" width="333" height="18" fill="#FFD1B0" fill-opacity="0.6"/>
<rect x="68" y="369.211" width="333" height="18" fill="#FFD1B0" fill-opacity="0.6"/>
<mask id="path-6-outside-1_409_112" maskUnits="userSpaceOnUse" x="117" y="469.771" width="240" height="71" fill="black">
<rect fill="white" x="117" y="469.771" width="240" height="71"/>
<path d="M144.672 515.443H127.281V504.475H144.672C147.359 504.475 149.547 504.037 151.234 503.162C152.922 502.256 154.156 501.006 154.938 499.412C155.719 497.818 156.109 496.021 156.109 494.021C156.109 491.99 155.719 490.1 154.938 488.35C154.156 486.6 152.922 485.193 151.234 484.131C149.547 483.068 147.359 482.537 144.672 482.537H132.156V539.771H118.094V471.521H144.672C150.016 471.521 154.594 472.49 158.406 474.428C162.25 476.334 165.188 478.975 167.219 482.35C169.25 485.725 170.266 489.584 170.266 493.928C170.266 498.334 169.25 502.146 167.219 505.365C165.188 508.584 162.25 511.068 158.406 512.818C154.594 514.568 150.016 515.443 144.672 515.443ZM206.547 515.443H189.156V504.475H206.547C209.234 504.475 211.422 504.037 213.109 503.162C214.797 502.256 216.031 501.006 216.812 499.412C217.594 497.818 217.984 496.021 217.984 494.021C217.984 491.99 217.594 490.1 216.812 488.35C216.031 486.6 214.797 485.193 213.109 484.131C211.422 483.068 209.234 482.537 206.547 482.537H194.031V539.771H179.969V471.521H206.547C211.891 471.521 216.469 472.49 220.281 474.428C224.125 476.334 227.062 478.975 229.094 482.35C231.125 485.725 232.141 489.584 232.141 493.928C232.141 498.334 231.125 502.146 229.094 505.365C227.062 508.584 224.125 511.068 220.281 512.818C216.469 514.568 211.891 515.443 206.547 515.443ZM272.359 471.521V539.771H258.344V471.521H272.359ZM293.359 471.521V482.537H237.672V471.521H293.359ZM312.953 471.521L325.797 495.334L338.641 471.521H354.719L334.891 505.365L355.234 539.771H339.016L325.797 515.49L312.578 539.771H296.266L316.656 505.365L296.781 471.521H312.953Z"/>
</mask>
<path d="M144.672 515.443H127.281V504.475H144.672C147.359 504.475 149.547 504.037 151.234 503.162C152.922 502.256 154.156 501.006 154.938 499.412C155.719 497.818 156.109 496.021 156.109 494.021C156.109 491.99 155.719 490.1 154.938 488.35C154.156 486.6 152.922 485.193 151.234 484.131C149.547 483.068 147.359 482.537 144.672 482.537H132.156V539.771H118.094V471.521H144.672C150.016 471.521 154.594 472.49 158.406 474.428C162.25 476.334 165.188 478.975 167.219 482.35C169.25 485.725 170.266 489.584 170.266 493.928C170.266 498.334 169.25 502.146 167.219 505.365C165.188 508.584 162.25 511.068 158.406 512.818C154.594 514.568 150.016 515.443 144.672 515.443ZM206.547 515.443H189.156V504.475H206.547C209.234 504.475 211.422 504.037 213.109 503.162C214.797 502.256 216.031 501.006 216.812 499.412C217.594 497.818 217.984 496.021 217.984 494.021C217.984 491.99 217.594 490.1 216.812 488.35C216.031 486.6 214.797 485.193 213.109 484.131C211.422 483.068 209.234 482.537 206.547 482.537H194.031V539.771H179.969V471.521H206.547C211.891 471.521 216.469 472.49 220.281 474.428C224.125 476.334 227.062 478.975 229.094 482.35C231.125 485.725 232.141 489.584 232.141 493.928C232.141 498.334 231.125 502.146 229.094 505.365C227.062 508.584 224.125 511.068 220.281 512.818C216.469 514.568 211.891 515.443 206.547 515.443ZM272.359 471.521V539.771H258.344V471.521H272.359ZM293.359 471.521V482.537H237.672V471.521H293.359ZM312.953 471.521L325.797 495.334L338.641 471.521H354.719L334.891 505.365L355.234 539.771H339.016L325.797 515.49L312.578 539.771H296.266L316.656 505.365L296.781 471.521H312.953Z" fill="white"/>
<path d="M127.281 515.443H126.281V516.443H127.281V515.443ZM127.281 504.475V503.475H126.281V504.475H127.281ZM151.234 503.162L151.695 504.05L151.701 504.047L151.708 504.043L151.234 503.162ZM132.156 482.537V481.537H131.156V482.537H132.156ZM132.156 539.771V540.771H133.156V539.771H132.156ZM118.094 539.771H117.094V540.771H118.094V539.771ZM118.094 471.521V470.521H117.094V471.521H118.094ZM158.406 474.428L157.953 475.319L157.962 475.324L158.406 474.428ZM158.406 512.818L157.992 511.908L157.989 511.91L158.406 512.818ZM144.672 514.443H127.281V516.443H144.672V514.443ZM128.281 515.443V504.475H126.281V515.443H128.281ZM127.281 505.475H144.672V503.475H127.281V505.475ZM144.672 505.475C147.457 505.475 149.818 505.023 151.695 504.05L150.774 502.274C149.275 503.051 147.261 503.475 144.672 503.475V505.475ZM151.708 504.043C153.564 503.046 154.955 501.649 155.835 499.852L154.04 498.972C153.358 500.363 152.28 501.466 150.761 502.281L151.708 504.043ZM155.835 499.852C156.692 498.105 157.109 496.155 157.109 494.021H155.109C155.109 495.888 154.746 497.532 154.04 498.972L155.835 499.852ZM157.109 494.021C157.109 491.858 156.693 489.828 155.851 487.942L154.024 488.757C154.745 490.371 155.109 492.122 155.109 494.021H157.109ZM155.851 487.942C154.985 486.004 153.615 484.448 151.767 483.285L150.702 484.977C152.229 485.939 153.327 487.195 154.024 488.757L155.851 487.942ZM151.767 483.285C149.874 482.092 147.484 481.537 144.672 481.537V483.537C147.234 483.537 149.22 484.044 150.702 484.977L151.767 483.285ZM144.672 481.537H132.156V483.537H144.672V481.537ZM131.156 482.537V539.771H133.156V482.537H131.156ZM132.156 538.771H118.094V540.771H132.156V538.771ZM119.094 539.771V471.521H117.094V539.771H119.094ZM118.094 472.521H144.672V470.521H118.094V472.521ZM144.672 472.521C149.897 472.521 154.312 473.469 157.953 475.319L158.859 473.536C154.876 471.512 150.135 470.521 144.672 470.521V472.521ZM157.962 475.324C161.651 477.153 164.438 479.668 166.362 482.865L168.076 481.834C165.937 478.281 162.849 475.515 158.851 473.532L157.962 475.324ZM166.362 482.865C168.29 486.069 169.266 489.746 169.266 493.928H171.266C171.266 489.422 170.21 485.38 168.076 481.834L166.362 482.865ZM169.266 493.928C169.266 498.175 168.288 501.796 166.373 504.832L168.064 505.899C170.212 502.497 171.266 498.492 171.266 493.928H169.266ZM166.373 504.832C164.457 507.868 161.678 510.23 157.992 511.908L158.821 513.728C162.822 511.907 165.918 509.3 168.064 505.899L166.373 504.832ZM157.989 511.91C154.338 513.585 149.91 514.443 144.672 514.443V516.443C150.122 516.443 154.849 515.551 158.823 513.727L157.989 511.91ZM189.156 515.443H188.156V516.443H189.156V515.443ZM189.156 504.475V503.475H188.156V504.475H189.156ZM213.109 503.162L213.57 504.05L213.576 504.047L213.583 504.043L213.109 503.162ZM194.031 482.537V481.537H193.031V482.537H194.031ZM194.031 539.771V540.771H195.031V539.771H194.031ZM179.969 539.771H178.969V540.771H179.969V539.771ZM179.969 471.521V470.521H178.969V471.521H179.969ZM220.281 474.428L219.828 475.319L219.837 475.324L220.281 474.428ZM220.281 512.818L219.867 511.908L219.864 511.91L220.281 512.818ZM206.547 514.443H189.156V516.443H206.547V514.443ZM190.156 515.443V504.475H188.156V515.443H190.156ZM189.156 505.475H206.547V503.475H189.156V505.475ZM206.547 505.475C209.332 505.475 211.693 505.023 213.57 504.05L212.649 502.274C211.15 503.051 209.136 503.475 206.547 503.475V505.475ZM213.583 504.043C215.439 503.046 216.83 501.649 217.71 499.852L215.915 498.972C215.233 500.363 214.155 501.466 212.636 502.281L213.583 504.043ZM217.71 499.852C218.567 498.105 218.984 496.155 218.984 494.021H216.984C216.984 495.888 216.621 497.532 215.915 498.972L217.71 499.852ZM218.984 494.021C218.984 491.858 218.568 489.828 217.726 487.942L215.899 488.757C216.62 490.371 216.984 492.122 216.984 494.021H218.984ZM217.726 487.942C216.86 486.004 215.49 484.448 213.642 483.285L212.577 484.977C214.104 485.939 215.202 487.195 215.899 488.757L217.726 487.942ZM213.642 483.285C211.749 482.092 209.359 481.537 206.547 481.537V483.537C209.109 483.537 211.095 484.044 212.577 484.977L213.642 483.285ZM206.547 481.537H194.031V483.537H206.547V481.537ZM193.031 482.537V539.771H195.031V482.537H193.031ZM194.031 538.771H179.969V540.771H194.031V538.771ZM180.969 539.771V471.521H178.969V539.771H180.969ZM179.969 472.521H206.547V470.521H179.969V472.521ZM206.547 472.521C211.772 472.521 216.187 473.469 219.828 475.319L220.734 473.536C216.751 471.512 212.01 470.521 206.547 470.521V472.521ZM219.837 475.324C223.526 477.153 226.313 479.668 228.237 482.865L229.951 481.834C227.812 478.281 224.724 475.515 220.726 473.532L219.837 475.324ZM228.237 482.865C230.165 486.069 231.141 489.746 231.141 493.928H233.141C233.141 489.422 232.085 485.38 229.951 481.834L228.237 482.865ZM231.141 493.928C231.141 498.175 230.163 501.796 228.248 504.832L229.939 505.899C232.087 502.497 233.141 498.492 233.141 493.928H231.141ZM228.248 504.832C226.332 507.868 223.553 510.23 219.867 511.908L220.696 513.728C224.697 511.907 227.793 509.3 229.939 505.899L228.248 504.832ZM219.864 511.91C216.213 513.585 211.785 514.443 206.547 514.443V516.443C211.997 516.443 216.724 515.551 220.698 513.727L219.864 511.91ZM272.359 471.521H273.359V470.521H272.359V471.521ZM272.359 539.771V540.771H273.359V539.771H272.359ZM258.344 539.771H257.344V540.771H258.344V539.771ZM258.344 471.521V470.521H257.344V471.521H258.344ZM293.359 471.521H294.359V470.521H293.359V471.521ZM293.359 482.537V483.537H294.359V482.537H293.359ZM237.672 482.537H236.672V483.537H237.672V482.537ZM237.672 471.521V470.521H236.672V471.521H237.672ZM271.359 471.521V539.771H273.359V471.521H271.359ZM272.359 538.771H258.344V540.771H272.359V538.771ZM259.344 539.771V471.521H257.344V539.771H259.344ZM258.344 472.521H272.359V470.521H258.344V472.521ZM292.359 471.521V482.537H294.359V471.521H292.359ZM293.359 481.537H237.672V483.537H293.359V481.537ZM238.672 482.537V471.521H236.672V482.537H238.672ZM237.672 472.521H293.359V470.521H237.672V472.521ZM312.953 471.521L313.833 471.047L313.55 470.521H312.953V471.521ZM325.797 495.334L324.917 495.809L325.797 497.44L326.677 495.809L325.797 495.334ZM338.641 471.521V470.521H338.044L337.76 471.047L338.641 471.521ZM354.719 471.521L355.582 472.027L356.464 470.521H354.719V471.521ZM334.891 505.365L334.028 504.86L333.73 505.368L334.03 505.874L334.891 505.365ZM355.234 539.771V540.771H356.987L356.095 539.263L355.234 539.771ZM339.016 539.771L338.137 540.25L338.421 540.771H339.016V539.771ZM325.797 515.49L326.675 515.012L325.797 513.399L324.919 515.012L325.797 515.49ZM312.578 539.771V540.771H313.172L313.456 540.25L312.578 539.771ZM296.266 539.771L295.405 539.262L294.511 540.771H296.266V539.771ZM316.656 505.365L317.517 505.875L317.817 505.368L317.519 504.859L316.656 505.365ZM296.781 471.521V470.521H295.034L295.919 472.028L296.781 471.521ZM312.073 471.996L324.917 495.809L326.677 494.859L313.833 471.047L312.073 471.996ZM326.677 495.809L339.521 471.996L337.76 471.047L324.917 494.859L326.677 495.809ZM338.641 472.521H354.719V470.521H338.641V472.521ZM353.856 471.016L334.028 504.86L335.753 505.871L355.582 472.027L353.856 471.016ZM334.03 505.874L354.374 540.28L356.095 539.263L335.751 504.856L334.03 505.874ZM355.234 538.771H339.016V540.771H355.234V538.771ZM339.894 539.293L326.675 515.012L324.919 515.968L338.137 540.25L339.894 539.293ZM324.919 515.012L311.7 539.293L313.456 540.25L326.675 515.968L324.919 515.012ZM312.578 538.771H296.266V540.771H312.578V538.771ZM297.126 540.281L317.517 505.875L315.796 504.855L295.405 539.262L297.126 540.281ZM317.519 504.859L297.644 471.015L295.919 472.028L315.794 505.872L317.519 504.859ZM296.781 472.521H312.953V470.521H296.781V472.521Z" fill="#F6752D" mask="url(#path-6-outside-1_409_112)"/>
<path d="M343.897 9.58739L387.102 64.5767L387.107 64.5827L454.898 156.53C456.602 158.841 454.952 162.107 452.081 162.107H342.951C341.035 162.107 339.475 160.566 339.451 158.65L337.645 11.7928C337.604 8.44746 341.83 6.95669 343.897 9.58739Z" fill="#F6752D" stroke="#F6752D"/>
</svg>
