<svg width="470" height="600" viewBox="0 0 470 600" fill="none" xmlns="http://www.w3.org/2000/svg">
<path d="M462 165.492V568C462 581.255 451.255 592 438 592H32C18.7452 592 8 581.255 8 568V32C8 18.7452 18.7452 8 32 8H332.503C339.844 8 346.781 11.3596 351.332 17.1191L456.83 150.611C460.178 154.848 462 160.091 462 165.492Z" fill="#380F0F" stroke="#F62D2D" stroke-width="16"/>
<rect x="68" y="219.211" width="333" height="18" fill="#FFB0B0" fill-opacity="0.6"/>
<rect x="68" y="269.211" width="333" height="18" fill="#FFB0B0" fill-opacity="0.6"/>
<rect x="68" y="319.211" width="333" height="18" fill="#FFB0B0" fill-opacity="0.6"/>
<rect x="68" y="369.211" width="333" height="18" fill="#FFB0B0" fill-opacity="0.6"/>
<path d="M178.672 515.444H161.281V504.475H178.672C181.359 504.475 183.547 504.038 185.234 503.163C186.922 502.256 188.156 501.006 188.938 499.413C189.719 497.819 190.109 496.022 190.109 494.022C190.109 491.991 189.719 490.1 188.938 488.35C188.156 486.6 186.922 485.194 185.234 484.131C183.547 483.069 181.359 482.538 178.672 482.538H166.156V539.772H152.094V471.522H178.672C184.016 471.522 188.594 472.491 192.406 474.428C196.25 476.334 199.188 478.975 201.219 482.35C203.25 485.725 204.266 489.584 204.266 493.928C204.266 498.334 203.25 502.147 201.219 505.366C199.188 508.584 196.25 511.069 192.406 512.819C188.594 514.569 184.016 515.444 178.672 515.444ZM234.922 539.772H220.062L220.156 528.803H234.922C238.609 528.803 241.719 527.975 244.25 526.319C246.781 524.631 248.688 522.178 249.969 518.959C251.281 515.741 251.938 511.85 251.938 507.288V503.959C251.938 500.459 251.562 497.381 250.812 494.725C250.094 492.069 249.016 489.834 247.578 488.022C246.141 486.209 244.375 484.85 242.281 483.944C240.188 483.006 237.781 482.538 235.062 482.538H219.781V471.522H235.062C239.625 471.522 243.797 472.303 247.578 473.866C251.391 475.397 254.688 477.6 257.469 480.475C260.25 483.35 262.391 486.788 263.891 490.788C265.422 494.756 266.188 499.178 266.188 504.053V507.288C266.188 512.131 265.422 516.553 263.891 520.553C262.391 524.553 260.25 527.991 257.469 530.866C254.719 533.709 251.422 535.913 247.578 537.475C243.766 539.006 239.547 539.772 234.922 539.772ZM228.031 471.522V539.772H213.969V471.522H228.031ZM290.469 471.522V539.772H276.406V471.522H290.469ZM317.656 500.678V511.647H286.625V500.678H317.656ZM320.938 471.522V482.538H286.625V471.522H320.938Z" fill="white"/>
<path d="M337.145 11.7989C337.098 7.97571 341.928 6.27197 344.29 9.27848L387.5 64.2738L455.301 156.233C457.248 158.874 455.362 162.607 452.081 162.607H342.951C340.761 162.607 338.978 160.846 338.951 158.656L337.145 11.7989Z" fill="#F62D2D"/>
</svg>
