<svg width="470" height="600" viewBox="0 0 470 600" fill="none" xmlns="http://www.w3.org/2000/svg">
<path d="M462 165.492V568C462 581.255 451.255 592 438 592H32C18.7452 592 8 581.255 8 568V32C8 18.7452 18.7452 8 32 8H332.503C339.844 8 346.781 11.3596 351.332 17.1191L456.83 150.611C460.178 154.848 462 160.091 462 165.492Z" fill="#0F1A38" stroke="#41A5EE" stroke-width="16"/>
<rect x="68" y="219.211" width="333" height="18" fill="#B0DEFF" fill-opacity="0.6"/>
<rect x="68" y="269.211" width="333" height="18" fill="#B0DEFF" fill-opacity="0.6"/>
<rect x="68" y="319.211" width="333" height="18" fill="#B0DEFF" fill-opacity="0.6"/>
<rect x="68" y="369.211" width="333" height="18" fill="#B0DEFF" fill-opacity="0.6"/>
<mask id="path-6-outside-1_409_100" maskUnits="userSpaceOnUse" x="113" y="468.772" width="249" height="73" fill="black">
<rect fill="white" x="113" y="468.772" width="249" height="73"/>
<path d="M135.047 539.772H120.188L120.281 528.803H135.047C138.734 528.803 141.844 527.975 144.375 526.319C146.906 524.631 148.812 522.178 150.094 518.959C151.406 515.741 152.062 511.85 152.062 507.288V503.959C152.062 500.459 151.688 497.381 150.938 494.725C150.219 492.069 149.141 489.834 147.703 488.022C146.266 486.209 144.5 484.85 142.406 483.944C140.312 483.006 137.906 482.538 135.188 482.538H119.906V471.522H135.188C139.75 471.522 143.922 472.303 147.703 473.866C151.516 475.397 154.812 477.6 157.594 480.475C160.375 483.35 162.516 486.788 164.016 490.788C165.547 494.756 166.312 499.178 166.312 504.053V507.288C166.312 512.131 165.547 516.553 164.016 520.553C162.516 524.553 160.375 527.991 157.594 530.866C154.844 533.709 151.547 535.913 147.703 537.475C143.891 539.006 139.672 539.772 135.047 539.772ZM128.156 471.522V539.772H114.094V471.522H128.156ZM232.594 504.053V507.288C232.594 512.475 231.891 517.131 230.484 521.256C229.078 525.381 227.094 528.897 224.531 531.803C221.969 534.678 218.906 536.881 215.344 538.413C211.812 539.944 207.891 540.709 203.578 540.709C199.297 540.709 195.375 539.944 191.812 538.413C188.281 536.881 185.219 534.678 182.625 531.803C180.031 528.897 178.016 525.381 176.578 521.256C175.172 517.131 174.469 512.475 174.469 507.288V504.053C174.469 498.834 175.172 494.178 176.578 490.084C177.984 485.959 179.969 482.444 182.531 479.538C185.125 476.631 188.188 474.413 191.719 472.881C195.281 471.35 199.203 470.584 203.484 470.584C207.797 470.584 211.719 471.35 215.25 472.881C218.812 474.413 221.875 476.631 224.438 479.538C227.031 482.444 229.031 485.959 230.438 490.084C231.875 494.178 232.594 498.834 232.594 504.053ZM218.391 507.288V503.959C218.391 500.334 218.062 497.147 217.406 494.397C216.75 491.647 215.781 489.334 214.5 487.459C213.219 485.584 211.656 484.178 209.812 483.241C207.969 482.272 205.859 481.788 203.484 481.788C201.109 481.788 199 482.272 197.156 483.241C195.344 484.178 193.797 485.584 192.516 487.459C191.266 489.334 190.312 491.647 189.656 494.397C189 497.147 188.672 500.334 188.672 503.959V507.288C188.672 510.881 189 514.069 189.656 516.85C190.312 519.6 191.281 521.928 192.562 523.834C193.844 525.709 195.406 527.131 197.25 528.1C199.094 529.069 201.203 529.553 203.578 529.553C205.953 529.553 208.062 529.069 209.906 528.1C211.75 527.131 213.297 525.709 214.547 523.834C215.797 521.928 216.75 519.6 217.406 516.85C218.062 514.069 218.391 510.881 218.391 507.288ZM282.281 517.131H296.297C296.016 521.725 294.75 525.803 292.5 529.366C290.281 532.928 287.172 535.709 283.172 537.709C279.203 539.709 274.422 540.709 268.828 540.709C264.453 540.709 260.531 539.959 257.062 538.459C253.594 536.928 250.625 534.741 248.156 531.897C245.719 529.053 243.859 525.616 242.578 521.584C241.297 517.553 240.656 513.038 240.656 508.038V503.303C240.656 498.303 241.312 493.788 242.625 489.756C243.969 485.694 245.875 482.241 248.344 479.397C250.844 476.553 253.828 474.366 257.297 472.834C260.766 471.303 264.641 470.538 268.922 470.538C274.609 470.538 279.406 471.569 283.312 473.631C287.25 475.694 290.297 478.538 292.453 482.163C294.641 485.788 295.953 489.913 296.391 494.538H282.328C282.172 491.788 281.625 489.459 280.688 487.553C279.75 485.616 278.328 484.163 276.422 483.194C274.547 482.194 272.047 481.694 268.922 481.694C266.578 481.694 264.531 482.131 262.781 483.006C261.031 483.881 259.562 485.209 258.375 486.991C257.188 488.772 256.297 491.022 255.703 493.741C255.141 496.428 254.859 499.584 254.859 503.209V508.038C254.859 511.569 255.125 514.678 255.656 517.366C256.188 520.022 257 522.272 258.094 524.116C259.219 525.928 260.656 527.303 262.406 528.241C264.188 529.147 266.328 529.6 268.828 529.6C271.766 529.6 274.188 529.131 276.094 528.194C278 527.256 279.453 525.866 280.453 524.022C281.484 522.178 282.094 519.881 282.281 517.131ZM317.109 471.522L329.953 495.334L342.797 471.522H358.875L339.047 505.366L359.391 539.772H343.172L329.953 515.491L316.734 539.772H300.422L320.812 505.366L300.938 471.522H317.109Z"/>
</mask>
<path d="M135.047 539.772H120.188L120.281 528.803H135.047C138.734 528.803 141.844 527.975 144.375 526.319C146.906 524.631 148.812 522.178 150.094 518.959C151.406 515.741 152.062 511.85 152.062 507.288V503.959C152.062 500.459 151.688 497.381 150.938 494.725C150.219 492.069 149.141 489.834 147.703 488.022C146.266 486.209 144.5 484.85 142.406 483.944C140.312 483.006 137.906 482.538 135.188 482.538H119.906V471.522H135.188C139.75 471.522 143.922 472.303 147.703 473.866C151.516 475.397 154.812 477.6 157.594 480.475C160.375 483.35 162.516 486.788 164.016 490.788C165.547 494.756 166.312 499.178 166.312 504.053V507.288C166.312 512.131 165.547 516.553 164.016 520.553C162.516 524.553 160.375 527.991 157.594 530.866C154.844 533.709 151.547 535.913 147.703 537.475C143.891 539.006 139.672 539.772 135.047 539.772ZM128.156 471.522V539.772H114.094V471.522H128.156ZM232.594 504.053V507.288C232.594 512.475 231.891 517.131 230.484 521.256C229.078 525.381 227.094 528.897 224.531 531.803C221.969 534.678 218.906 536.881 215.344 538.413C211.812 539.944 207.891 540.709 203.578 540.709C199.297 540.709 195.375 539.944 191.812 538.413C188.281 536.881 185.219 534.678 182.625 531.803C180.031 528.897 178.016 525.381 176.578 521.256C175.172 517.131 174.469 512.475 174.469 507.288V504.053C174.469 498.834 175.172 494.178 176.578 490.084C177.984 485.959 179.969 482.444 182.531 479.538C185.125 476.631 188.188 474.413 191.719 472.881C195.281 471.35 199.203 470.584 203.484 470.584C207.797 470.584 211.719 471.35 215.25 472.881C218.812 474.413 221.875 476.631 224.438 479.538C227.031 482.444 229.031 485.959 230.438 490.084C231.875 494.178 232.594 498.834 232.594 504.053ZM218.391 507.288V503.959C218.391 500.334 218.062 497.147 217.406 494.397C216.75 491.647 215.781 489.334 214.5 487.459C213.219 485.584 211.656 484.178 209.812 483.241C207.969 482.272 205.859 481.788 203.484 481.788C201.109 481.788 199 482.272 197.156 483.241C195.344 484.178 193.797 485.584 192.516 487.459C191.266 489.334 190.312 491.647 189.656 494.397C189 497.147 188.672 500.334 188.672 503.959V507.288C188.672 510.881 189 514.069 189.656 516.85C190.312 519.6 191.281 521.928 192.562 523.834C193.844 525.709 195.406 527.131 197.25 528.1C199.094 529.069 201.203 529.553 203.578 529.553C205.953 529.553 208.062 529.069 209.906 528.1C211.75 527.131 213.297 525.709 214.547 523.834C215.797 521.928 216.75 519.6 217.406 516.85C218.062 514.069 218.391 510.881 218.391 507.288ZM282.281 517.131H296.297C296.016 521.725 294.75 525.803 292.5 529.366C290.281 532.928 287.172 535.709 283.172 537.709C279.203 539.709 274.422 540.709 268.828 540.709C264.453 540.709 260.531 539.959 257.062 538.459C253.594 536.928 250.625 534.741 248.156 531.897C245.719 529.053 243.859 525.616 242.578 521.584C241.297 517.553 240.656 513.038 240.656 508.038V503.303C240.656 498.303 241.312 493.788 242.625 489.756C243.969 485.694 245.875 482.241 248.344 479.397C250.844 476.553 253.828 474.366 257.297 472.834C260.766 471.303 264.641 470.538 268.922 470.538C274.609 470.538 279.406 471.569 283.312 473.631C287.25 475.694 290.297 478.538 292.453 482.163C294.641 485.788 295.953 489.913 296.391 494.538H282.328C282.172 491.788 281.625 489.459 280.688 487.553C279.75 485.616 278.328 484.163 276.422 483.194C274.547 482.194 272.047 481.694 268.922 481.694C266.578 481.694 264.531 482.131 262.781 483.006C261.031 483.881 259.562 485.209 258.375 486.991C257.188 488.772 256.297 491.022 255.703 493.741C255.141 496.428 254.859 499.584 254.859 503.209V508.038C254.859 511.569 255.125 514.678 255.656 517.366C256.188 520.022 257 522.272 258.094 524.116C259.219 525.928 260.656 527.303 262.406 528.241C264.188 529.147 266.328 529.6 268.828 529.6C271.766 529.6 274.188 529.131 276.094 528.194C278 527.256 279.453 525.866 280.453 524.022C281.484 522.178 282.094 519.881 282.281 517.131ZM317.109 471.522L329.953 495.334L342.797 471.522H358.875L339.047 505.366L359.391 539.772H343.172L329.953 515.491L316.734 539.772H300.422L320.812 505.366L300.938 471.522H317.109Z" fill="white"/>
<path d="M120.188 539.772L119.188 539.763L119.179 540.772H120.188V539.772ZM120.281 528.803V527.803H119.29L119.281 528.795L120.281 528.803ZM144.375 526.319L144.923 527.156L144.93 527.151L144.375 526.319ZM150.094 518.959L149.168 518.582L149.165 518.59L150.094 518.959ZM150.938 494.725L149.972 494.986L149.975 494.997L150.938 494.725ZM142.406 483.944L141.998 484.857L142.009 484.862L142.406 483.944ZM119.906 482.538H118.906V483.538H119.906V482.538ZM119.906 471.522V470.522H118.906V471.522H119.906ZM147.703 473.866L147.321 474.79L147.33 474.794L147.703 473.866ZM164.016 490.788L163.079 491.139L163.083 491.148L164.016 490.788ZM164.016 520.553L163.082 520.196L163.079 520.202L164.016 520.553ZM157.594 530.866L156.875 530.17L156.875 530.171L157.594 530.866ZM147.703 537.475L148.076 538.403L148.08 538.401L147.703 537.475ZM128.156 471.522H129.156V470.522H128.156V471.522ZM128.156 539.772V540.772H129.156V539.772H128.156ZM114.094 539.772H113.094V540.772H114.094V539.772ZM114.094 471.522V470.522H113.094V471.522H114.094ZM135.047 538.772H120.188V540.772H135.047V538.772ZM121.187 539.781L121.281 528.812L119.281 528.795L119.188 539.763L121.187 539.781ZM120.281 529.803H135.047V527.803H120.281V529.803ZM135.047 529.803C138.886 529.803 142.196 528.94 144.923 527.156L143.827 525.482C141.492 527.011 138.583 527.803 135.047 527.803V529.803ZM144.93 527.151C147.652 525.336 149.677 522.709 151.023 519.329L149.165 518.59C147.948 521.647 146.16 523.927 143.82 525.487L144.93 527.151ZM151.02 519.337C152.394 515.967 153.062 511.941 153.062 507.288H151.062C151.062 511.759 150.419 515.514 149.168 518.582L151.02 519.337ZM153.062 507.288V503.959H151.062V507.288H153.062ZM153.062 503.959C153.062 500.391 152.68 497.218 151.9 494.453L149.975 494.997C150.695 497.545 151.062 500.528 151.062 503.959H153.062ZM151.903 494.464C151.155 491.701 150.023 489.338 148.487 487.401L146.92 488.643C148.258 490.331 149.282 492.437 149.972 494.986L151.903 494.464ZM148.487 487.401C146.948 485.461 145.051 483.999 142.803 483.026L142.009 484.862C143.949 485.701 145.583 486.958 146.92 488.643L148.487 487.401ZM142.815 483.031C140.571 482.026 138.021 481.538 135.188 481.538V483.538C137.791 483.538 140.054 483.986 141.998 484.857L142.815 483.031ZM135.188 481.538H119.906V483.538H135.188V481.538ZM120.906 482.538V471.522H118.906V482.538H120.906ZM119.906 472.522H135.188V470.522H119.906V472.522ZM135.188 472.522C139.634 472.522 143.674 473.283 147.321 474.79L148.085 472.942C144.169 471.324 139.866 470.522 135.188 470.522V472.522ZM147.33 474.794C151.016 476.274 154.194 478.399 156.875 481.17L158.312 479.78C155.431 476.801 152.015 474.52 148.076 472.938L147.33 474.794ZM156.875 481.17C159.555 483.94 161.624 487.258 163.079 491.139L164.952 490.436C163.407 486.317 161.195 482.76 158.312 479.78L156.875 481.17ZM163.083 491.148C164.564 494.986 165.312 499.284 165.312 504.053H167.312C167.312 499.073 166.53 494.527 164.949 490.428L163.083 491.148ZM165.312 504.053V507.288H167.312V504.053H165.312ZM165.312 507.288C165.312 512.025 164.564 516.324 163.082 520.196L164.95 520.911C166.53 516.783 167.312 512.238 167.312 507.288H165.312ZM163.079 520.202C161.624 524.083 159.555 527.401 156.875 530.17L158.312 531.561C161.195 528.581 163.407 525.024 164.952 520.904L163.079 520.202ZM156.875 530.171C154.226 532.909 151.048 535.036 147.327 536.549L148.08 538.401C152.046 536.789 155.461 534.51 158.313 531.561L156.875 530.171ZM147.33 536.547C143.65 538.025 139.56 538.772 135.047 538.772V540.772C139.784 540.772 144.131 539.988 148.076 538.403L147.33 536.547ZM127.156 471.522V539.772H129.156V471.522H127.156ZM128.156 538.772H114.094V540.772H128.156V538.772ZM115.094 539.772V471.522H113.094V539.772H115.094ZM114.094 472.522H128.156V470.522H114.094V472.522ZM224.531 531.803L225.278 532.469L225.281 532.465L224.531 531.803ZM215.344 538.413L214.949 537.494L214.946 537.495L215.344 538.413ZM191.812 538.413L191.415 539.33L191.418 539.331L191.812 538.413ZM182.625 531.803L181.879 532.469L181.883 532.473L182.625 531.803ZM176.578 521.256L175.632 521.579L175.634 521.585L176.578 521.256ZM176.578 490.084L177.524 490.409L177.525 490.407L176.578 490.084ZM182.531 479.538L181.785 478.872L181.781 478.876L182.531 479.538ZM191.719 472.881L191.324 471.963L191.321 471.964L191.719 472.881ZM215.25 472.881L214.852 473.799L214.855 473.8L215.25 472.881ZM224.438 479.538L223.687 480.199L223.691 480.203L224.438 479.538ZM230.438 490.084L229.491 490.407L229.494 490.416L230.438 490.084ZM209.812 483.241L209.347 484.126L209.359 484.132L209.812 483.241ZM197.156 483.241L197.616 484.129L197.621 484.126L197.156 483.241ZM192.516 487.459L191.69 486.895L191.684 486.905L192.516 487.459ZM189.656 516.85L188.683 517.08L188.684 517.082L189.656 516.85ZM192.562 523.834L191.733 524.392L191.737 524.399L192.562 523.834ZM214.547 523.834L215.379 524.389L215.383 524.383L214.547 523.834ZM217.406 516.85L218.379 517.082L218.38 517.08L217.406 516.85ZM231.594 504.053V507.288H233.594V504.053H231.594ZM231.594 507.288C231.594 512.386 230.903 516.93 229.538 520.934L231.431 521.579C232.879 517.333 233.594 512.565 233.594 507.288H231.594ZM229.538 520.934C228.169 524.949 226.246 528.346 223.781 531.142L225.281 532.465C227.941 529.448 229.987 525.813 231.431 521.579L229.538 520.934ZM223.785 531.138C221.32 533.903 218.378 536.02 214.949 537.494L215.739 539.331C219.435 537.743 222.617 535.454 225.278 532.469L223.785 531.138ZM214.946 537.495C211.555 538.966 207.77 539.709 203.578 539.709V541.709C208.011 541.709 212.07 540.922 215.742 539.33L214.946 537.495ZM203.578 539.709C199.418 539.709 195.633 538.966 192.207 537.494L191.418 539.331C195.117 540.922 199.175 541.709 203.578 541.709V539.709ZM192.21 537.495C188.811 536.021 185.866 533.903 183.367 531.133L181.883 532.473C184.572 535.454 187.751 537.742 191.415 539.33L192.21 537.495ZM183.371 531.137C180.875 528.34 178.922 524.943 177.522 520.927L175.634 521.585C177.109 525.82 179.188 529.453 181.879 532.469L183.371 531.137ZM177.525 520.934C176.16 516.93 175.469 512.386 175.469 507.288H173.469C173.469 512.565 174.184 517.333 175.632 521.579L177.525 520.934ZM175.469 507.288V504.053H173.469V507.288H175.469ZM175.469 504.053C175.469 498.923 176.16 494.38 177.524 490.409L175.632 489.76C174.184 493.977 173.469 498.746 173.469 504.053H175.469ZM177.525 490.407C178.894 486.391 180.816 482.995 183.281 480.199L181.781 478.876C179.121 481.893 177.075 485.528 175.632 489.762L177.525 490.407ZM183.277 480.203C185.776 477.404 188.72 475.272 192.117 473.799L191.321 471.964C187.655 473.554 184.474 475.859 181.785 478.872L183.277 480.203ZM192.114 473.8C195.539 472.328 199.325 471.584 203.484 471.584V469.584C199.082 469.584 195.024 470.372 191.324 471.963L192.114 473.8ZM203.484 471.584C207.677 471.584 211.461 472.328 214.852 473.799L215.648 471.964C211.977 470.372 207.917 469.584 203.484 469.584V471.584ZM214.855 473.8C218.282 475.273 221.223 477.404 223.687 480.199L225.188 478.876C222.527 475.859 219.343 473.552 215.645 471.963L214.855 473.8ZM223.691 480.203C226.186 482.999 228.123 486.394 229.491 490.407L231.384 489.762C229.94 485.525 227.876 481.889 225.184 478.872L223.691 480.203ZM229.494 490.416C230.887 494.384 231.594 498.925 231.594 504.053H233.594C233.594 498.744 232.863 493.972 231.381 489.753L229.494 490.416ZM219.391 507.288V503.959H217.391V507.288H219.391ZM219.391 503.959C219.391 500.277 219.058 497.009 218.379 494.165L216.434 494.629C217.067 497.285 217.391 500.392 217.391 503.959H219.391ZM218.379 494.165C217.701 491.324 216.69 488.892 215.326 486.895L213.674 488.024C214.872 489.777 215.799 491.97 216.434 494.629L218.379 494.165ZM215.326 486.895C213.959 484.896 212.273 483.37 210.266 482.349L209.359 484.132C211.039 484.986 212.478 486.273 213.674 488.024L215.326 486.895ZM210.278 482.355C208.271 481.301 205.998 480.788 203.484 480.788V482.788C205.72 482.788 207.666 483.243 209.347 484.126L210.278 482.355ZM203.484 480.788C200.97 480.788 198.697 481.301 196.691 482.355L197.621 484.126C199.303 483.243 201.248 482.788 203.484 482.788V480.788ZM196.697 482.353C194.721 483.374 193.054 484.899 191.69 486.895L193.341 488.024C194.54 486.27 195.966 484.982 197.616 484.129L196.697 482.353ZM191.684 486.905C190.354 488.9 189.361 491.328 188.684 494.165L190.629 494.629C191.264 491.966 192.178 489.769 193.348 488.014L191.684 486.905ZM188.684 494.165C188.005 497.009 187.672 500.277 187.672 503.959H189.672C189.672 500.392 189.995 497.285 190.629 494.629L188.684 494.165ZM187.672 503.959V507.288H189.672V503.959H187.672ZM187.672 507.288C187.672 510.94 188.005 514.207 188.683 517.08L190.63 516.62C189.995 513.931 189.672 510.823 189.672 507.288H187.672ZM188.684 517.082C189.361 519.923 190.371 522.367 191.733 524.392L193.392 523.277C192.191 521.489 191.264 519.278 190.629 516.618L188.684 517.082ZM191.737 524.399C193.102 526.396 194.784 527.934 196.785 528.985L197.715 527.215C196.029 526.329 194.586 525.023 193.388 523.27L191.737 524.399ZM196.785 528.985C198.791 530.039 201.064 530.553 203.578 530.553V528.553C201.342 528.553 199.396 528.098 197.715 527.215L196.785 528.985ZM203.578 530.553C206.092 530.553 208.365 530.039 210.371 528.985L209.441 527.215C207.76 528.098 205.814 528.553 203.578 528.553V530.553ZM210.371 528.985C212.375 527.933 214.044 526.392 215.379 524.389L213.715 523.28C212.55 525.027 211.125 526.33 209.441 527.215L210.371 528.985ZM215.383 524.383C216.71 522.36 217.702 519.919 218.379 517.082L216.434 516.618C215.798 519.281 214.884 521.497 213.711 523.286L215.383 524.383ZM218.38 517.08C219.057 514.207 219.391 510.94 219.391 507.288H217.391C217.391 510.823 217.068 513.931 216.433 516.62L218.38 517.08ZM282.281 517.131V516.131H281.347L281.284 517.063L282.281 517.131ZM296.297 517.131L297.295 517.192L297.36 516.131H296.297V517.131ZM292.5 529.366L291.654 528.832L291.651 528.837L292.5 529.366ZM283.172 537.709L282.725 536.815L282.722 536.816L283.172 537.709ZM257.062 538.459L256.659 539.374L256.666 539.377L257.062 538.459ZM248.156 531.897L247.397 532.548L247.401 532.553L248.156 531.897ZM242.625 489.756L241.676 489.442L241.674 489.447L242.625 489.756ZM248.344 479.397L247.593 478.737L247.589 478.741L248.344 479.397ZM283.312 473.631L282.846 474.516L282.848 474.517L283.312 473.631ZM292.453 482.163L291.594 482.674L291.597 482.679L292.453 482.163ZM296.391 494.538V495.538H297.49L297.386 494.443L296.391 494.538ZM282.328 494.538L281.33 494.594L281.383 495.538H282.328V494.538ZM280.688 487.553L279.787 487.989L279.79 487.995L280.688 487.553ZM276.422 483.194L275.951 484.076L275.96 484.081L275.969 484.085L276.422 483.194ZM255.703 493.741L254.726 493.527L254.724 493.536L255.703 493.741ZM255.656 517.366L254.675 517.56L254.676 517.562L255.656 517.366ZM258.094 524.116L257.234 524.626L257.239 524.635L257.244 524.643L258.094 524.116ZM262.406 528.241L261.934 529.122L261.943 529.127L261.953 529.132L262.406 528.241ZM280.453 524.022L279.58 523.534L279.574 523.545L280.453 524.022ZM282.281 518.131H296.297V516.131H282.281V518.131ZM295.299 517.07C295.027 521.512 293.807 525.424 291.655 528.832L293.345 529.9C295.693 526.182 297.004 521.938 297.295 517.192L295.299 517.07ZM291.651 528.837C289.536 532.233 286.571 534.892 282.725 536.815L283.619 538.604C287.773 536.527 291.026 533.624 293.349 529.894L291.651 528.837ZM282.722 536.816C278.924 538.73 274.305 539.709 268.828 539.709V541.709C274.539 541.709 279.482 540.689 283.622 538.602L282.722 536.816ZM268.828 539.709C264.568 539.709 260.785 538.98 257.459 537.542L256.666 539.377C260.278 540.939 264.338 541.709 268.828 541.709V539.709ZM257.466 537.545C254.131 536.072 251.283 533.973 248.911 531.241L247.401 532.553C249.967 535.508 253.056 537.784 256.659 539.374L257.466 537.545ZM248.916 531.246C246.576 528.517 244.777 525.202 243.531 521.282L241.625 521.887C242.942 526.03 244.862 529.59 247.397 532.548L248.916 531.246ZM243.531 521.282C242.286 517.364 241.656 512.953 241.656 508.038H239.656C239.656 513.122 240.308 517.742 241.625 521.887L243.531 521.282ZM241.656 508.038V503.303H239.656V508.038H241.656ZM241.656 503.303C241.656 498.39 242.301 493.981 243.576 490.066L241.674 489.447C240.324 493.594 239.656 498.216 239.656 503.303H241.656ZM243.574 490.07C244.882 486.116 246.728 482.784 249.099 480.053L247.589 478.741C245.022 481.698 243.055 485.271 241.676 489.442L243.574 490.07ZM249.095 480.057C251.499 477.323 254.365 475.222 257.701 473.749L256.893 471.92C253.292 473.509 250.189 475.784 247.593 478.737L249.095 480.057ZM257.701 473.749C261.027 472.281 264.762 471.538 268.922 471.538V469.538C264.52 469.538 260.504 470.325 256.893 471.92L257.701 473.749ZM268.922 471.538C274.492 471.538 279.119 472.548 282.846 474.516L283.779 472.747C279.694 470.59 274.727 469.538 268.922 469.538V471.538ZM282.848 474.517C286.631 476.499 289.537 479.217 291.594 482.674L293.313 481.651C291.057 477.859 287.869 474.889 283.777 472.746L282.848 474.517ZM291.597 482.679C293.7 486.164 294.97 490.142 295.395 494.632L297.386 494.443C296.936 489.684 295.582 485.412 293.309 481.646L291.597 482.679ZM296.391 493.538H282.328V495.538H296.391V493.538ZM283.327 494.481C283.165 491.635 282.596 489.168 281.585 487.112L279.79 487.995C280.654 489.751 281.179 491.94 281.33 494.594L283.327 494.481ZM281.588 487.118C280.556 484.985 278.977 483.371 276.875 482.302L275.969 484.085C277.679 484.954 278.944 486.247 279.787 487.989L281.588 487.118ZM276.892 482.311C274.82 481.206 272.139 480.694 268.922 480.694V482.694C271.954 482.694 274.273 483.181 275.951 484.076L276.892 482.311ZM268.922 480.694C266.453 480.694 264.248 481.155 262.334 482.112L263.228 483.901C264.815 483.108 266.703 482.694 268.922 482.694V480.694ZM262.334 482.112C260.414 483.072 258.818 484.524 257.543 486.436L259.207 487.545C260.307 485.895 261.649 484.691 263.228 483.901L262.334 482.112ZM257.543 486.436C256.269 488.347 255.339 490.722 254.726 493.527L256.68 493.954C257.255 491.322 258.106 489.197 259.207 487.545L257.543 486.436ZM254.724 493.536C254.144 496.308 253.859 499.536 253.859 503.209H255.859C255.859 499.633 256.137 496.548 256.682 493.946L254.724 493.536ZM253.859 503.209V508.038H255.859V503.209H253.859ZM253.859 508.038C253.859 511.616 254.128 514.793 254.675 517.56L256.637 517.172C256.122 514.563 255.859 511.521 255.859 508.038H253.859ZM254.676 517.562C255.223 520.301 256.069 522.663 257.234 524.626L258.954 523.606C257.931 521.881 257.152 519.743 256.637 517.17L254.676 517.562ZM257.244 524.643C258.455 526.593 260.018 528.096 261.934 529.122L262.878 527.359C261.295 526.511 259.983 525.263 258.943 523.588L257.244 524.643ZM261.953 529.132C263.905 530.125 266.209 530.6 268.828 530.6V528.6C266.447 528.6 264.47 528.169 262.86 527.349L261.953 529.132ZM268.828 530.6C271.863 530.6 274.449 530.117 276.535 529.091L275.652 527.296C273.926 528.146 271.668 528.6 268.828 528.6V530.6ZM276.535 529.091C278.625 528.063 280.232 526.527 281.332 524.499L279.574 523.545C278.674 525.204 277.375 526.449 275.652 527.296L276.535 529.091ZM281.326 524.51C282.448 522.504 283.084 520.054 283.279 517.199L281.284 517.063C281.103 519.709 280.521 521.852 279.58 523.534L281.326 524.51ZM317.109 471.522L317.99 471.047L317.706 470.522H317.109V471.522ZM329.953 495.334L329.073 495.809L329.953 497.441L330.833 495.809L329.953 495.334ZM342.797 471.522V470.522H342.2L341.917 471.047L342.797 471.522ZM358.875 471.522L359.738 472.027L360.62 470.522H358.875V471.522ZM339.047 505.366L338.184 504.86L337.887 505.368L338.186 505.875L339.047 505.366ZM359.391 539.772V540.772H361.144L360.251 539.263L359.391 539.772ZM343.172 539.772L342.294 540.25L342.578 540.772H343.172V539.772ZM329.953 515.491L330.831 515.013L329.953 513.399L329.075 515.013L329.953 515.491ZM316.734 539.772V540.772H317.329L317.613 540.25L316.734 539.772ZM300.422 539.772L299.562 539.262L298.667 540.772H300.422V539.772ZM320.812 505.366L321.673 505.876L321.974 505.368L321.675 504.859L320.812 505.366ZM300.938 471.522V470.522H299.191L300.075 472.028L300.938 471.522ZM316.229 471.997L329.073 495.809L330.833 494.86L317.99 471.047L316.229 471.997ZM330.833 495.809L343.677 471.997L341.917 471.047L329.073 494.86L330.833 495.809ZM342.797 472.522H358.875V470.522H342.797V472.522ZM358.012 471.016L338.184 504.86L339.91 505.871L359.738 472.027L358.012 471.016ZM338.186 505.875L358.53 540.281L360.251 539.263L339.908 504.857L338.186 505.875ZM359.391 538.772H343.172V540.772H359.391V538.772ZM344.05 539.294L330.831 515.013L329.075 515.969L342.294 540.25L344.05 539.294ZM329.075 515.013L315.856 539.294L317.613 540.25L330.831 515.969L329.075 515.013ZM316.734 538.772H300.422V540.772H316.734V538.772ZM301.282 540.282L321.673 505.876L319.952 504.856L299.562 539.262L301.282 540.282ZM321.675 504.859L301.8 471.016L300.075 472.028L319.95 505.872L321.675 504.859ZM300.938 472.522H317.109V470.522H300.938V472.522Z" fill="#41A5EE" mask="url(#path-6-outside-1_409_100)"/>
<path d="M343.897 9.58739L387.102 64.5767L387.107 64.5827L454.898 156.53C456.602 158.841 454.952 162.107 452.081 162.107H342.951C341.035 162.107 339.475 160.566 339.451 158.65L337.645 11.7928C337.604 8.44746 341.83 6.95669 343.897 9.58739Z" fill="#41A5EE" stroke="#41A5EE"/>
</svg>
