<svg width="470" height="600" viewBox="0 0 470 600" fill="none" xmlns="http://www.w3.org/2000/svg">
<path d="M462 165.492V568C462 581.255 451.255 592 438 592H32C18.7452 592 8 581.255 8 568V32C8 18.7452 18.7452 8 32 8H332.503C339.844 8 346.781 11.3596 351.332 17.1191L456.83 150.611C460.178 154.848 462 160.091 462 165.492Z" fill="#29292F" stroke="#7C7D80" stroke-width="16"/>
<rect x="68" y="219.211" width="333" height="18" fill="#8C8C98" fill-opacity="0.6"/>
<rect x="68" y="269.211" width="333" height="18" fill="#8C8C98" fill-opacity="0.6"/>
<rect x="68" y="319.211" width="333" height="18" fill="#8C8C98" fill-opacity="0.6"/>
<rect x="68" y="369.211" width="333" height="18" fill="#8C8C98" fill-opacity="0.6"/>
<path d="M149.156 504.053V507.287C149.156 512.475 148.453 517.131 147.047 521.256C145.641 525.381 143.656 528.896 141.094 531.803C138.531 534.678 135.469 536.881 131.906 538.412C128.375 539.943 124.453 540.709 120.141 540.709C115.859 540.709 111.938 539.943 108.375 538.412C104.844 536.881 101.781 534.678 99.1875 531.803C96.5938 528.896 94.5781 525.381 93.1406 521.256C91.7344 517.131 91.0312 512.475 91.0312 507.287V504.053C91.0312 498.834 91.7344 494.178 93.1406 490.084C94.5469 485.959 96.5312 482.443 99.0938 479.537C101.688 476.631 104.75 474.412 108.281 472.881C111.844 471.35 115.766 470.584 120.047 470.584C124.359 470.584 128.281 471.35 131.812 472.881C135.375 474.412 138.438 476.631 141 479.537C143.594 482.443 145.594 485.959 147 490.084C148.438 494.178 149.156 498.834 149.156 504.053ZM134.953 507.287V503.959C134.953 500.334 134.625 497.146 133.969 494.396C133.312 491.646 132.344 489.334 131.062 487.459C129.781 485.584 128.219 484.178 126.375 483.24C124.531 482.271 122.422 481.787 120.047 481.787C117.672 481.787 115.562 482.271 113.719 483.24C111.906 484.178 110.359 485.584 109.078 487.459C107.828 489.334 106.875 491.646 106.219 494.396C105.562 497.146 105.234 500.334 105.234 503.959V507.287C105.234 510.881 105.562 514.068 106.219 516.85C106.875 519.6 107.844 521.928 109.125 523.834C110.406 525.709 111.969 527.131 113.812 528.1C115.656 529.068 117.766 529.553 120.141 529.553C122.516 529.553 124.625 529.068 126.469 528.1C128.312 527.131 129.859 525.709 131.109 523.834C132.359 521.928 133.312 519.6 133.969 516.85C134.625 514.068 134.953 510.881 134.953 507.287ZM186.609 471.521V539.771H172.594V471.521H186.609ZM207.609 471.521V482.537H151.922V471.521H207.609ZM261.141 499.318V510.287H225.516V499.318H261.141ZM229.688 471.521V539.771H215.625V471.521H229.688ZM271.172 471.521V539.771H257.156V471.521H271.172ZM329.203 528.803V539.771H292.875V528.803H329.203ZM297.469 471.521V539.771H283.406V471.521H297.469ZM324.469 499.318V510.006H292.875V499.318H324.469ZM329.156 471.521V482.537H292.875V471.521H329.156ZM337.406 471.521H362.859C368.078 471.521 372.562 472.303 376.312 473.865C380.094 475.428 383 477.74 385.031 480.803C387.062 483.865 388.078 487.631 388.078 492.1C388.078 495.756 387.453 498.896 386.203 501.521C384.984 504.115 383.25 506.287 381 508.037C378.781 509.756 376.172 511.131 373.172 512.162L368.719 514.506H346.594L346.5 503.537H362.953C365.422 503.537 367.469 503.1 369.094 502.225C370.719 501.35 371.938 500.131 372.75 498.568C373.594 497.006 374.016 495.193 374.016 493.131C374.016 490.943 373.609 489.053 372.797 487.459C371.984 485.865 370.75 484.646 369.094 483.803C367.438 482.959 365.359 482.537 362.859 482.537H351.469V539.771H337.406V471.521ZM375.562 539.771L360 509.35L374.859 509.256L390.609 539.115V539.771H375.562Z" fill="white"/>
<path d="M337.145 11.7989C337.098 7.97571 341.928 6.27197 344.29 9.27848L387.5 64.2738L455.301 156.233C457.248 158.874 455.362 162.607 452.081 162.607H342.951C340.761 162.607 338.978 160.846 338.951 158.656L337.145 11.7989Z" fill="#7C7D80"/>
</svg>
