<svg width="470" height="583" viewBox="0 0 470 583" fill="none" xmlns="http://www.w3.org/2000/svg">
<path d="M462 161.37V551C462 564.255 451.255 575 438 575H32C18.7452 575 8 564.255 8 551V32C8 18.7452 18.7452 8 32 8H332.779C340.002 8 346.84 11.253 351.398 16.8564L456.619 146.227C460.1 150.506 462 155.854 462 161.37Z" fill="#0D2C42" stroke="#41A5EE" stroke-width="16"/>
<path d="M198.775 244.697L224.264 137.031H238.502L241.754 154.961L214.596 265H199.303L198.775 244.697ZM185.68 137.031L206.773 244.697L205.016 265H187.965L159.576 137.031H185.68ZM264.166 244.258L284.996 137.031H311.1L282.799 265H265.748L264.166 244.258ZM246.5 137.031L272.164 245.137L271.461 265H256.168L228.834 154.873L232.35 137.031H246.5Z" fill="white"/>
<path d="M136.047 462H121.188L121.281 451.031H136.047C139.734 451.031 142.844 450.203 145.375 448.547C147.906 446.859 149.812 444.406 151.094 441.188C152.406 437.969 153.062 434.078 153.062 429.516V426.188C153.062 422.688 152.688 419.609 151.938 416.953C151.219 414.297 150.141 412.062 148.703 410.25C147.266 408.438 145.5 407.078 143.406 406.172C141.312 405.234 138.906 404.766 136.188 404.766H120.906V393.75H136.188C140.75 393.75 144.922 394.531 148.703 396.094C152.516 397.625 155.812 399.828 158.594 402.703C161.375 405.578 163.516 409.016 165.016 413.016C166.547 416.984 167.312 421.406 167.312 426.281V429.516C167.312 434.359 166.547 438.781 165.016 442.781C163.516 446.781 161.375 450.219 158.594 453.094C155.844 455.938 152.547 458.141 148.703 459.703C144.891 461.234 140.672 462 136.047 462ZM129.156 393.75V462H115.094V393.75H129.156ZM233.594 426.281V429.516C233.594 434.703 232.891 439.359 231.484 443.484C230.078 447.609 228.094 451.125 225.531 454.031C222.969 456.906 219.906 459.109 216.344 460.641C212.812 462.172 208.891 462.938 204.578 462.938C200.297 462.938 196.375 462.172 192.812 460.641C189.281 459.109 186.219 456.906 183.625 454.031C181.031 451.125 179.016 447.609 177.578 443.484C176.172 439.359 175.469 434.703 175.469 429.516V426.281C175.469 421.062 176.172 416.406 177.578 412.312C178.984 408.188 180.969 404.672 183.531 401.766C186.125 398.859 189.188 396.641 192.719 395.109C196.281 393.578 200.203 392.812 204.484 392.812C208.797 392.812 212.719 393.578 216.25 395.109C219.812 396.641 222.875 398.859 225.438 401.766C228.031 404.672 230.031 408.188 231.438 412.312C232.875 416.406 233.594 421.062 233.594 426.281ZM219.391 429.516V426.188C219.391 422.562 219.062 419.375 218.406 416.625C217.75 413.875 216.781 411.562 215.5 409.688C214.219 407.812 212.656 406.406 210.812 405.469C208.969 404.5 206.859 404.016 204.484 404.016C202.109 404.016 200 404.5 198.156 405.469C196.344 406.406 194.797 407.812 193.516 409.688C192.266 411.562 191.312 413.875 190.656 416.625C190 419.375 189.672 422.562 189.672 426.188V429.516C189.672 433.109 190 436.297 190.656 439.078C191.312 441.828 192.281 444.156 193.562 446.062C194.844 447.938 196.406 449.359 198.25 450.328C200.094 451.297 202.203 451.781 204.578 451.781C206.953 451.781 209.062 451.297 210.906 450.328C212.75 449.359 214.297 447.938 215.547 446.062C216.797 444.156 217.75 441.828 218.406 439.078C219.062 436.297 219.391 433.109 219.391 429.516ZM283.281 439.359H297.297C297.016 443.953 295.75 448.031 293.5 451.594C291.281 455.156 288.172 457.938 284.172 459.938C280.203 461.938 275.422 462.938 269.828 462.938C265.453 462.938 261.531 462.188 258.062 460.688C254.594 459.156 251.625 456.969 249.156 454.125C246.719 451.281 244.859 447.844 243.578 443.812C242.297 439.781 241.656 435.266 241.656 430.266V425.531C241.656 420.531 242.312 416.016 243.625 411.984C244.969 407.922 246.875 404.469 249.344 401.625C251.844 398.781 254.828 396.594 258.297 395.062C261.766 393.531 265.641 392.766 269.922 392.766C275.609 392.766 280.406 393.797 284.312 395.859C288.25 397.922 291.297 400.766 293.453 404.391C295.641 408.016 296.953 412.141 297.391 416.766H283.328C283.172 414.016 282.625 411.688 281.688 409.781C280.75 407.844 279.328 406.391 277.422 405.422C275.547 404.422 273.047 403.922 269.922 403.922C267.578 403.922 265.531 404.359 263.781 405.234C262.031 406.109 260.562 407.438 259.375 409.219C258.188 411 257.297 413.25 256.703 415.969C256.141 418.656 255.859 421.812 255.859 425.438V430.266C255.859 433.797 256.125 436.906 256.656 439.594C257.188 442.25 258 444.5 259.094 446.344C260.219 448.156 261.656 449.531 263.406 450.469C265.188 451.375 267.328 451.828 269.828 451.828C272.766 451.828 275.188 451.359 277.094 450.422C279 449.484 280.453 448.094 281.453 446.25C282.484 444.406 283.094 442.109 283.281 439.359ZM318.109 393.75L330.953 417.562L343.797 393.75H359.875L340.047 427.594L360.391 462H344.172L330.953 437.719L317.734 462H301.422L321.812 427.594L301.938 393.75H318.109Z" fill="white"/>
</svg>
