<svg width="470" height="583" viewBox="0 0 470 583" fill="none" xmlns="http://www.w3.org/2000/svg">
<path d="M462 161.37V551C462 564.255 451.255 575 438 575H32C18.7452 575 8 564.255 8 551V32C8 18.7452 18.7452 8 32 8H332.779C340.002 8 346.84 11.253 351.398 16.8564L456.619 146.227C460.1 150.506 462 155.854 462 161.37Z" fill="#0E4728" stroke="#2AE07D" stroke-width="16"/>
<path d="M205.499 182.999C211.022 182.999 215.499 178.521 215.499 172.999C215.499 167.476 211.022 162.999 205.499 162.999C199.977 162.999 195.499 167.476 195.499 172.999C195.499 178.521 199.977 182.999 205.499 182.999Z" stroke="white" stroke-width="14" stroke-linecap="round" stroke-linejoin="round"/>
<path d="M172.166 202.999C172.166 173.143 172.166 158.215 181.441 148.94C190.716 139.666 205.644 139.666 235.499 139.666C265.355 139.666 280.283 139.666 289.558 148.94C298.833 158.215 298.833 173.143 298.833 202.999C298.833 232.854 298.833 247.782 289.558 257.058C280.283 266.332 265.355 266.332 235.499 266.332C205.644 266.332 190.716 266.332 181.441 257.058C172.166 247.782 172.166 232.854 172.166 202.999Z" stroke="white" stroke-width="14"/>
<path d="M188.833 262.998C217.982 228.165 250.66 182.225 298.816 213.281" stroke="white" stroke-width="14"/>
<path d="M167.547 367.75V436H153.531V367.75H167.547ZM187.141 367.75H199.047L216.578 417.859L234.109 367.75H246.016L221.359 436H211.797L187.141 367.75ZM180.719 367.75H192.578L194.734 416.594V436H180.719V367.75ZM240.578 367.75H252.484V436H238.422V416.594L240.578 367.75ZM318.906 400.328V427.375C317.844 428.656 316.203 430.047 313.984 431.547C311.766 433.016 308.906 434.281 305.406 435.344C301.906 436.406 297.672 436.938 292.703 436.938C288.297 436.938 284.281 436.219 280.656 434.781C277.031 433.312 273.906 431.172 271.281 428.359C268.688 425.547 266.688 422.109 265.281 418.047C263.875 413.953 263.172 409.281 263.172 404.031V399.766C263.172 394.516 263.844 389.844 265.188 385.75C266.562 381.656 268.516 378.203 271.047 375.391C273.578 372.578 276.594 370.438 280.094 368.969C283.594 367.5 287.484 366.766 291.766 366.766C297.703 366.766 302.578 367.734 306.391 369.672C310.203 371.578 313.109 374.234 315.109 377.641C317.141 381.016 318.391 384.891 318.859 389.266H305.219C304.875 386.953 304.219 384.938 303.25 383.219C302.281 381.5 300.891 380.156 299.078 379.188C297.297 378.219 294.984 377.734 292.141 377.734C289.797 377.734 287.703 378.219 285.859 379.188C284.047 380.125 282.516 381.516 281.266 383.359C280.016 385.203 279.062 387.484 278.406 390.203C277.75 392.922 277.422 396.078 277.422 399.672V404.031C277.422 407.594 277.766 410.75 278.453 413.5C279.141 416.219 280.156 418.516 281.5 420.391C282.875 422.234 284.562 423.625 286.562 424.562C288.562 425.5 290.891 425.969 293.547 425.969C295.766 425.969 297.609 425.781 299.078 425.406C300.578 425.031 301.781 424.578 302.688 424.047C303.625 423.484 304.344 422.953 304.844 422.453V410.359H292V400.328H318.906Z" fill="white"/>
</svg>
