<svg width="470" height="600" viewBox="0 0 470 600" fill="none" xmlns="http://www.w3.org/2000/svg">
<path d="M462 165.492V568C462 581.255 451.255 592 438 592H32C18.7452 592 8 581.255 8 568V32C8 18.7452 18.7452 8 32 8H332.503C339.844 8 346.781 11.3596 351.332 17.1191L456.83 150.611C460.178 154.848 462 160.091 462 165.492Z" fill="#260F38" stroke="#852DF6" stroke-width="16"/>
<rect x="68" y="219.211" width="333" height="18" fill="#DCB0FF" fill-opacity="0.6"/>
<rect x="68" y="269.211" width="333" height="18" fill="#DCB0FF" fill-opacity="0.6"/>
<rect x="68" y="319.211" width="333" height="18" fill="#DCB0FF" fill-opacity="0.6"/>
<rect x="68" y="369.211" width="333" height="18" fill="#DCB0FF" fill-opacity="0.6"/>
<path d="M166.047 471.521V539.771H152.031V471.521H166.047ZM185.641 471.521H197.547L215.078 521.631L232.609 471.521H244.516L219.859 539.771H210.297L185.641 471.521ZM179.219 471.521H191.078L193.234 520.365V539.771H179.219V471.521ZM239.078 471.521H250.984V539.771H236.922V520.365L239.078 471.521ZM317.406 504.1V531.146C316.344 532.428 314.703 533.818 312.484 535.318C310.266 536.787 307.406 538.053 303.906 539.115C300.406 540.178 296.172 540.709 291.203 540.709C286.797 540.709 282.781 539.99 279.156 538.553C275.531 537.084 272.406 534.943 269.781 532.131C267.188 529.318 265.188 525.881 263.781 521.818C262.375 517.725 261.672 513.053 261.672 507.803V503.537C261.672 498.287 262.344 493.615 263.688 489.521C265.062 485.428 267.016 481.975 269.547 479.162C272.078 476.35 275.094 474.209 278.594 472.74C282.094 471.271 285.984 470.537 290.266 470.537C296.203 470.537 301.078 471.506 304.891 473.443C308.703 475.35 311.609 478.006 313.609 481.412C315.641 484.787 316.891 488.662 317.359 493.037H303.719C303.375 490.725 302.719 488.709 301.75 486.99C300.781 485.271 299.391 483.928 297.578 482.959C295.797 481.99 293.484 481.506 290.641 481.506C288.297 481.506 286.203 481.99 284.359 482.959C282.547 483.896 281.016 485.287 279.766 487.131C278.516 488.975 277.562 491.256 276.906 493.975C276.25 496.693 275.922 499.85 275.922 503.443V507.803C275.922 511.365 276.266 514.521 276.953 517.271C277.641 519.99 278.656 522.287 280 524.162C281.375 526.006 283.062 527.396 285.062 528.334C287.062 529.271 289.391 529.74 292.047 529.74C294.266 529.74 296.109 529.553 297.578 529.178C299.078 528.803 300.281 528.35 301.188 527.818C302.125 527.256 302.844 526.725 303.344 526.225V514.131H290.5V504.1H317.406Z" fill="white"/>
<path d="M337.145 11.7989C337.098 7.97571 341.928 6.27197 344.29 9.27848L387.5 64.2738L455.301 156.233C457.248 158.874 455.362 162.607 452.081 162.607H342.951C340.761 162.607 338.978 160.846 338.951 158.656L337.145 11.7989Z" fill="#852DF6"/>
</svg>
