<svg width="470" height="583" viewBox="0 0 470 583" fill="none" xmlns="http://www.w3.org/2000/svg">
<path d="M462 161.37V551C462 564.255 451.255 575 438 575H32C18.7452 575 8 564.255 8 551V32C8 18.7452 18.7452 8 32 8H332.779C340.002 8 346.84 11.253 351.398 16.8564L456.619 146.227C460.1 150.506 462 155.854 462 161.37Z" fill="#4B1F11" stroke="#F35E2F" stroke-width="16"/>
<path d="M237.76 219.385H205.152V198.818H237.76C242.799 198.818 246.9 197.998 250.064 196.357C253.229 194.658 255.543 192.314 257.008 189.326C258.473 186.338 259.205 182.969 259.205 179.219C259.205 175.41 258.473 171.865 257.008 168.584C255.543 165.303 253.229 162.666 250.064 160.674C246.9 158.682 242.799 157.686 237.76 157.686H214.293V265H187.926V137.031H237.76C247.779 137.031 256.363 138.848 263.512 142.48C270.719 146.055 276.227 151.006 280.035 157.334C283.844 163.662 285.748 170.898 285.748 179.043C285.748 187.305 283.844 194.453 280.035 200.488C276.227 206.523 270.719 211.182 263.512 214.463C256.363 217.744 247.779 219.385 237.76 219.385Z" fill="white"/>
<path d="M175.672 437.672H158.281V426.703H175.672C178.359 426.703 180.547 426.266 182.234 425.391C183.922 424.484 185.156 423.234 185.938 421.641C186.719 420.047 187.109 418.25 187.109 416.25C187.109 414.219 186.719 412.328 185.938 410.578C185.156 408.828 183.922 407.422 182.234 406.359C180.547 405.297 178.359 404.766 175.672 404.766H163.156V462H149.094V393.75H175.672C181.016 393.75 185.594 394.719 189.406 396.656C193.25 398.562 196.188 401.203 198.219 404.578C200.25 407.953 201.266 411.812 201.266 416.156C201.266 420.562 200.25 424.375 198.219 427.594C196.188 430.812 193.25 433.297 189.406 435.047C185.594 436.797 181.016 437.672 175.672 437.672ZM237.547 437.672H220.156V426.703H237.547C240.234 426.703 242.422 426.266 244.109 425.391C245.797 424.484 247.031 423.234 247.812 421.641C248.594 420.047 248.984 418.25 248.984 416.25C248.984 414.219 248.594 412.328 247.812 410.578C247.031 408.828 245.797 407.422 244.109 406.359C242.422 405.297 240.234 404.766 237.547 404.766H225.031V462H210.969V393.75H237.547C242.891 393.75 247.469 394.719 251.281 396.656C255.125 398.562 258.062 401.203 260.094 404.578C262.125 407.953 263.141 411.812 263.141 416.156C263.141 420.562 262.125 424.375 260.094 427.594C258.062 430.812 255.125 433.297 251.281 435.047C247.469 436.797 242.891 437.672 237.547 437.672ZM303.359 393.75V462H289.344V393.75H303.359ZM324.359 393.75V404.766H268.672V393.75H324.359Z" fill="white"/>
</svg>
