<svg width="470" height="583" viewBox="0 0 470 583" fill="none" xmlns="http://www.w3.org/2000/svg">
<path d="M462 161.37V551C462 564.255 451.255 575 438 575H32C18.7452 575 8 564.255 8 551V32C8 18.7452 18.7452 8 32 8H332.779C340.002 8 346.84 11.253 351.398 16.8564L456.619 146.227C460.1 150.506 462 155.854 462 161.37Z" fill="#380F0F" stroke="#F62D2D" stroke-width="16"/>
<path d="M231.879 113C230.727 112.992 229.52 113.221 228.451 113.677C226.313 114.59 224.85 116.215 223.86 117.987C221.881 121.53 221.243 125.992 221.468 132.085C221.706 138.552 224.862 148.426 229.357 160.034C230.078 161.896 231.027 163.8 231.814 165.698C228.935 175.939 224.664 187.406 219.528 204.114C214.76 219.621 210.548 233.895 205.496 246.1C195.315 250.473 185.572 254.812 180.471 257.427C174.669 260.401 168.752 264.322 163.982 268.447C159.211 272.572 155.116 276.306 154.541 282.114C154.251 285.04 155.535 287.211 157.386 289.009C159.237 290.806 161.855 292.148 165.016 292.703C171.339 293.812 179.497 291.932 189.589 285.13C200.862 277.532 208.256 266.362 214.031 253.241C225.236 248.495 237.324 243.557 246.363 240.189C256.885 236.27 267.392 233.124 276.302 231.078C281.09 235.67 285.773 239.53 290.399 241.359C294.994 243.176 299.72 243.124 303.72 241.975C307.72 240.825 311.199 238.744 313.225 235.264C314.238 233.525 314.81 231.248 314.325 228.985C313.839 226.722 312.39 224.726 310.509 223.321C306.748 220.512 301.478 219.302 293.762 218.889C289.717 218.672 284.917 219.218 279.794 220.12C278.396 218.714 277.124 217.671 275.72 216.118C268.153 207.748 260.348 197.549 254.705 188.723C250.499 182.145 246.353 173.411 242.613 164.713C244.959 155.488 246.399 146.594 245.975 135.779C245.761 130.327 244.622 125.674 242.871 121.927C241.121 118.18 238.98 115.123 235.112 113.616C234.145 113.239 233.03 113.009 231.879 113ZM232.46 124.513C232.904 125.035 232.947 124.893 233.43 125.928C234.534 128.292 235.459 131.806 235.629 136.148C235.756 139.38 235.421 142.16 235.241 145.075C233.332 138.91 231.884 133.616 231.814 131.715C231.686 128.242 232.07 126.06 232.46 124.513ZM238.151 179.796C240.626 184.783 243.186 189.672 245.846 193.832C251.846 203.218 259.918 213.696 267.896 222.521C267.983 222.617 268.068 222.672 268.155 222.767C260.032 224.948 251.389 227.723 242.548 231.017C235.744 233.551 227.05 237.235 218.687 240.682C222.448 230.008 225.847 218.721 229.486 206.884C232.981 195.515 235.509 187.943 238.151 179.796ZM293.18 228.677C299.193 229 302.345 230.157 303.526 230.832C303.062 231.288 302.327 232.101 300.745 232.556C298.804 233.113 296.47 233.089 294.344 232.248C293.388 231.87 291.361 230.22 289.623 228.923C290.783 228.85 292.265 228.628 293.18 228.677ZM198.577 260.136C194.42 267.13 189.636 272.981 183.575 277.066C174.892 282.918 169.426 283.482 166.892 283.037C165.937 282.87 165.605 282.593 165.275 282.36C165.789 281.519 167.469 278.679 170.901 275.711C174.915 272.241 180.376 268.676 185.385 266.107C187.853 264.842 194.051 262.175 198.577 260.136Z" fill="white"/>
<path d="M178.672 421.672H161.281V410.703H178.672C181.359 410.703 183.547 410.266 185.234 409.391C186.922 408.484 188.156 407.234 188.938 405.641C189.719 404.047 190.109 402.25 190.109 400.25C190.109 398.219 189.719 396.328 188.938 394.578C188.156 392.828 186.922 391.422 185.234 390.359C183.547 389.297 181.359 388.766 178.672 388.766H166.156V446H152.094V377.75H178.672C184.016 377.75 188.594 378.719 192.406 380.656C196.25 382.562 199.188 385.203 201.219 388.578C203.25 391.953 204.266 395.812 204.266 400.156C204.266 404.562 203.25 408.375 201.219 411.594C199.188 414.812 196.25 417.297 192.406 419.047C188.594 420.797 184.016 421.672 178.672 421.672ZM234.922 446H220.062L220.156 435.031H234.922C238.609 435.031 241.719 434.203 244.25 432.547C246.781 430.859 248.688 428.406 249.969 425.188C251.281 421.969 251.938 418.078 251.938 413.516V410.188C251.938 406.688 251.562 403.609 250.812 400.953C250.094 398.297 249.016 396.062 247.578 394.25C246.141 392.438 244.375 391.078 242.281 390.172C240.188 389.234 237.781 388.766 235.062 388.766H219.781V377.75H235.062C239.625 377.75 243.797 378.531 247.578 380.094C251.391 381.625 254.688 383.828 257.469 386.703C260.25 389.578 262.391 393.016 263.891 397.016C265.422 400.984 266.188 405.406 266.188 410.281V413.516C266.188 418.359 265.422 422.781 263.891 426.781C262.391 430.781 260.25 434.219 257.469 437.094C254.719 439.938 251.422 442.141 247.578 443.703C243.766 445.234 239.547 446 234.922 446ZM228.031 377.75V446H213.969V377.75H228.031ZM290.469 377.75V446H276.406V377.75H290.469ZM317.656 406.906V417.875H286.625V406.906H317.656ZM320.938 377.75V388.766H286.625V377.75H320.938Z" fill="white"/>
</svg>
