<svg width="470" height="583" viewBox="0 0 470 583" fill="none" xmlns="http://www.w3.org/2000/svg">
<path d="M462 161.37V551C462 564.255 451.255 575 438 575H32C18.7452 575 8 564.255 8 551V32C8 18.7452 18.7452 8 32 8H332.779C340.002 8 346.84 11.253 351.398 16.8564L456.619 146.227C460.1 150.506 462 155.854 462 161.37Z" fill="#282B32" stroke="#8C8C8C" stroke-width="16"/>
<path d="M201.805 197.422L223.191 170.762L192.137 161.973L197.996 144.785L228.465 156.895L226.609 122.812H245.555L243.504 157.578L273.387 145.566L279.148 163.047L247.605 171.836L268.309 197.91L252.977 208.652L235.008 180.137L217.137 207.773L201.805 197.422Z" fill="white"/>
<path d="M144.156 382.281V385.516C144.156 390.703 143.453 395.359 142.047 399.484C140.641 403.609 138.656 407.125 136.094 410.031C133.531 412.906 130.469 415.109 126.906 416.641C123.375 418.172 119.453 418.938 115.141 418.938C110.859 418.938 106.938 418.172 103.375 416.641C99.8438 415.109 96.7812 412.906 94.1875 410.031C91.5938 407.125 89.5781 403.609 88.1406 399.484C86.7344 395.359 86.0312 390.703 86.0312 385.516V382.281C86.0312 377.062 86.7344 372.406 88.1406 368.312C89.5469 364.188 91.5312 360.672 94.0938 357.766C96.6875 354.859 99.75 352.641 103.281 351.109C106.844 349.578 110.766 348.812 115.047 348.812C119.359 348.812 123.281 349.578 126.812 351.109C130.375 352.641 133.438 354.859 136 357.766C138.594 360.672 140.594 364.188 142 368.312C143.438 372.406 144.156 377.062 144.156 382.281ZM129.953 385.516V382.188C129.953 378.562 129.625 375.375 128.969 372.625C128.312 369.875 127.344 367.562 126.062 365.688C124.781 363.812 123.219 362.406 121.375 361.469C119.531 360.5 117.422 360.016 115.047 360.016C112.672 360.016 110.562 360.5 108.719 361.469C106.906 362.406 105.359 363.812 104.078 365.688C102.828 367.562 101.875 369.875 101.219 372.625C100.562 375.375 100.234 378.562 100.234 382.188V385.516C100.234 389.109 100.562 392.297 101.219 395.078C101.875 397.828 102.844 400.156 104.125 402.062C105.406 403.938 106.969 405.359 108.812 406.328C110.656 407.297 112.766 407.781 115.141 407.781C117.516 407.781 119.625 407.297 121.469 406.328C123.312 405.359 124.859 403.938 126.109 402.062C127.359 400.156 128.312 397.828 128.969 395.078C129.625 392.297 129.953 389.109 129.953 385.516ZM181.609 349.75V418H167.594V349.75H181.609ZM202.609 349.75V360.766H146.922V349.75H202.609ZM256.141 377.547V388.516H220.516V377.547H256.141ZM224.688 349.75V418H210.625V349.75H224.688ZM266.172 349.75V418H252.156V349.75H266.172ZM324.203 407.031V418H287.875V407.031H324.203ZM292.469 349.75V418H278.406V349.75H292.469ZM319.469 377.547V388.234H287.875V377.547H319.469ZM324.156 349.75V360.766H287.875V349.75H324.156ZM332.406 349.75H357.859C363.078 349.75 367.562 350.531 371.312 352.094C375.094 353.656 378 355.969 380.031 359.031C382.062 362.094 383.078 365.859 383.078 370.328C383.078 373.984 382.453 377.125 381.203 379.75C379.984 382.344 378.25 384.516 376 386.266C373.781 387.984 371.172 389.359 368.172 390.391L363.719 392.734H341.594L341.5 381.766H357.953C360.422 381.766 362.469 381.328 364.094 380.453C365.719 379.578 366.938 378.359 367.75 376.797C368.594 375.234 369.016 373.422 369.016 371.359C369.016 369.172 368.609 367.281 367.797 365.688C366.984 364.094 365.75 362.875 364.094 362.031C362.438 361.188 360.359 360.766 357.859 360.766H346.469V418H332.406V349.75ZM370.562 418L355 387.578L369.859 387.484L385.609 417.344V418H370.562Z" fill="white"/>
</svg>
