<svg width="360" height="360" viewBox="0 0 360 360" fill="none" xmlns="http://www.w3.org/2000/svg">
<rect width="360" height="360" rx="90" fill="white"/>
<path d="M247.935 178.665L246.735 177.015C244.635 174.465 242.16 172.44 239.31 170.94C235.485 168.765 231.135 167.64 226.635 167.64H133.26C128.76 167.64 124.485 168.765 120.585 170.94C117.66 172.515 115.035 174.69 112.86 177.39C108.585 182.865 106.56 189.615 107.235 196.365L110.01 231.39C110.985 241.965 112.26 255.015 136.035 255.015H223.935C247.71 255.015 248.91 241.965 249.96 231.315L252.735 196.44C253.41 190.14 251.76 183.84 247.935 178.665ZM197.91 220.065H161.985C159.06 220.065 156.735 217.665 156.735 214.815C156.735 211.965 159.06 209.565 161.985 209.565H197.91C200.835 209.565 203.16 211.965 203.16 214.815C203.16 217.74 200.835 220.065 197.91 220.065Z" fill="#0D0E13"/>
<path opacity="0.4" d="M115.343 174.825C116.993 173.325 118.643 171.975 120.593 170.925C124.418 168.75 128.768 167.625 133.268 167.625H226.718C231.218 167.625 235.493 168.75 239.393 170.925C241.343 171.975 243.068 173.325 244.643 174.9V163.65C244.643 136.875 236.468 128.7 209.693 128.7H191.843C188.543 128.7 188.468 128.625 186.518 126.075L177.518 114C173.243 108.45 169.868 105 159.143 105H150.293C123.518 105 115.343 113.175 115.343 139.95V174.825Z" fill="#0D0E13"/>
</svg>
