<svg width="92" height="92" viewBox="0 0 92 92" fill="none" xmlns="http://www.w3.org/2000/svg">
<path d="M91 34.906V34.7497C90.6875 33.9685 90.2187 33.3435 89.5938 32.8747L79.75 25.5309V16.3121C79.75 13.6559 77.7188 11.6246 75.0625 11.6246H62.4065L49.1255 1.62463C47.4067 0.374634 44.9067 0.374634 43.188 1.62463L29.75 11.6246H17.094C14.4378 11.6246 12.4065 13.6558 12.4065 16.3121V25.5309L2.56269 32.8747C1.93769 33.3435 1.46889 33.9685 1.15649 34.7497V34.906C0.843994 35.531 0.687744 35.9998 0.687744 36.6248V86.6248C0.687744 89.281 2.71894 91.3123 5.37524 91.3123H86.6252C89.2814 91.3123 91.3127 89.2811 91.3127 86.6248V36.6248C91.3127 35.9998 91.1562 35.531 91 34.906ZM79.594 29.4372L87.2502 35.0622L79.594 40.9997V29.4372ZM44.906 4.12518C45.531 3.65643 46.4685 3.65643 47.0935 4.12518L56.9373 11.6252H35.0623L44.906 4.12518ZM15.531 16.3132C15.531 15.3757 16.156 14.7507 17.0935 14.7507H74.9055C75.843 14.7507 76.468 15.3757 76.468 16.3132V43.5012L46.937 66.6262C46.312 67.0949 45.5308 67.0949 45.062 66.6262L15.531 43.5012V16.3132ZM12.406 29.4382V41.1572L4.74979 35.0634L12.406 29.4382ZM3.81219 86.3132V38.3442L32.4062 60.8442L3.81219 86.3132ZM6.31219 88.1882L34.9062 62.7192L43.1874 69.1254C43.9686 69.7504 45.0624 70.0629 46.1562 70.0629C47.25 70.0629 48.1874 69.7504 49.125 69.1254L57.4062 62.7192L85.6872 88.1882H6.31219ZM88.1872 86.3132L59.5932 60.6882L88.1872 38.3442V86.3132Z" fill="white"/>
<path d="M30.375 25.688H61.625C62.5625 25.688 63.1875 25.063 63.1875 24.1255C63.1875 23.188 62.5625 22.563 61.625 22.563H30.375C29.4375 22.563 28.8125 23.188 28.8125 24.1255C28.8125 25.063 29.4375 25.688 30.375 25.688Z" fill="white"/>
<path d="M30.375 36.625H61.625C62.5625 36.625 63.1875 36 63.1875 35.0625C63.1875 34.125 62.5625 33.5 61.625 33.5H30.375C29.4375 33.5 28.8125 34.125 28.8125 35.0625C28.8125 36 29.4375 36.625 30.375 36.625Z" fill="white"/>
<path d="M63.188 46C63.188 45.0625 62.563 44.4375 61.6255 44.4375H30.3755C29.438 44.4375 28.813 45.0625 28.813 46C28.813 46.9375 29.438 47.5625 30.3755 47.5625H61.6255C62.563 47.5625 63.188 46.9375 63.188 46Z" fill="white"/>
</svg>
