<svg width="620" height="600" viewBox="0 0 620 600" fill="none" xmlns="http://www.w3.org/2000/svg">
<path d="M158 32C158 18.7452 168.745 8 182 8H482.503C489.844 8 496.781 11.3596 501.332 17.1191L606.83 150.611C610.178 154.848 612 160.091 612 165.492V568C612 581.255 601.255 592 588 592H182C168.745 592 158 581.255 158 568V32Z" fill="#1D232D" stroke="#364152" stroke-width="16"/>
<rect x="218" y="216" width="333" height="18" fill="#41A5EE"/>
<rect x="218" y="282" width="333" height="18" fill="#41A5EE" fill-opacity="0.75"/>
<rect x="218" y="348" width="333" height="18" fill="#41A5EE" fill-opacity="0.5"/>
<rect x="218" y="414" width="333" height="18" fill="#41A5EE" fill-opacity="0.25"/>
<path d="M498 22.0964L543.817 77.0772L603.235 150.5H498V22.0964Z" stroke="#364152" stroke-width="16"/>
<rect y="150" width="300" height="300" rx="37.5" fill="#41A5EE"/>
<mask id="path-8-outside-1_410_44" maskUnits="userSpaceOnUse" x="40" y="266" width="225" height="67" fill="black">
<rect fill="white" x="40" y="266" width="225" height="67"/>
<path d="M61.2295 330H47.918L48.002 320.174H61.2295C64.5329 320.174 67.3184 319.432 69.5859 317.948C71.8535 316.437 73.5612 314.239 74.709 311.355C75.8848 308.472 76.4727 304.987 76.4727 300.899V297.918C76.4727 294.783 76.1367 292.025 75.4648 289.646C74.821 287.266 73.8551 285.264 72.5674 283.641C71.2796 282.017 69.6979 280.799 67.8223 279.987C65.9466 279.147 63.791 278.728 61.3555 278.728H47.666V268.859H61.3555C65.4427 268.859 69.18 269.559 72.5674 270.959C75.9827 272.331 78.9362 274.304 81.4277 276.88C83.9193 279.455 85.8369 282.535 87.1807 286.118C88.5524 289.674 89.2383 293.635 89.2383 298.002V300.899C89.2383 305.239 88.5524 309.2 87.1807 312.783C85.8369 316.367 83.9193 319.446 81.4277 322.021C78.9642 324.569 76.0107 326.543 72.5674 327.942C69.152 329.314 65.3727 330 61.2295 330ZM55.0566 268.859V330H42.459V268.859H55.0566ZM148.615 298.002V300.899C148.615 305.547 147.985 309.718 146.726 313.413C145.466 317.108 143.688 320.258 141.393 322.861C139.097 325.437 136.354 327.41 133.162 328.782C129.999 330.154 126.485 330.84 122.622 330.84C118.787 330.84 115.273 330.154 112.082 328.782C108.919 327.41 106.175 325.437 103.852 322.861C101.528 320.258 99.7223 317.108 98.4346 313.413C97.1748 309.718 96.5449 305.547 96.5449 300.899V298.002C96.5449 293.327 97.1748 289.156 98.4346 285.488C99.6943 281.793 101.472 278.644 103.768 276.04C106.091 273.437 108.835 271.449 111.998 270.077C115.189 268.705 118.703 268.02 122.538 268.02C126.401 268.02 129.915 268.705 133.078 270.077C136.27 271.449 139.013 273.437 141.309 276.04C143.632 278.644 145.424 281.793 146.684 285.488C147.971 289.156 148.615 293.327 148.615 298.002ZM135.892 300.899V297.918C135.892 294.671 135.598 291.815 135.01 289.352C134.422 286.888 133.554 284.816 132.406 283.137C131.258 281.457 129.859 280.197 128.207 279.357C126.555 278.49 124.666 278.056 122.538 278.056C120.41 278.056 118.521 278.49 116.869 279.357C115.245 280.197 113.86 281.457 112.712 283.137C111.592 284.816 110.738 286.888 110.15 289.352C109.562 291.815 109.269 294.671 109.269 297.918V300.899C109.269 304.119 109.562 306.974 110.15 309.466C110.738 311.929 111.606 314.015 112.754 315.723C113.902 317.402 115.301 318.676 116.953 319.544C118.605 320.412 120.494 320.846 122.622 320.846C124.75 320.846 126.639 320.412 128.291 319.544C129.943 318.676 131.328 317.402 132.448 315.723C133.568 314.015 134.422 311.929 135.01 309.466C135.598 306.974 135.892 304.119 135.892 300.899ZM193.127 309.718H205.683C205.431 313.833 204.297 317.486 202.281 320.678C200.294 323.869 197.508 326.361 193.925 328.152C190.369 329.944 186.086 330.84 181.075 330.84C177.156 330.84 173.643 330.168 170.535 328.824C167.428 327.452 164.768 325.493 162.557 322.945C160.373 320.398 158.707 317.318 157.56 313.707C156.412 310.096 155.838 306.05 155.838 301.571V297.33C155.838 292.851 156.426 288.806 157.602 285.194C158.805 281.555 160.513 278.462 162.725 275.914C164.964 273.367 167.638 271.407 170.745 270.035C173.853 268.663 177.324 267.978 181.159 267.978C186.254 267.978 190.551 268.901 194.051 270.749C197.578 272.597 200.308 275.144 202.239 278.392C204.199 281.639 205.375 285.334 205.767 289.478H193.169C193.029 287.014 192.539 284.928 191.699 283.221C190.859 281.485 189.586 280.183 187.878 279.315C186.198 278.42 183.959 277.972 181.159 277.972C179.06 277.972 177.226 278.364 175.658 279.147C174.09 279.931 172.775 281.121 171.711 282.717C170.647 284.312 169.849 286.328 169.317 288.764C168.813 291.171 168.562 293.999 168.562 297.246V301.571C168.562 304.735 168.799 307.52 169.275 309.928C169.751 312.307 170.479 314.323 171.459 315.975C172.467 317.598 173.755 318.83 175.322 319.67C176.918 320.482 178.836 320.888 181.075 320.888C183.707 320.888 185.876 320.468 187.584 319.628C189.292 318.788 190.593 317.542 191.489 315.891C192.413 314.239 192.959 312.181 193.127 309.718ZM224.327 268.859L235.833 290.191L247.339 268.859H261.742L243.979 299.178L262.204 330H247.675L235.833 308.248L223.991 330H209.378L227.645 299.178L209.84 268.859H224.327Z"/>
</mask>
<path d="M61.2295 330H47.918L48.002 320.174H61.2295C64.5329 320.174 67.3184 319.432 69.5859 317.948C71.8535 316.437 73.5612 314.239 74.709 311.355C75.8848 308.472 76.4727 304.987 76.4727 300.899V297.918C76.4727 294.783 76.1367 292.025 75.4648 289.646C74.821 287.266 73.8551 285.264 72.5674 283.641C71.2796 282.017 69.6979 280.799 67.8223 279.987C65.9466 279.147 63.791 278.728 61.3555 278.728H47.666V268.859H61.3555C65.4427 268.859 69.18 269.559 72.5674 270.959C75.9827 272.331 78.9362 274.304 81.4277 276.88C83.9193 279.455 85.8369 282.535 87.1807 286.118C88.5524 289.674 89.2383 293.635 89.2383 298.002V300.899C89.2383 305.239 88.5524 309.2 87.1807 312.783C85.8369 316.367 83.9193 319.446 81.4277 322.021C78.9642 324.569 76.0107 326.543 72.5674 327.942C69.152 329.314 65.3727 330 61.2295 330ZM55.0566 268.859V330H42.459V268.859H55.0566ZM148.615 298.002V300.899C148.615 305.547 147.985 309.718 146.726 313.413C145.466 317.108 143.688 320.258 141.393 322.861C139.097 325.437 136.354 327.41 133.162 328.782C129.999 330.154 126.485 330.84 122.622 330.84C118.787 330.84 115.273 330.154 112.082 328.782C108.919 327.41 106.175 325.437 103.852 322.861C101.528 320.258 99.7223 317.108 98.4346 313.413C97.1748 309.718 96.5449 305.547 96.5449 300.899V298.002C96.5449 293.327 97.1748 289.156 98.4346 285.488C99.6943 281.793 101.472 278.644 103.768 276.04C106.091 273.437 108.835 271.449 111.998 270.077C115.189 268.705 118.703 268.02 122.538 268.02C126.401 268.02 129.915 268.705 133.078 270.077C136.27 271.449 139.013 273.437 141.309 276.04C143.632 278.644 145.424 281.793 146.684 285.488C147.971 289.156 148.615 293.327 148.615 298.002ZM135.892 300.899V297.918C135.892 294.671 135.598 291.815 135.01 289.352C134.422 286.888 133.554 284.816 132.406 283.137C131.258 281.457 129.859 280.197 128.207 279.357C126.555 278.49 124.666 278.056 122.538 278.056C120.41 278.056 118.521 278.49 116.869 279.357C115.245 280.197 113.86 281.457 112.712 283.137C111.592 284.816 110.738 286.888 110.15 289.352C109.562 291.815 109.269 294.671 109.269 297.918V300.899C109.269 304.119 109.562 306.974 110.15 309.466C110.738 311.929 111.606 314.015 112.754 315.723C113.902 317.402 115.301 318.676 116.953 319.544C118.605 320.412 120.494 320.846 122.622 320.846C124.75 320.846 126.639 320.412 128.291 319.544C129.943 318.676 131.328 317.402 132.448 315.723C133.568 314.015 134.422 311.929 135.01 309.466C135.598 306.974 135.892 304.119 135.892 300.899ZM193.127 309.718H205.683C205.431 313.833 204.297 317.486 202.281 320.678C200.294 323.869 197.508 326.361 193.925 328.152C190.369 329.944 186.086 330.84 181.075 330.84C177.156 330.84 173.643 330.168 170.535 328.824C167.428 327.452 164.768 325.493 162.557 322.945C160.373 320.398 158.707 317.318 157.56 313.707C156.412 310.096 155.838 306.05 155.838 301.571V297.33C155.838 292.851 156.426 288.806 157.602 285.194C158.805 281.555 160.513 278.462 162.725 275.914C164.964 273.367 167.638 271.407 170.745 270.035C173.853 268.663 177.324 267.978 181.159 267.978C186.254 267.978 190.551 268.901 194.051 270.749C197.578 272.597 200.308 275.144 202.239 278.392C204.199 281.639 205.375 285.334 205.767 289.478H193.169C193.029 287.014 192.539 284.928 191.699 283.221C190.859 281.485 189.586 280.183 187.878 279.315C186.198 278.42 183.959 277.972 181.159 277.972C179.06 277.972 177.226 278.364 175.658 279.147C174.09 279.931 172.775 281.121 171.711 282.717C170.647 284.312 169.849 286.328 169.317 288.764C168.813 291.171 168.562 293.999 168.562 297.246V301.571C168.562 304.735 168.799 307.52 169.275 309.928C169.751 312.307 170.479 314.323 171.459 315.975C172.467 317.598 173.755 318.83 175.322 319.67C176.918 320.482 178.836 320.888 181.075 320.888C183.707 320.888 185.876 320.468 187.584 319.628C189.292 318.788 190.593 317.542 191.489 315.891C192.413 314.239 192.959 312.181 193.127 309.718ZM224.327 268.859L235.833 290.191L247.339 268.859H261.742L243.979 299.178L262.204 330H247.675L235.833 308.248L223.991 330H209.378L227.645 299.178L209.84 268.859H224.327Z" fill="white"/>
<path d="M47.918 330L46.418 329.987L46.4051 331.5H47.918V330ZM48.002 320.174V318.674H46.5147L46.502 320.161L48.002 320.174ZM69.5859 317.948L70.4073 319.203L70.418 319.196L69.5859 317.948ZM74.709 311.355L73.32 310.789L73.3153 310.801L74.709 311.355ZM75.4648 289.646L74.0169 290.037L74.0191 290.045L74.0213 290.053L75.4648 289.646ZM67.8223 279.987L67.2093 281.356L67.2178 281.36L67.2264 281.364L67.8223 279.987ZM47.666 278.728H46.166V280.228H47.666V278.728ZM47.666 268.859V267.359H46.166V268.859H47.666ZM72.5674 270.959L71.9945 272.345L72.0014 272.348L72.0083 272.351L72.5674 270.959ZM81.4277 276.88L82.5058 275.837L81.4277 276.88ZM87.1807 286.118L85.7762 286.645L85.7787 286.651L85.7812 286.658L87.1807 286.118ZM87.1807 312.783L85.7798 312.247L85.7762 312.257L87.1807 312.783ZM81.4277 322.021L80.3496 320.979L80.3494 320.979L81.4277 322.021ZM72.5674 327.942L73.1264 329.334L73.1323 329.332L72.5674 327.942ZM55.0566 268.859H56.5566V267.359H55.0566V268.859ZM55.0566 330V331.5H56.5566V330H55.0566ZM42.459 330H40.959V331.5H42.459V330ZM42.459 268.859V267.359H40.959V268.859H42.459ZM61.2295 328.5H47.918V331.5H61.2295V328.5ZM49.4179 330.013L49.5019 320.187L46.502 320.161L46.418 329.987L49.4179 330.013ZM48.002 321.674H61.2295V318.674H48.002V321.674ZM61.2295 321.674C64.7602 321.674 67.8467 320.879 70.4072 319.203L68.7646 316.693C66.79 317.985 64.3055 318.674 61.2295 318.674V321.674ZM70.418 319.196C72.9728 317.493 74.8585 315.036 76.1026 311.91L73.3153 310.801C72.2639 313.442 70.7342 315.38 68.7539 316.7L70.418 319.196ZM76.0979 311.922C77.3661 308.812 77.9727 305.123 77.9727 300.899H74.9727C74.9727 304.85 74.4035 308.132 73.32 310.789L76.0979 311.922ZM77.9727 300.899V297.918H74.9727V300.899H77.9727ZM77.9727 297.918C77.9727 294.68 77.6262 291.78 76.9084 289.238L74.0213 290.053C74.6473 292.27 74.9727 294.885 74.9727 297.918H77.9727ZM76.9128 289.254C76.2256 286.714 75.1787 284.519 73.7426 282.709L71.3921 284.573C72.5316 286.009 73.4164 287.818 74.0169 290.037L76.9128 289.254ZM73.7426 282.709C72.3035 280.894 70.5238 279.522 68.4181 278.611L67.2264 281.364C68.872 282.076 70.2557 283.14 71.3921 284.573L73.7426 282.709ZM68.4353 278.618C66.3344 277.678 63.9637 277.228 61.3555 277.228V280.228C63.6183 280.228 65.5588 280.617 67.2093 281.356L68.4353 278.618ZM61.3555 277.228H47.666V280.228H61.3555V277.228ZM49.166 278.728V268.859H46.166V278.728H49.166ZM47.666 270.359H61.3555V267.359H47.666V270.359ZM61.3555 270.359C65.2688 270.359 68.8086 271.029 71.9945 272.345L73.1402 269.573C69.5514 268.09 65.6166 267.359 61.3555 267.359V270.359ZM72.0083 272.351C75.2335 273.646 78.0087 275.503 80.3496 277.923L82.5058 275.837C79.8637 273.106 76.732 271.015 73.1264 269.567L72.0083 272.351ZM80.3496 277.923C82.6886 280.341 84.4997 283.241 85.7762 286.645L88.5852 285.591C87.1741 281.829 85.15 278.57 82.5058 275.837L80.3496 277.923ZM85.7812 286.658C87.0775 290.018 87.7383 293.793 87.7383 298.002H90.7383C90.7383 293.477 90.0273 289.329 88.5801 285.578L85.7812 286.658ZM87.7383 298.002V300.899H90.7383V298.002H87.7383ZM87.7383 300.899C87.7383 305.079 87.078 308.856 85.7798 312.247L88.5815 313.319C90.0268 309.544 90.7383 305.398 90.7383 300.899H87.7383ZM85.7762 312.257C84.4997 315.66 82.6886 318.561 80.3496 320.979L82.5058 323.064C85.15 320.331 87.1741 317.073 88.5852 313.31L85.7762 312.257ZM80.3494 320.979C78.0381 323.369 75.2621 325.228 72.0025 326.553L73.1323 329.332C76.7594 327.858 79.8903 325.769 82.506 323.064L80.3494 320.979ZM72.0083 326.55C68.7917 327.842 65.2052 328.5 61.2295 328.5V331.5C65.5403 331.5 69.5124 330.786 73.1264 329.334L72.0083 326.55ZM53.5566 268.859V330H56.5566V268.859H53.5566ZM55.0566 328.5H42.459V331.5H55.0566V328.5ZM43.959 330V268.859H40.959V330H43.959ZM42.459 270.359H55.0566V267.359H42.459V270.359ZM141.393 322.861L142.512 323.859L142.518 323.853L141.393 322.861ZM133.162 328.782L132.57 327.404L132.565 327.406L133.162 328.782ZM112.082 328.782L111.485 330.158L111.49 330.16L112.082 328.782ZM103.852 322.861L102.732 323.86L102.738 323.866L103.852 322.861ZM98.4346 313.413L97.0148 313.897L97.0181 313.907L98.4346 313.413ZM98.4346 285.488L99.8532 285.976L99.8543 285.972L98.4346 285.488ZM103.768 276.04L102.648 275.041L102.642 275.048L103.768 276.04ZM111.998 270.077L111.406 268.699L111.401 268.701L111.998 270.077ZM133.078 270.077L132.481 271.453L132.486 271.455L133.078 270.077ZM141.309 276.04L140.183 277.032L140.189 277.039L141.309 276.04ZM146.684 285.488L145.264 285.972L145.268 285.985L146.684 285.488ZM135.01 289.352L133.551 289.7L135.01 289.352ZM128.207 279.357L127.509 280.685L127.518 280.69L127.527 280.694L128.207 279.357ZM116.869 279.357L117.558 280.69L117.567 280.685L116.869 279.357ZM112.712 283.137L111.473 282.29L111.469 282.298L111.464 282.305L112.712 283.137ZM110.15 309.466L108.69 309.81L108.691 309.814L110.15 309.466ZM112.754 315.723L111.509 316.559L111.515 316.569L112.754 315.723ZM116.953 319.544L116.255 320.872L116.953 319.544ZM128.291 319.544L128.989 320.872L128.291 319.544ZM132.448 315.723L133.696 316.555L133.703 316.545L132.448 315.723ZM135.01 309.466L136.469 309.814L136.47 309.81L135.01 309.466ZM147.115 298.002V300.899H150.115V298.002H147.115ZM147.115 300.899C147.115 305.412 146.503 309.416 145.306 312.929L148.145 313.897C149.467 310.02 150.115 305.681 150.115 300.899H147.115ZM145.306 312.929C144.102 316.461 142.417 319.431 140.267 321.869L142.518 323.853C144.959 321.084 146.83 317.756 148.145 313.897L145.306 312.929ZM140.273 321.863C138.124 324.274 135.561 326.118 132.57 327.404L133.754 330.16C137.146 328.703 140.07 326.6 142.512 323.859L140.273 321.863ZM132.565 327.406C129.612 328.687 126.305 329.34 122.622 329.34V332.34C126.666 332.34 130.386 331.621 133.759 330.158L132.565 327.406ZM122.622 329.34C118.969 329.34 115.66 328.687 112.674 327.404L111.49 330.16C114.887 331.62 118.604 332.34 122.622 332.34V329.34ZM112.679 327.406C109.714 326.12 107.146 324.274 104.965 321.857L102.738 323.866C105.204 326.6 108.124 328.701 111.485 330.158L112.679 327.406ZM104.971 321.863C102.794 319.423 101.082 316.451 99.851 312.919L97.0181 313.907C98.3629 317.766 100.262 321.093 102.732 323.86L104.971 321.863ZM99.8543 312.929C98.6567 309.416 98.0449 305.412 98.0449 300.899H95.0449C95.0449 305.681 95.6929 310.02 97.0148 313.897L99.8543 312.929ZM98.0449 300.899V298.002H95.0449V300.899H98.0449ZM98.0449 298.002C98.0449 293.46 98.6571 289.458 99.8532 285.976L97.0159 285.001C95.6925 288.854 95.0449 293.194 95.0449 298.002H98.0449ZM99.8543 285.972C101.058 282.441 102.743 279.47 104.893 277.032L102.642 275.048C100.201 277.817 98.3304 281.145 97.0148 285.004L99.8543 285.972ZM104.887 277.039C107.067 274.595 109.633 272.738 112.595 271.453L111.401 268.701C108.036 270.16 105.115 272.278 102.648 275.041L104.887 277.039ZM112.59 271.455C115.576 270.172 118.885 269.52 122.538 269.52V266.52C118.52 266.52 114.803 267.239 111.406 268.699L112.59 271.455ZM122.538 269.52C126.221 269.52 129.528 270.173 132.481 271.453L133.675 268.701C130.302 267.238 126.582 266.52 122.538 266.52V269.52ZM132.486 271.455C135.473 272.739 138.035 274.595 140.183 277.032L142.434 275.048C139.991 272.278 137.066 270.158 133.67 268.699L132.486 271.455ZM140.189 277.039C142.364 279.476 144.061 282.444 145.264 285.972L148.103 285.004C146.787 281.142 144.9 277.811 142.428 275.041L140.189 277.039ZM145.268 285.985C146.49 289.464 147.115 293.463 147.115 298.002H150.115C150.115 293.191 149.453 288.847 148.099 284.991L145.268 285.985ZM137.392 300.899V297.918H134.392V300.899H137.392ZM137.392 297.918C137.392 294.584 137.09 291.608 136.469 289.003L133.551 289.7C134.105 292.022 134.392 294.757 134.392 297.918H137.392ZM136.469 289.003C135.848 286.404 134.918 284.153 133.645 282.29L131.168 283.983C132.19 285.48 132.995 287.372 133.551 289.7L136.469 289.003ZM133.645 282.29C132.369 280.424 130.784 278.985 128.887 278.02L127.527 280.694C128.933 281.409 130.148 282.49 131.168 283.983L133.645 282.29ZM128.905 278.03C127.009 277.034 124.874 276.556 122.538 276.556V279.556C124.457 279.556 126.101 279.945 127.509 280.685L128.905 278.03ZM122.538 276.556C120.202 276.556 118.067 277.034 116.171 278.03L117.567 280.685C118.975 279.945 120.619 279.556 122.538 279.556V276.556ZM116.18 278.025C114.312 278.991 112.745 280.429 111.473 282.29L113.95 283.983C114.974 282.485 116.179 281.403 117.558 280.69L116.18 278.025ZM111.464 282.305C110.224 284.164 109.31 286.409 108.691 289.003L111.609 289.7C112.166 287.367 112.96 285.469 113.96 283.969L111.464 282.305ZM108.691 289.003C108.07 291.608 107.769 294.584 107.769 297.918H110.769C110.769 294.757 111.055 292.022 111.609 289.7L108.691 289.003ZM107.769 297.918V300.899H110.769V297.918H107.769ZM107.769 300.899C107.769 304.207 108.07 307.181 108.69 309.81L111.61 309.121C111.055 306.767 110.769 304.031 110.769 300.899H107.769ZM108.691 309.814C109.312 312.413 110.241 314.673 111.509 316.559L113.999 314.886C112.971 313.357 112.165 311.446 111.609 309.118L108.691 309.814ZM111.515 316.569C112.789 318.432 114.368 319.88 116.255 320.872L117.651 318.216C116.235 317.472 115.015 316.372 113.992 314.876L111.515 316.569ZM116.255 320.872C118.151 321.868 120.286 322.346 122.622 322.346V319.346C120.703 319.346 119.059 318.956 117.651 318.216L116.255 320.872ZM122.622 322.346C124.958 322.346 127.093 321.868 128.989 320.872L127.593 318.216C126.185 318.956 124.541 319.346 122.622 319.346V322.346ZM128.989 320.872C130.88 319.878 132.449 318.426 133.696 316.555L131.2 314.891C130.208 316.379 129.005 317.474 127.593 318.216L128.989 320.872ZM133.703 316.545C134.937 314.662 135.85 312.407 136.469 309.814L133.551 309.118C132.994 311.451 132.199 313.368 131.194 314.9L133.703 316.545ZM136.47 309.81C137.09 307.181 137.392 304.207 137.392 300.899H134.392C134.392 304.031 134.105 306.767 133.55 309.121L136.47 309.81ZM193.127 309.718V308.218H191.726L191.63 309.616L193.127 309.718ZM205.683 309.718L207.18 309.809L207.277 308.218H205.683V309.718ZM202.281 320.678L201.013 319.877L201.008 319.885L202.281 320.678ZM193.925 328.152L193.254 326.811L193.25 326.813L193.925 328.152ZM170.535 328.824L169.929 330.197L169.94 330.201L170.535 328.824ZM162.557 322.945L161.418 323.922L161.424 323.929L162.557 322.945ZM157.56 313.707L156.13 314.161L157.56 313.707ZM157.602 285.194L156.177 284.723L156.175 284.73L157.602 285.194ZM162.725 275.914L161.598 274.924L161.592 274.931L162.725 275.914ZM194.051 270.749L193.35 272.075L193.355 272.078L194.051 270.749ZM202.239 278.392L200.95 279.158L200.955 279.167L202.239 278.392ZM205.767 289.478V290.978H207.415L207.26 289.336L205.767 289.478ZM193.169 289.478L191.671 289.563L191.752 290.978H193.169V289.478ZM191.699 283.221L190.349 283.874L190.353 283.883L191.699 283.221ZM187.878 279.315L187.172 280.639L187.185 280.646L187.198 280.653L187.878 279.315ZM169.317 288.764L167.852 288.444L167.849 288.456L169.317 288.764ZM169.275 309.928L167.804 310.219L167.805 310.222L169.275 309.928ZM171.459 315.975L170.169 316.74L170.177 316.753L170.185 316.766L171.459 315.975ZM175.322 319.67L174.614 320.992L174.628 321L174.642 321.007L175.322 319.67ZM191.489 315.891L190.18 315.158L190.175 315.167L190.171 315.175L191.489 315.891ZM193.127 311.218H205.683V308.218H193.127V311.218ZM204.185 309.626C203.947 313.513 202.882 316.918 201.013 319.877L203.549 321.479C205.712 318.055 206.914 314.153 207.18 309.809L204.185 309.626ZM201.008 319.885C199.176 322.826 196.607 325.134 193.254 326.811L194.596 329.494C198.41 327.587 201.411 324.913 203.555 321.471L201.008 319.885ZM193.25 326.813C189.951 328.475 185.911 329.34 181.075 329.34V332.34C186.262 332.34 190.788 331.413 194.6 329.492L193.25 326.813ZM181.075 329.34C177.329 329.34 174.023 328.698 171.131 327.447L169.94 330.201C173.262 331.638 176.983 332.34 181.075 332.34V329.34ZM171.141 327.452C168.234 326.169 165.755 324.341 163.689 321.962L161.424 323.929C163.781 326.644 166.621 328.736 169.929 330.196L171.141 327.452ZM163.696 321.969C161.659 319.593 160.084 316.697 158.989 313.253L156.13 314.161C157.331 317.94 159.087 321.203 161.418 323.922L163.696 321.969ZM158.989 313.253C157.896 309.812 157.338 305.924 157.338 301.571H154.338C154.338 306.177 154.928 310.379 156.13 314.161L158.989 313.253ZM157.338 301.571V297.33H154.338V301.571H157.338ZM157.338 297.33C157.338 292.981 157.909 289.096 159.028 285.659L156.175 284.73C154.943 288.515 154.338 292.721 154.338 297.33H157.338ZM159.026 285.665C160.176 282.189 161.792 279.276 163.857 276.897L161.592 274.931C159.234 277.647 157.435 280.921 156.177 284.723L159.026 285.665ZM163.851 276.904C165.947 274.521 168.442 272.691 171.351 271.407L170.139 268.663C166.833 270.122 163.982 272.212 161.598 274.924L163.851 276.904ZM171.351 271.407C174.244 270.13 177.506 269.478 181.159 269.478V266.478C177.142 266.478 173.461 267.197 170.139 268.663L171.351 271.407ZM181.159 269.478C186.078 269.478 190.12 270.37 193.35 272.075L194.751 269.423C190.983 267.433 186.43 266.478 181.159 266.478V269.478ZM193.355 272.078C196.65 273.804 199.168 276.163 200.95 279.158L203.528 277.625C201.447 274.126 198.506 271.389 194.747 269.42L193.355 272.078ZM200.955 279.167C202.787 282.203 203.9 285.678 204.273 289.619L207.26 289.336C206.849 284.991 205.611 281.075 203.524 277.617L200.955 279.167ZM205.767 287.978H193.169V290.978H205.767V287.978ZM194.667 289.392C194.518 286.785 193.996 284.491 193.045 282.559L190.353 283.883C191.082 285.365 191.54 287.243 191.671 289.563L194.667 289.392ZM193.049 282.567C192.068 280.539 190.56 278.996 188.558 277.978L187.198 280.653C188.612 281.371 189.651 282.431 190.349 283.874L193.049 282.567ZM188.584 277.992C186.609 276.938 184.097 276.472 181.159 276.472V279.472C183.82 279.472 185.788 279.901 187.172 280.639L188.584 277.992ZM181.159 276.472C178.872 276.472 176.801 276.899 174.987 277.806L176.329 280.489C177.651 279.828 179.247 279.472 181.159 279.472V276.472ZM174.987 277.806C173.165 278.717 171.657 280.093 170.463 281.885L172.959 283.549C173.892 282.149 175.016 281.145 176.329 280.489L174.987 277.806ZM170.463 281.885C169.269 283.675 168.412 285.877 167.852 288.444L170.783 289.084C171.286 286.779 172.025 284.95 172.959 283.549L170.463 281.885ZM167.849 288.456C167.319 290.991 167.062 293.926 167.062 297.246H170.062C170.062 294.071 170.308 291.351 170.786 289.071L167.849 288.456ZM167.062 297.246V301.571H170.062V297.246H167.062ZM167.062 301.571C167.062 304.806 167.305 307.692 167.804 310.219L170.747 309.637C170.294 307.348 170.062 304.663 170.062 301.571H167.062ZM167.805 310.222C168.305 312.726 169.083 314.91 170.169 316.74L172.749 315.209C171.875 313.736 171.197 311.889 170.746 309.634L167.805 310.222ZM170.185 316.766C171.32 318.596 172.797 320.019 174.614 320.992L176.031 318.348C174.712 317.641 173.613 316.601 172.733 315.184L170.185 316.766ZM174.642 321.007C176.495 321.949 178.657 322.388 181.075 322.388V319.388C179.014 319.388 177.341 319.014 176.002 318.333L174.642 321.007ZM181.075 322.388C183.853 322.388 186.269 321.946 188.246 320.974L186.922 318.282C185.484 318.989 183.56 319.388 181.075 319.388V322.388ZM188.246 320.974C190.229 319.999 191.762 318.534 192.808 316.606L190.171 315.175C189.425 316.55 188.355 317.577 186.922 318.282L188.246 320.974ZM192.798 316.623C193.858 314.728 194.445 312.44 194.623 309.82L191.63 309.616C191.473 311.923 190.968 313.75 190.18 315.158L192.798 316.623ZM224.327 268.859L225.647 268.147L225.222 267.359H224.327V268.859ZM235.833 290.191L234.513 290.903L235.833 293.351L237.153 290.903L235.833 290.191ZM247.339 268.859V267.359H246.444L246.019 268.147L247.339 268.859ZM261.742 268.859L263.036 269.618L264.359 267.359H261.742V268.859ZM243.979 299.178L242.685 298.419L242.239 299.181L242.688 299.941L243.979 299.178ZM262.204 330V331.5H264.834L263.495 329.237L262.204 330ZM247.675 330L246.357 330.717L246.784 331.5H247.675V330ZM235.833 308.248L237.15 307.531L235.833 305.111L234.516 307.531L235.833 308.248ZM223.991 330V331.5H224.882L225.309 330.717L223.991 330ZM209.378 330L208.088 329.235L206.745 331.5H209.378V330ZM227.645 299.178L228.935 299.942L229.386 299.181L228.938 298.418L227.645 299.178ZM209.84 268.859V267.359H207.219L208.546 269.619L209.84 268.859ZM223.007 269.571L234.513 290.903L237.153 289.479L225.647 268.147L223.007 269.571ZM237.153 290.903L248.659 269.571L246.019 268.147L234.513 289.479L237.153 290.903ZM247.339 270.359H261.742V267.359H247.339V270.359ZM260.448 268.101L242.685 298.419L245.274 299.936L263.036 269.618L260.448 268.101ZM242.688 299.941L260.913 330.763L263.495 329.237L245.271 298.414L242.688 299.941ZM262.204 328.5H247.675V331.5H262.204V328.5ZM248.992 329.283L237.15 307.531L234.516 308.965L246.357 330.717L248.992 329.283ZM234.516 307.531L222.674 329.283L225.309 330.717L237.15 308.965L234.516 307.531ZM223.991 328.5H209.378V331.5H223.991V328.5ZM210.668 330.765L228.935 299.942L226.354 298.413L208.088 329.235L210.668 330.765ZM228.938 298.418L211.133 268.1L208.546 269.619L226.351 299.937L228.938 298.418ZM209.84 270.359H224.327V267.359H209.84V270.359Z" fill="#025998" mask="url(#path-8-outside-1_410_44)"/>
</svg>
