<svg width="620" height="600" viewBox="0 0 620 600" fill="none" xmlns="http://www.w3.org/2000/svg">
<path d="M158 32C158 18.7452 168.745 8 182 8H482.503C489.844 8 496.781 11.3596 501.332 17.1191L606.83 150.611C610.178 154.848 612 160.091 612 165.492V568C612 581.255 601.255 592 588 592H182C168.745 592 158 581.255 158 568V32Z" stroke="#364152" stroke-width="16"/>
<rect x="218" y="216" width="333" height="18" fill="#58F255"/>
<rect x="218" y="282" width="333" height="18" fill="#58F255" fill-opacity="0.85"/>
<rect x="218" y="348" width="333" height="18" fill="#58F255" fill-opacity="0.7"/>
<rect x="218" y="414" width="333" height="18" fill="#58F255" fill-opacity="0.55"/>
<path d="M498 22.0964L543.817 77.0772L603.235 150.5H498V22.0964Z" stroke="#364152" stroke-width="16"/>
<rect y="150" width="300" height="300" rx="37.5" fill="#58F255"/>
<g clip-path="url(#clip0_410_87)">
<path d="M110 256.343C132.08 256.343 150 274.263 150 296.343V300H73.6571C71.6457 300 70 298.354 70 296.343C70 274.263 87.92 256.343 110 256.343Z" fill="white"/>
<path d="M193.657 260C193.657 282.08 175.737 300 153.657 300H150V223.657C150 221.646 151.646 220 153.657 220C175.737 220 193.657 237.92 193.657 260Z" fill="white"/>
<path d="M190 343.657C167.92 343.657 150 325.737 150 303.657V300H226.343C228.354 300 230 301.646 230 303.657C230 325.737 212.08 343.657 190 343.657Z" fill="white"/>
<path d="M106.343 340C106.343 317.92 124.263 300 146.343 300H150V376.343C150 378.354 148.354 380 146.343 380C124.263 380 106.343 362.08 106.343 340Z" fill="white"/>
</g>
<defs>
<clipPath id="clip0_410_87">
<rect width="160" height="160" fill="white" transform="translate(70 220)"/>
</clipPath>
</defs>
</svg>
