<svg width="620" height="600" viewBox="0 0 620 600" fill="none" xmlns="http://www.w3.org/2000/svg">
<path d="M158 32C158 18.7452 168.745 8 182 8H482.503C489.844 8 496.781 11.3596 501.332 17.1191L606.83 150.611C610.178 154.848 612 160.091 612 165.492V568C612 581.255 601.255 592 588 592H182C168.745 592 158 581.255 158 568V32Z" fill="#1D232D" stroke="#364152" stroke-width="16"/>
<rect x="218" y="216" width="333" height="18" fill="#2DF6A2"/>
<rect x="218" y="282" width="333" height="18" fill="#2DF6A1" fill-opacity="0.75"/>
<rect x="218" y="348" width="333" height="18" fill="#2DF6A2" fill-opacity="0.5"/>
<rect x="218" y="414" width="333" height="18" fill="#2DF6A2" fill-opacity="0.25"/>
<path d="M498 22.0964L543.817 77.0772L603.235 150.5H498V22.0964Z" stroke="#364152" stroke-width="16"/>
<rect y="150" width="300" height="300" rx="37.5" fill="#2DF6A2"/>
<mask id="path-8-outside-1_410_87" maskUnits="userSpaceOnUse" x="74" y="266" width="153" height="67" fill="black">
<rect fill="white" x="74" y="266" width="153" height="67"/>
<path d="M88.8545 268.859V330H76.2988V268.859H88.8545ZM106.407 268.859H117.073L132.778 313.749L148.483 268.859H159.149L137.062 330H128.495L106.407 268.859ZM100.654 268.859H111.278L113.21 312.615V330H100.654V268.859ZM154.278 268.859H164.944V330H152.347V312.615L154.278 268.859ZM224.447 298.044V322.273C223.495 323.421 222.026 324.667 220.038 326.011C218.05 327.326 215.489 328.46 212.354 329.412C209.218 330.364 205.425 330.84 200.974 330.84C197.026 330.84 193.429 330.196 190.182 328.908C186.934 327.592 184.135 325.675 181.783 323.155C179.46 320.636 177.668 317.556 176.408 313.917C175.148 310.25 174.519 306.064 174.519 301.361V297.54C174.519 292.837 175.12 288.652 176.324 284.984C177.556 281.317 179.306 278.224 181.573 275.704C183.841 273.185 186.542 271.267 189.678 269.951C192.813 268.635 196.299 267.978 200.134 267.978C205.453 267.978 209.82 268.845 213.235 270.581C216.651 272.289 219.254 274.668 221.046 277.72C222.866 280.743 223.985 284.215 224.405 288.134H212.186C211.878 286.062 211.29 284.257 210.422 282.717C209.554 281.177 208.308 279.973 206.685 279.105C205.089 278.238 203.017 277.804 200.47 277.804C198.37 277.804 196.494 278.238 194.843 279.105C193.219 279.945 191.847 281.191 190.728 282.843C189.608 284.494 188.754 286.538 188.166 288.974C187.578 291.409 187.284 294.237 187.284 297.456V301.361C187.284 304.553 187.592 307.38 188.208 309.844C188.824 312.279 189.734 314.337 190.938 316.017C192.169 317.668 193.681 318.914 195.473 319.754C197.264 320.594 199.35 321.014 201.729 321.014C203.717 321.014 205.369 320.846 206.685 320.51C208.028 320.174 209.106 319.768 209.918 319.292C210.758 318.788 211.402 318.312 211.85 317.864V307.03H200.344V298.044H224.447Z"/>
</mask>
<path d="M88.8545 268.859V330H76.2988V268.859H88.8545ZM106.407 268.859H117.073L132.778 313.749L148.483 268.859H159.149L137.062 330H128.495L106.407 268.859ZM100.654 268.859H111.278L113.21 312.615V330H100.654V268.859ZM154.278 268.859H164.944V330H152.347V312.615L154.278 268.859ZM224.447 298.044V322.273C223.495 323.421 222.026 324.667 220.038 326.011C218.05 327.326 215.489 328.46 212.354 329.412C209.218 330.364 205.425 330.84 200.974 330.84C197.026 330.84 193.429 330.196 190.182 328.908C186.934 327.592 184.135 325.675 181.783 323.155C179.46 320.636 177.668 317.556 176.408 313.917C175.148 310.25 174.519 306.064 174.519 301.361V297.54C174.519 292.837 175.12 288.652 176.324 284.984C177.556 281.317 179.306 278.224 181.573 275.704C183.841 273.185 186.542 271.267 189.678 269.951C192.813 268.635 196.299 267.978 200.134 267.978C205.453 267.978 209.82 268.845 213.235 270.581C216.651 272.289 219.254 274.668 221.046 277.72C222.866 280.743 223.985 284.215 224.405 288.134H212.186C211.878 286.062 211.29 284.257 210.422 282.717C209.554 281.177 208.308 279.973 206.685 279.105C205.089 278.238 203.017 277.804 200.47 277.804C198.37 277.804 196.494 278.238 194.843 279.105C193.219 279.945 191.847 281.191 190.728 282.843C189.608 284.494 188.754 286.538 188.166 288.974C187.578 291.409 187.284 294.237 187.284 297.456V301.361C187.284 304.553 187.592 307.38 188.208 309.844C188.824 312.279 189.734 314.337 190.938 316.017C192.169 317.668 193.681 318.914 195.473 319.754C197.264 320.594 199.35 321.014 201.729 321.014C203.717 321.014 205.369 320.846 206.685 320.51C208.028 320.174 209.106 319.768 209.918 319.292C210.758 318.788 211.402 318.312 211.85 317.864V307.03H200.344V298.044H224.447Z" fill="white"/>
<path d="M88.8545 268.859H90.3545V267.359H88.8545V268.859ZM88.8545 330V331.5H90.3545V330H88.8545ZM76.2988 330H74.7988V331.5H76.2988V330ZM76.2988 268.859V267.359H74.7988V268.859H76.2988ZM87.3545 268.859V330H90.3545V268.859H87.3545ZM88.8545 328.5H76.2988V331.5H88.8545V328.5ZM77.7988 330V268.859H74.7988V330H77.7988ZM76.2988 270.359H88.8545V267.359H76.2988V270.359ZM106.407 268.859V267.359H104.27L104.996 269.369L106.407 268.859ZM117.073 268.859L118.489 268.364L118.138 267.359H117.073V268.859ZM132.778 313.749L131.362 314.244L132.778 318.291L134.194 314.244L132.778 313.749ZM148.483 268.859V267.359H147.419L147.068 268.364L148.483 268.859ZM159.149 268.859L160.56 269.369L161.286 267.359H159.149V268.859ZM137.062 330V331.5H138.115L138.472 330.51L137.062 330ZM128.495 330L127.084 330.51L127.442 331.5H128.495V330ZM100.654 268.859V267.359H99.1543V268.859H100.654ZM111.278 268.859L112.777 268.793L112.714 267.359H111.278V268.859ZM113.21 312.615H114.71V312.582L114.708 312.549L113.21 312.615ZM113.21 330V331.5H114.71V330H113.21ZM100.654 330H99.1543V331.5H100.654V330ZM154.278 268.859V267.359H152.843L152.78 268.793L154.278 268.859ZM164.944 268.859H166.444V267.359H164.944V268.859ZM164.944 330V331.5H166.444V330H164.944ZM152.347 330H150.847V331.5H152.347V330ZM152.347 312.615L150.848 312.549L150.847 312.582V312.615H152.347ZM106.407 270.359H117.073V267.359H106.407V270.359ZM115.657 269.355L131.362 314.244L134.194 313.254L118.489 268.364L115.657 269.355ZM134.194 314.244L149.899 269.355L147.068 268.364L131.362 313.254L134.194 314.244ZM148.483 270.359H159.149V267.359H148.483V270.359ZM157.739 268.35L135.651 329.49L138.472 330.51L160.56 269.369L157.739 268.35ZM137.062 328.5H128.495V331.5H137.062V328.5ZM129.906 329.49L107.818 268.35L104.996 269.369L127.084 330.51L129.906 329.49ZM100.654 270.359H111.278V267.359H100.654V270.359ZM109.78 268.926L111.711 312.681L114.708 312.549L112.777 268.793L109.78 268.926ZM111.71 312.615V330H114.71V312.615H111.71ZM113.21 328.5H100.654V331.5H113.21V328.5ZM102.154 330V268.859H99.1543V330H102.154ZM154.278 270.359H164.944V267.359H154.278V270.359ZM163.444 268.859V330H166.444V268.859H163.444ZM164.944 328.5H152.347V331.5H164.944V328.5ZM153.847 330V312.615H150.847V330H153.847ZM153.845 312.681L155.777 268.926L152.78 268.793L150.848 312.549L153.845 312.681ZM224.447 298.044H225.947V296.544H224.447V298.044ZM224.447 322.273L225.602 323.231L225.947 322.814V322.273H224.447ZM220.038 326.011L220.866 327.262L220.872 327.257L220.878 327.253L220.038 326.011ZM212.354 329.412L211.918 327.977L212.354 329.412ZM190.182 328.908L189.618 330.298L189.629 330.303L190.182 328.908ZM181.783 323.155L180.681 324.172L180.687 324.179L181.783 323.155ZM176.408 313.917L174.99 314.404L174.991 314.408L176.408 313.917ZM176.324 284.984L174.902 284.507L174.899 284.517L176.324 284.984ZM213.235 270.581L212.556 271.918L212.565 271.923L213.235 270.581ZM221.046 277.72L219.752 278.479L219.757 278.486L219.761 278.493L221.046 277.72ZM224.405 288.134V289.634H226.075L225.897 287.974L224.405 288.134ZM212.186 288.134L210.702 288.354L210.892 289.634H212.186V288.134ZM206.685 279.105L205.968 280.423L205.978 280.428L206.685 279.105ZM194.843 279.105L195.532 280.438L195.54 280.433L194.843 279.105ZM188.208 309.844L186.753 310.208L186.754 310.211L188.208 309.844ZM190.938 316.017L189.718 316.89L189.727 316.902L189.735 316.913L190.938 316.017ZM206.685 320.51L206.321 319.055L206.313 319.056L206.685 320.51ZM209.918 319.292L210.677 320.586L210.683 320.582L210.69 320.578L209.918 319.292ZM211.85 317.864L212.91 318.925L213.35 318.486V317.864H211.85ZM211.85 307.03H213.35V305.53H211.85V307.03ZM200.344 307.03H198.844V308.53H200.344V307.03ZM200.344 298.044V296.544H198.844V298.044H200.344ZM222.947 298.044V322.273H225.947V298.044H222.947ZM223.293 321.316C222.47 322.308 221.13 323.462 219.198 324.768L220.878 327.253C222.921 325.872 224.521 324.534 225.602 323.231L223.293 321.316ZM219.21 324.76C217.379 325.972 214.962 327.053 211.918 327.977L212.789 330.847C216.016 329.868 218.722 328.681 220.866 327.262L219.21 324.76ZM211.918 327.977C208.964 328.873 205.326 329.34 200.974 329.34V332.34C205.523 332.34 209.472 331.854 212.789 330.847L211.918 327.977ZM200.974 329.34C197.191 329.34 193.785 328.723 190.735 327.514L189.629 330.303C193.073 331.669 196.861 332.34 200.974 332.34V329.34ZM190.745 327.518C187.696 326.283 185.08 324.489 182.88 322.132L180.687 324.179C183.19 326.861 186.172 328.902 189.618 330.298L190.745 327.518ZM182.886 322.138C180.719 319.788 179.026 316.895 177.826 313.426L174.991 314.408C176.31 318.218 178.201 321.483 180.681 324.172L182.886 322.138ZM177.827 313.43C176.631 309.948 176.019 305.933 176.019 301.361H173.019C173.019 306.196 173.666 310.551 174.99 314.404L177.827 313.43ZM176.019 301.361V297.54H173.019V301.361H176.019ZM176.019 297.54C176.019 292.962 176.605 288.94 177.749 285.452L174.899 284.517C173.636 288.364 173.019 292.711 173.019 297.54H176.019ZM177.746 285.462C178.922 281.962 180.576 279.055 182.688 276.708L180.458 274.701C178.035 277.393 176.19 280.672 174.902 284.507L177.746 285.462ZM182.688 276.708C184.807 274.353 187.326 272.565 190.258 271.334L189.097 268.568C185.759 269.969 182.874 272.016 180.458 274.701L182.688 276.708ZM190.258 271.334C193.188 270.105 196.472 269.478 200.134 269.478V266.478C196.125 266.478 192.439 267.166 189.097 268.568L190.258 271.334ZM200.134 269.478C205.303 269.478 209.417 270.323 212.556 271.918L213.915 269.244C210.223 267.368 205.602 266.478 200.134 266.478V269.478ZM212.565 271.923C215.742 273.511 218.119 275.698 219.752 278.479L222.339 276.96C220.389 273.639 217.56 271.066 213.906 269.239L212.565 271.923ZM219.761 278.493C221.455 281.309 222.514 284.566 222.914 288.294L225.897 287.974C225.456 283.863 224.276 280.178 222.331 276.946L219.761 278.493ZM224.405 286.634H212.186V289.634H224.405V286.634ZM213.669 287.913C213.339 285.693 212.701 283.706 211.729 281.98L209.115 283.453C209.878 284.807 210.416 286.431 210.702 288.354L213.669 287.913ZM211.729 281.98C210.715 280.181 209.256 278.779 207.392 277.783L205.978 280.428C207.361 281.168 208.393 282.173 209.115 283.453L211.729 281.98ZM207.401 277.788C205.515 276.762 203.172 276.304 200.47 276.304V279.304C202.862 279.304 204.663 279.713 205.968 280.423L207.401 277.788ZM200.47 276.304C198.158 276.304 196.038 276.783 194.145 277.778L195.54 280.433C196.951 279.692 198.582 279.304 200.47 279.304V276.304ZM194.154 277.773C192.288 278.738 190.733 280.162 189.486 282.001L191.969 283.685C192.962 282.22 194.15 281.152 195.532 280.438L194.154 277.773ZM189.486 282.001C188.243 283.834 187.328 286.054 186.708 288.622L189.624 289.326C190.18 287.022 190.972 285.155 191.969 283.685L189.486 282.001ZM186.708 288.622C186.086 291.2 185.784 294.15 185.784 297.456H188.784C188.784 294.323 189.071 291.619 189.624 289.326L186.708 288.622ZM185.784 297.456V301.361H188.784V297.456H185.784ZM185.784 301.361C185.784 304.646 186.101 307.599 186.753 310.208L189.663 309.48C189.084 307.161 188.784 304.46 188.784 301.361H185.784ZM186.754 310.211C187.406 312.791 188.384 315.029 189.718 316.89L192.157 315.143C191.083 313.645 190.242 311.768 189.662 309.476L186.754 310.211ZM189.735 316.913C191.108 318.755 192.811 320.163 194.836 321.112L196.109 318.396C194.551 317.665 193.23 316.582 192.14 315.12L189.735 316.913ZM194.836 321.112C196.863 322.062 199.174 322.514 201.729 322.514V319.514C199.526 319.514 197.665 319.125 196.109 318.396L194.836 321.112ZM201.729 322.514C203.79 322.514 205.577 322.341 207.056 321.963L206.313 319.056C205.161 319.351 203.644 319.514 201.729 319.514V322.514ZM207.048 321.965C208.472 321.609 209.698 321.16 210.677 320.586L209.159 317.998C208.514 318.376 207.585 318.739 206.321 319.055L207.048 321.965ZM210.69 320.578C211.584 320.042 212.342 319.493 212.91 318.925L210.789 316.804C210.461 317.131 209.931 317.535 209.146 318.006L210.69 320.578ZM213.35 317.864V307.03H210.35V317.864H213.35ZM211.85 305.53H200.344V308.53H211.85V305.53ZM201.844 307.03V298.044H198.844V307.03H201.844ZM200.344 299.544H224.447V296.544H200.344V299.544Z" fill="#00AA63" mask="url(#path-8-outside-1_410_87)"/>
</svg>
