<svg width="620" height="600" viewBox="0 0 620 600" fill="none" xmlns="http://www.w3.org/2000/svg">
<path d="M158 32C158 18.7452 168.745 8 182 8H482.503C489.844 8 496.781 11.3596 501.332 17.1191L606.83 150.611C610.178 154.848 612 160.091 612 165.492V568C612 581.255 601.255 592 588 592H182C168.745 592 158 581.255 158 568V32Z" fill="#1D232D" stroke="#364152" stroke-width="16"/>
<rect x="218" y="216" width="333" height="18" fill="#465469"/>
<rect x="218" y="282" width="333" height="18" fill="#465469" fill-opacity="0.75"/>
<rect x="218" y="348" width="333" height="18" fill="#465469" fill-opacity="0.5"/>
<rect x="218" y="414" width="333" height="18" fill="#465469" fill-opacity="0.25"/>
<path d="M498 22.0964L543.817 77.0772L603.235 150.5H498V22.0964Z" stroke="#364152" stroke-width="16"/>
<rect y="150" width="300" height="300" rx="37.5" fill="#465469"/>
<mask id="path-8-outside-1_410_101" maskUnits="userSpaceOnUse" x="36" y="271" width="229" height="57" fill="black">
<rect fill="white" x="36" y="271" width="229" height="57"/>
<path d="M81.6172 298.211V300.637C81.6172 304.527 81.0898 308.02 80.0352 311.113C78.9805 314.207 77.4922 316.844 75.5703 319.023C73.6484 321.18 71.3516 322.832 68.6797 323.98C66.0312 325.129 63.0898 325.703 59.8555 325.703C56.6445 325.703 53.7031 325.129 51.0312 323.98C48.3828 322.832 46.0859 321.18 44.1406 319.023C42.1953 316.844 40.6836 314.207 39.6055 311.113C38.5508 308.02 38.0234 304.527 38.0234 300.637V298.211C38.0234 294.297 38.5508 290.805 39.6055 287.734C40.6602 284.641 42.1484 282.004 44.0703 279.824C46.0156 277.645 48.3125 275.98 50.9609 274.832C53.6328 273.684 56.5742 273.109 59.7852 273.109C63.0195 273.109 65.9609 273.684 68.6094 274.832C71.2812 275.98 73.5781 277.645 75.5 279.824C77.4453 282.004 78.9453 284.641 80 287.734C81.0781 290.805 81.6172 294.297 81.6172 298.211ZM70.9648 300.637V298.141C70.9648 295.422 70.7188 293.031 70.2266 290.969C69.7344 288.906 69.0078 287.172 68.0469 285.766C67.0859 284.359 65.9141 283.305 64.5312 282.602C63.1484 281.875 61.5664 281.512 59.7852 281.512C58.0039 281.512 56.4219 281.875 55.0391 282.602C53.6797 283.305 52.5195 284.359 51.5586 285.766C50.6211 287.172 49.9062 288.906 49.4141 290.969C48.9219 293.031 48.6758 295.422 48.6758 298.141V300.637C48.6758 303.332 48.9219 305.723 49.4141 307.809C49.9062 309.871 50.6328 311.617 51.5938 313.047C52.5547 314.453 53.7266 315.52 55.1094 316.246C56.4922 316.973 58.0742 317.336 59.8555 317.336C61.6367 317.336 63.2188 316.973 64.6016 316.246C65.9844 315.52 67.1445 314.453 68.082 313.047C69.0195 311.617 69.7344 309.871 70.2266 307.809C70.7188 305.723 70.9648 303.332 70.9648 300.637ZM109.707 273.812V325H99.1953V273.812H109.707ZM125.457 273.812V282.074H83.6914V273.812H125.457ZM165.605 294.66V302.887H138.887V294.66H165.605ZM142.016 273.812V325H131.469V273.812H142.016ZM173.129 273.812V325H162.617V273.812H173.129ZM216.652 316.773V325H189.406V316.773H216.652ZM192.852 273.812V325H182.305V273.812H192.852ZM213.102 294.66V302.676H189.406V294.66H213.102ZM216.617 273.812V282.074H189.406V273.812H216.617ZM222.805 273.812H241.895C245.809 273.812 249.172 274.398 251.984 275.57C254.82 276.742 257 278.477 258.523 280.773C260.047 283.07 260.809 285.895 260.809 289.246C260.809 291.988 260.34 294.344 259.402 296.312C258.488 298.258 257.188 299.887 255.5 301.199C253.836 302.488 251.879 303.52 249.629 304.293L246.289 306.051H229.695L229.625 297.824H241.965C243.816 297.824 245.352 297.496 246.57 296.84C247.789 296.184 248.703 295.27 249.312 294.098C249.945 292.926 250.262 291.566 250.262 290.02C250.262 288.379 249.957 286.961 249.348 285.766C248.738 284.57 247.812 283.656 246.57 283.023C245.328 282.391 243.77 282.074 241.895 282.074H233.352V325H222.805V273.812ZM251.422 325L239.75 302.184L250.895 302.113L262.707 324.508V325H251.422Z"/>
</mask>
<path d="M81.6172 298.211V300.637C81.6172 304.527 81.0898 308.02 80.0352 311.113C78.9805 314.207 77.4922 316.844 75.5703 319.023C73.6484 321.18 71.3516 322.832 68.6797 323.98C66.0312 325.129 63.0898 325.703 59.8555 325.703C56.6445 325.703 53.7031 325.129 51.0312 323.98C48.3828 322.832 46.0859 321.18 44.1406 319.023C42.1953 316.844 40.6836 314.207 39.6055 311.113C38.5508 308.02 38.0234 304.527 38.0234 300.637V298.211C38.0234 294.297 38.5508 290.805 39.6055 287.734C40.6602 284.641 42.1484 282.004 44.0703 279.824C46.0156 277.645 48.3125 275.98 50.9609 274.832C53.6328 273.684 56.5742 273.109 59.7852 273.109C63.0195 273.109 65.9609 273.684 68.6094 274.832C71.2812 275.98 73.5781 277.645 75.5 279.824C77.4453 282.004 78.9453 284.641 80 287.734C81.0781 290.805 81.6172 294.297 81.6172 298.211ZM70.9648 300.637V298.141C70.9648 295.422 70.7188 293.031 70.2266 290.969C69.7344 288.906 69.0078 287.172 68.0469 285.766C67.0859 284.359 65.9141 283.305 64.5312 282.602C63.1484 281.875 61.5664 281.512 59.7852 281.512C58.0039 281.512 56.4219 281.875 55.0391 282.602C53.6797 283.305 52.5195 284.359 51.5586 285.766C50.6211 287.172 49.9062 288.906 49.4141 290.969C48.9219 293.031 48.6758 295.422 48.6758 298.141V300.637C48.6758 303.332 48.9219 305.723 49.4141 307.809C49.9062 309.871 50.6328 311.617 51.5938 313.047C52.5547 314.453 53.7266 315.52 55.1094 316.246C56.4922 316.973 58.0742 317.336 59.8555 317.336C61.6367 317.336 63.2188 316.973 64.6016 316.246C65.9844 315.52 67.1445 314.453 68.082 313.047C69.0195 311.617 69.7344 309.871 70.2266 307.809C70.7188 305.723 70.9648 303.332 70.9648 300.637ZM109.707 273.812V325H99.1953V273.812H109.707ZM125.457 273.812V282.074H83.6914V273.812H125.457ZM165.605 294.66V302.887H138.887V294.66H165.605ZM142.016 273.812V325H131.469V273.812H142.016ZM173.129 273.812V325H162.617V273.812H173.129ZM216.652 316.773V325H189.406V316.773H216.652ZM192.852 273.812V325H182.305V273.812H192.852ZM213.102 294.66V302.676H189.406V294.66H213.102ZM216.617 273.812V282.074H189.406V273.812H216.617ZM222.805 273.812H241.895C245.809 273.812 249.172 274.398 251.984 275.57C254.82 276.742 257 278.477 258.523 280.773C260.047 283.07 260.809 285.895 260.809 289.246C260.809 291.988 260.34 294.344 259.402 296.312C258.488 298.258 257.188 299.887 255.5 301.199C253.836 302.488 251.879 303.52 249.629 304.293L246.289 306.051H229.695L229.625 297.824H241.965C243.816 297.824 245.352 297.496 246.57 296.84C247.789 296.184 248.703 295.27 249.312 294.098C249.945 292.926 250.262 291.566 250.262 290.02C250.262 288.379 249.957 286.961 249.348 285.766C248.738 284.57 247.812 283.656 246.57 283.023C245.328 282.391 243.77 282.074 241.895 282.074H233.352V325H222.805V273.812ZM251.422 325L239.75 302.184L250.895 302.113L262.707 324.508V325H251.422Z" fill="white"/>
<path d="M75.5703 319.023L76.6901 320.022L76.6954 320.015L75.5703 319.023ZM68.6797 323.98L68.0873 322.602L68.0829 322.604L68.6797 323.98ZM51.0312 323.98L50.4345 325.357L50.4389 325.359L51.0312 323.98ZM44.1406 319.023L43.0215 320.022L43.0269 320.028L44.1406 319.023ZM39.6055 311.113L38.1857 311.597L38.189 311.607L39.6055 311.113ZM39.6055 287.734L41.0241 288.222L41.0252 288.218L39.6055 287.734ZM44.0703 279.824L42.9512 278.825L42.9452 278.832L44.0703 279.824ZM50.9609 274.832L50.3686 273.454L50.3642 273.456L50.9609 274.832ZM68.6094 274.832L68.0126 276.208L68.017 276.21L68.6094 274.832ZM75.5 279.824L74.3749 280.816L74.3809 280.823L75.5 279.824ZM80 287.734L78.5802 288.218L78.5847 288.231L80 287.734ZM64.5312 282.602L63.8336 283.929L63.8424 283.934L63.8514 283.939L64.5312 282.602ZM55.0391 282.602L55.7282 283.934L55.7368 283.929L55.0391 282.602ZM51.5586 285.766L50.3201 284.919L50.3153 284.926L50.3105 284.934L51.5586 285.766ZM49.4141 307.809L47.9541 308.153L47.955 308.157L49.4141 307.809ZM51.5938 313.047L50.3488 313.884L50.3553 313.893L51.5938 313.047ZM68.082 313.047L69.3301 313.879L69.3364 313.869L68.082 313.047ZM70.2266 307.809L71.6856 308.157L71.6865 308.153L70.2266 307.809ZM80.1172 298.211V300.637H83.1172V298.211H80.1172ZM80.1172 300.637C80.1172 304.393 79.6079 307.718 78.6154 310.629L81.4549 311.597C82.5717 308.321 83.1172 304.662 83.1172 300.637H80.1172ZM78.6154 310.629C77.6165 313.559 76.221 316.017 74.4452 318.031L76.6954 320.015C78.7634 317.67 80.3444 314.855 81.4549 311.597L78.6154 310.629ZM74.4505 318.025C72.6756 320.017 70.5592 321.54 68.0873 322.602L69.272 325.359C72.1439 324.124 74.6213 322.343 76.6901 320.021L74.4505 318.025ZM68.0829 322.604C65.6443 323.662 62.9093 324.203 59.8555 324.203V327.203C63.2704 327.203 66.4182 326.596 69.2764 325.357L68.0829 322.604ZM59.8555 324.203C56.8269 324.203 54.0897 323.662 51.6236 322.602L50.4389 325.359C53.3165 326.595 56.4622 327.203 59.8555 327.203V324.203ZM51.628 322.604C49.1777 321.542 47.0568 320.017 45.2544 318.019L43.0269 320.028C45.1151 322.343 47.5879 324.122 50.4345 325.357L51.628 322.604ZM45.2597 318.025C43.4608 316.009 42.043 313.55 41.0219 310.62L38.189 311.607C39.3242 314.864 40.9298 317.678 43.0215 320.022L45.2597 318.025ZM41.0252 310.629C40.0327 307.718 39.5234 304.393 39.5234 300.637H36.5234C36.5234 304.662 37.0689 308.321 38.1857 311.597L41.0252 310.629ZM39.5234 300.637V298.211H36.5234V300.637H39.5234ZM39.5234 298.211C39.5234 294.43 40.0331 291.107 41.0241 288.222L38.1868 287.247C37.0685 290.503 36.5234 294.164 36.5234 298.211H39.5234ZM41.0252 288.218C42.0241 285.288 43.4196 282.83 45.1954 280.816L42.9452 278.832C40.8772 281.178 39.2962 283.993 38.1857 287.25L41.0252 288.218ZM45.1894 280.823C46.9918 278.803 49.1111 277.269 51.5577 276.208L50.3642 273.456C47.5139 274.692 45.0394 276.486 42.9512 278.825L45.1894 280.823ZM51.5533 276.21C54.0194 275.15 56.7566 274.609 59.7852 274.609V271.609C56.3918 271.609 53.2462 272.217 50.3686 273.454L51.5533 276.21ZM59.7852 274.609C62.839 274.609 65.574 275.151 68.0126 276.208L69.2061 273.456C66.3479 272.216 63.2001 271.609 59.7852 271.609V274.609ZM68.017 276.21C70.4851 277.271 72.6 278.803 74.3749 280.816L76.6251 278.832C74.5563 276.486 72.0774 274.69 69.2017 273.454L68.017 276.21ZM74.3809 280.823C76.1775 282.836 77.5826 285.292 78.5802 288.218L81.4198 287.25C80.308 283.989 78.7131 281.172 76.6191 278.825L74.3809 280.823ZM78.5847 288.231C79.5967 291.113 80.1172 294.433 80.1172 298.211H83.1172C83.1172 294.161 82.5595 290.496 81.4153 287.237L78.5847 288.231ZM72.4648 300.637V298.141H69.4648V300.637H72.4648ZM72.4648 298.141C72.4648 295.336 72.2114 292.824 71.6856 290.621L68.7675 291.317C69.2261 293.239 69.4648 295.508 69.4648 298.141H72.4648ZM71.6856 290.621C71.1609 288.422 70.3714 286.509 69.2853 284.919L66.8084 286.612C67.6442 287.835 68.3078 289.391 68.7675 291.317L71.6856 290.621ZM69.2853 284.919C68.1966 283.326 66.8398 282.093 65.2111 281.264L63.8514 283.939C64.9883 284.517 65.9753 285.393 66.8084 286.612L69.2853 284.919ZM65.2289 281.274C63.6024 280.419 61.7751 280.012 59.7852 280.012V283.012C61.3577 283.012 62.6945 283.331 63.8336 283.929L65.2289 281.274ZM59.7852 280.012C57.7952 280.012 55.9679 280.419 54.3414 281.274L55.7368 283.929C56.8759 283.331 58.2126 283.012 59.7852 283.012V280.012ZM54.3499 281.269C52.746 282.099 51.405 283.332 50.3201 284.919L52.7971 286.612C53.634 285.387 54.6134 284.511 55.7282 283.934L54.3499 281.269ZM50.3105 284.934C49.2532 286.52 48.4783 288.428 47.955 290.621L50.8731 291.317C51.3342 289.385 51.989 287.824 52.8067 286.598L50.3105 284.934ZM47.955 290.621C47.4292 292.824 47.1758 295.336 47.1758 298.141H50.1758C50.1758 295.508 50.4145 293.239 50.8731 291.317L47.955 290.621ZM47.1758 298.141V300.637H50.1758V298.141H47.1758ZM47.1758 300.637C47.1758 303.42 47.4295 305.93 47.9542 308.153L50.874 307.464C50.4142 305.516 50.1758 303.244 50.1758 300.637H47.1758ZM47.955 308.157C48.4795 310.355 49.2678 312.275 50.3488 313.884L52.8387 312.21C51.9978 310.959 51.333 309.387 50.8731 307.46L47.955 308.157ZM50.3553 313.893C51.4417 315.483 52.7928 316.723 54.4117 317.574L55.8071 314.918C54.6603 314.316 53.6677 313.423 52.8322 312.201L50.3553 313.893ZM54.4117 317.574C56.0382 318.429 57.8655 318.836 59.8555 318.836V315.836C58.2829 315.836 56.9462 315.517 55.8071 314.918L54.4117 317.574ZM59.8555 318.836C61.8454 318.836 63.6727 318.429 65.2993 317.574L63.9039 314.918C62.7648 315.517 61.428 315.836 59.8555 315.836V318.836ZM65.2993 317.574C66.9221 316.721 68.2652 315.476 69.3301 313.879L66.834 312.215C66.0239 313.43 65.0467 314.318 63.9039 314.918L65.2993 317.574ZM69.3364 313.869C70.3888 312.265 71.1624 310.349 71.6856 308.157L68.7675 307.46C68.3063 309.393 67.6503 310.97 66.8277 312.224L69.3364 313.869ZM71.6865 308.153C72.2111 305.93 72.4648 303.42 72.4648 300.637H69.4648C69.4648 303.244 69.2264 305.516 68.7667 307.464L71.6865 308.153ZM109.707 273.812H111.207V272.312H109.707V273.812ZM109.707 325V326.5H111.207V325H109.707ZM99.1953 325H97.6953V326.5H99.1953V325ZM99.1953 273.812V272.312H97.6953V273.812H99.1953ZM125.457 273.812H126.957V272.312H125.457V273.812ZM125.457 282.074V283.574H126.957V282.074H125.457ZM83.6914 282.074H82.1914V283.574H83.6914V282.074ZM83.6914 273.812V272.312H82.1914V273.812H83.6914ZM108.207 273.812V325H111.207V273.812H108.207ZM109.707 323.5H99.1953V326.5H109.707V323.5ZM100.695 325V273.812H97.6953V325H100.695ZM99.1953 275.312H109.707V272.312H99.1953V275.312ZM123.957 273.812V282.074H126.957V273.812H123.957ZM125.457 280.574H83.6914V283.574H125.457V280.574ZM85.1914 282.074V273.812H82.1914V282.074H85.1914ZM83.6914 275.312H125.457V272.312H83.6914V275.312ZM165.605 294.66H167.105V293.16H165.605V294.66ZM165.605 302.887V304.387H167.105V302.887H165.605ZM138.887 302.887H137.387V304.387H138.887V302.887ZM138.887 294.66V293.16H137.387V294.66H138.887ZM142.016 273.812H143.516V272.312H142.016V273.812ZM142.016 325V326.5H143.516V325H142.016ZM131.469 325H129.969V326.5H131.469V325ZM131.469 273.812V272.312H129.969V273.812H131.469ZM173.129 273.812H174.629V272.312H173.129V273.812ZM173.129 325V326.5H174.629V325H173.129ZM162.617 325H161.117V326.5H162.617V325ZM162.617 273.812V272.312H161.117V273.812H162.617ZM164.105 294.66V302.887H167.105V294.66H164.105ZM165.605 301.387H138.887V304.387H165.605V301.387ZM140.387 302.887V294.66H137.387V302.887H140.387ZM138.887 296.16H165.605V293.16H138.887V296.16ZM140.516 273.812V325H143.516V273.812H140.516ZM142.016 323.5H131.469V326.5H142.016V323.5ZM132.969 325V273.812H129.969V325H132.969ZM131.469 275.312H142.016V272.312H131.469V275.312ZM171.629 273.812V325H174.629V273.812H171.629ZM173.129 323.5H162.617V326.5H173.129V323.5ZM164.117 325V273.812H161.117V325H164.117ZM162.617 275.312H173.129V272.312H162.617V275.312ZM216.652 316.773H218.152V315.273H216.652V316.773ZM216.652 325V326.5H218.152V325H216.652ZM189.406 325H187.906V326.5H189.406V325ZM189.406 316.773V315.273H187.906V316.773H189.406ZM192.852 273.812H194.352V272.312H192.852V273.812ZM192.852 325V326.5H194.352V325H192.852ZM182.305 325H180.805V326.5H182.305V325ZM182.305 273.812V272.312H180.805V273.812H182.305ZM213.102 294.66H214.602V293.16H213.102V294.66ZM213.102 302.676V304.176H214.602V302.676H213.102ZM189.406 302.676H187.906V304.176H189.406V302.676ZM189.406 294.66V293.16H187.906V294.66H189.406ZM216.617 273.812H218.117V272.312H216.617V273.812ZM216.617 282.074V283.574H218.117V282.074H216.617ZM189.406 282.074H187.906V283.574H189.406V282.074ZM189.406 273.812V272.312H187.906V273.812H189.406ZM215.152 316.773V325H218.152V316.773H215.152ZM216.652 323.5H189.406V326.5H216.652V323.5ZM190.906 325V316.773H187.906V325H190.906ZM189.406 318.273H216.652V315.273H189.406V318.273ZM191.352 273.812V325H194.352V273.812H191.352ZM192.852 323.5H182.305V326.5H192.852V323.5ZM183.805 325V273.812H180.805V325H183.805ZM182.305 275.312H192.852V272.312H182.305V275.312ZM211.602 294.66V302.676H214.602V294.66H211.602ZM213.102 301.176H189.406V304.176H213.102V301.176ZM190.906 302.676V294.66H187.906V302.676H190.906ZM189.406 296.16H213.102V293.16H189.406V296.16ZM215.117 273.812V282.074H218.117V273.812H215.117ZM216.617 280.574H189.406V283.574H216.617V280.574ZM190.906 282.074V273.812H187.906V282.074H190.906ZM189.406 275.312H216.617V272.312H189.406V275.312ZM222.805 273.812V272.312H221.305V273.812H222.805ZM251.984 275.57L251.407 276.955L251.412 276.957L251.984 275.57ZM259.402 296.312L258.048 295.668L258.045 295.675L259.402 296.312ZM255.5 301.199L256.419 302.385L256.421 302.383L255.5 301.199ZM249.629 304.293L249.141 302.874L249.032 302.912L248.93 302.966L249.629 304.293ZM246.289 306.051V307.551H246.66L246.988 307.378L246.289 306.051ZM229.695 306.051L228.195 306.064L228.208 307.551H229.695V306.051ZM229.625 297.824V296.324H228.112L228.125 297.837L229.625 297.824ZM249.312 294.098L247.993 293.385L247.987 293.395L247.982 293.406L249.312 294.098ZM233.352 282.074V280.574H231.852V282.074H233.352ZM233.352 325V326.5H234.852V325H233.352ZM222.805 325H221.305V326.5H222.805V325ZM251.422 325L250.086 325.683L250.504 326.5H251.422V325ZM239.75 302.184L239.741 300.684L237.306 300.699L238.415 302.867L239.75 302.184ZM250.895 302.113L252.221 301.413L251.796 300.608L250.885 300.613L250.895 302.113ZM262.707 324.508H264.207V324.136L264.034 323.808L262.707 324.508ZM262.707 325V326.5H264.207V325H262.707ZM222.805 275.312H241.895V272.312H222.805V275.312ZM241.895 275.312C245.665 275.312 248.822 275.878 251.407 276.955L252.561 274.186C249.522 272.919 245.953 272.312 241.895 272.312V275.312ZM251.412 276.957C254.004 278.028 255.934 279.583 257.273 281.603L259.773 279.944C258.066 277.371 255.637 275.457 252.557 274.184L251.412 276.957ZM257.273 281.603C258.602 283.605 259.309 286.125 259.309 289.246H262.309C262.309 285.664 261.492 282.536 259.773 279.944L257.273 281.603ZM259.309 289.246C259.309 291.821 258.868 293.945 258.048 295.668L260.757 296.957C261.811 294.742 262.309 292.156 262.309 289.246H259.309ZM258.045 295.675C257.231 297.407 256.079 298.849 254.579 300.015L256.421 302.383C258.296 300.925 259.746 299.108 260.76 296.95L258.045 295.675ZM254.581 300.013C253.063 301.19 251.256 302.148 249.141 302.874L250.117 305.711C252.502 304.892 254.609 303.787 256.419 302.385L254.581 300.013ZM248.93 302.966L245.59 304.723L246.988 307.378L250.328 305.62L248.93 302.966ZM246.289 304.551H229.695V307.551H246.289V304.551ZM231.195 306.038L231.125 297.811L228.125 297.837L228.195 306.064L231.195 306.038ZM229.625 299.324H241.965V296.324H229.625V299.324ZM241.965 299.324C243.984 299.324 245.783 298.968 247.281 298.161L245.859 295.519C244.92 296.025 243.649 296.324 241.965 296.324V299.324ZM247.281 298.161C248.752 297.369 249.888 296.242 250.643 294.79L247.982 293.406C247.518 294.297 246.826 294.998 245.859 295.519L247.281 298.161ZM250.632 294.81C251.401 293.387 251.762 291.775 251.762 290.02H248.762C248.762 291.358 248.489 292.465 247.993 293.385L250.632 294.81ZM251.762 290.02C251.762 288.194 251.422 286.533 250.684 285.084L248.011 286.447C248.492 287.389 248.762 288.564 248.762 290.02H251.762ZM250.684 285.084C249.925 283.595 248.764 282.457 247.251 281.687L245.889 284.36C246.861 284.855 247.552 285.545 248.011 286.447L250.684 285.084ZM247.251 281.687C245.738 280.916 243.928 280.574 241.895 280.574V283.574C243.611 283.574 244.918 283.865 245.889 284.36L247.251 281.687ZM241.895 280.574H233.352V283.574H241.895V280.574ZM231.852 282.074V325H234.852V282.074H231.852ZM233.352 323.5H222.805V326.5H233.352V323.5ZM224.305 325V273.812H221.305V325H224.305ZM252.757 324.317L241.085 301.5L238.415 302.867L250.086 325.683L252.757 324.317ZM239.759 303.684L250.904 303.613L250.885 300.613L239.741 300.684L239.759 303.684ZM249.568 302.813L261.38 325.208L264.034 323.808L252.221 301.413L249.568 302.813ZM261.207 324.508V325H264.207V324.508H261.207ZM262.707 323.5H251.422V326.5H262.707V323.5Z" fill="#303E53" mask="url(#path-8-outside-1_410_101)"/>
</svg>
