<svg width="620" height="600" viewBox="0 0 620 600" fill="none" xmlns="http://www.w3.org/2000/svg">
<path d="M612 165.492V568C612 581.255 601.255 592 588 592H182C168.745 592 158 581.255 158 568V32C158 18.7452 168.745 8 182 8H482.503C489.844 8 496.781 11.3596 501.332 17.1191L606.83 150.611C610.178 154.848 612 160.091 612 165.492Z" stroke="#364152" stroke-width="16"/>
<rect x="218" y="216" width="333" height="18" fill="#22B37F"/>
<rect x="218" y="282" width="333" height="18" fill="#22B37F" fill-opacity="0.85"/>
<rect x="218" y="348" width="333" height="18" fill="#22B37F" fill-opacity="0.7"/>
<rect x="218" y="414" width="333" height="18" fill="#22B37F" fill-opacity="0.55"/>
<path d="M498 22.0964L543.817 77.0772L603.235 150.5H498V22.0964Z" stroke="#364152" stroke-width="16"/>
<rect y="150" width="300" height="300" rx="37.5" fill="#22B37F"/>
<path d="M190 273.333C190 280.697 184.031 286.667 176.667 286.667C169.303 286.667 163.333 280.697 163.333 273.333C163.333 265.97 169.303 260 176.667 260C184.031 260 190 265.97 190 273.333Z" fill="white"/>
<path fill-rule="evenodd" clip-rule="evenodd" d="M149.617 228.333H150.383C165.772 228.333 177.832 228.333 187.242 229.598C196.873 230.893 204.474 233.596 210.439 239.561C216.405 245.526 219.107 253.127 220.402 262.758C221.667 272.168 221.667 284.228 221.667 299.617V300.206C221.667 312.931 221.667 323.349 220.975 331.83C220.281 340.354 218.858 347.476 215.673 353.391C214.267 356.001 212.541 358.337 210.439 360.439C204.474 366.405 196.873 369.107 187.242 370.402C177.832 371.667 165.772 371.667 150.383 371.667H149.617C134.228 371.667 122.168 371.667 112.758 370.402C103.126 369.107 95.5263 366.405 89.5609 360.439C84.2724 355.151 81.5413 348.568 80.089 340.403C78.6623 332.382 78.4013 322.402 78.3471 310.01C78.3333 306.858 78.3333 303.524 78.3333 300.007V299.617C78.3333 284.228 78.3332 272.168 79.5983 262.758C80.8933 253.127 83.5955 245.526 89.5609 239.561C95.5263 233.596 103.126 230.893 112.758 229.598C122.168 228.333 134.228 228.333 149.617 228.333ZM114.091 239.509C105.568 240.655 100.43 242.834 96.632 246.632C92.8343 250.43 90.655 255.568 89.5091 264.091C88.3439 272.757 88.3333 284.145 88.3333 300C88.3333 301.937 88.3333 303.81 88.3356 305.623L95.0099 299.783C101.085 294.468 110.241 294.773 115.949 300.481L144.547 329.079C149.129 333.661 156.341 334.285 161.642 330.559L163.63 329.163C171.258 323.801 181.579 324.423 188.509 330.66L207.379 347.642C209.278 343.653 210.406 338.412 211.009 331.018C211.663 322.988 211.667 312.973 211.667 300C211.667 284.145 211.656 272.757 210.491 264.091C209.345 255.568 207.166 250.43 203.368 246.632C199.57 242.834 194.432 240.655 185.909 239.509C177.243 238.344 165.855 238.333 150 238.333C134.145 238.333 122.757 238.344 114.091 239.509Z" fill="white"/>
</svg>
