<svg width="620" height="600" viewBox="0 0 620 600" fill="none" xmlns="http://www.w3.org/2000/svg">
<path d="M612 165.492V568C612 581.255 601.255 592 588 592H182C168.745 592 158 581.255 158 568V32C158 18.7452 168.745 8 182 8H482.503C489.844 8 496.781 11.3596 501.332 17.1191L606.83 150.611C610.178 154.848 612 160.091 612 165.492Z" stroke="#364152" stroke-width="16"/>
<rect x="218" y="216" width="333" height="18" fill="#41A5EE"/>
<rect x="218" y="282" width="333" height="18" fill="#41A5EE" fill-opacity="0.85"/>
<rect x="218" y="348" width="333" height="18" fill="#41A5EE" fill-opacity="0.7"/>
<rect x="218" y="414" width="333" height="18" fill="#41A5EE" fill-opacity="0.55"/>
<path d="M498 22.0964L543.817 77.0772L603.235 150.5H498V22.0964Z" stroke="#364152" stroke-width="16"/>
<rect y="150" width="300" height="300" rx="37.5" fill="#41A5EE"/>
<path d="M109.04 359L72.72 246.04H97.68L119.28 316.76L140.4 246.04H160.08L181.2 316.92L202.8 246.04H227.6L191.28 359H171.6L150.16 287.64L128.72 359H109.04Z" fill="white"/>
</svg>
