<svg width="620" height="600" viewBox="0 0 620 600" fill="none" xmlns="http://www.w3.org/2000/svg">
<path d="M612 165.492V568C612 581.255 601.255 592 588 592H182C168.745 592 158 581.255 158 568V32C158 18.7452 168.745 8 182 8H482.503C489.844 8 496.781 11.3596 501.332 17.1191L606.83 150.611C610.178 154.848 612 160.091 612 165.492Z" stroke="#364152" stroke-width="16"/>
<rect x="218" y="216" width="333" height="18" fill="#F6752D"/>
<rect x="218" y="282" width="333" height="18" fill="#F6752D" fill-opacity="0.85"/>
<rect x="218" y="348" width="333" height="18" fill="#F6752D" fill-opacity="0.7"/>
<rect x="218" y="414" width="333" height="18" fill="#F6752D" fill-opacity="0.55"/>
<path d="M498 22.0964L543.817 77.0772L603.235 150.5H498V22.0964Z" stroke="#364152" stroke-width="16"/>
<rect y="151" width="300" height="300" rx="37.5" fill="#F6752D"/>
<path d="M110.88 360V247.04H158.08C179.52 247.04 196.16 260.8 196.16 282.88C196.16 305.12 179.52 318.88 158.08 318.88H136V360H110.88ZM154.4 266.56H136V299.36H154.4C163.84 299.36 171.2 293.28 171.2 282.88C171.2 272.48 163.84 266.56 154.4 266.56Z" fill="white"/>
</svg>
