<svg width="620" height="600" viewBox="0 0 620 600" fill="none" xmlns="http://www.w3.org/2000/svg">
<path d="M612 165.492V568C612 581.255 601.255 592 588 592H182C168.745 592 158 581.255 158 568V32C158 18.7452 168.745 8 182 8H482.503C489.844 8 496.781 11.3596 501.332 17.1191L606.83 150.611C610.178 154.848 612 160.091 612 165.492Z" stroke="#364152" stroke-width="16"/>
<rect x="218" y="216" width="333" height="18" fill="#FF4545"/>
<rect x="218" y="282" width="333" height="18" fill="#FF4545" fill-opacity="0.85"/>
<rect x="218" y="348" width="333" height="18" fill="#FF4545" fill-opacity="0.7"/>
<rect x="218" y="414" width="333" height="18" fill="#FF4545" fill-opacity="0.55"/>
<path d="M498 22.0964L543.817 77.0772L603.235 150.5H498V22.0964Z" stroke="#364152" stroke-width="16"/>
<rect y="150" width="300" height="300" rx="37.5" fill="#FF4545"/>
<g clip-path="url(#clip0_409_87)">
<path d="M227.533 322C222.8 317.033 213.093 314.2 199.373 314.2C192.04 314.2 183.527 314.907 174.3 316.56C168.647 311.124 163.499 305.187 158.92 298.82C155.373 294.087 152.293 288.887 149.453 283.913C154.9 267.353 157.5 253.867 157.5 244.167C157.5 233.287 153.48 221.927 141.887 221.927C138.34 221.927 134.787 224.06 132.893 227.133C127.693 236.36 130.06 256.467 139.047 276.34C135.664 286.503 131.877 296.527 127.693 306.387C123.907 315.38 119.647 324.607 114.913 333.12C88.8933 343.533 72.0933 355.6 70.2 365.053C69.4933 368.607 70.6733 371.92 73.28 374.52C74.2267 375.233 77.54 378.073 83.2133 378.073C100.48 378.073 118.7 350.153 127.927 333.36C135.027 330.993 142.127 328.627 149.22 326.733C156.704 324.701 164.284 323.043 171.933 321.767C190.147 338.087 206.233 340.693 214.28 340.693C224.213 340.693 227.767 336.667 228.947 333.36C231.08 329.093 229.66 324.367 227.533 322ZM218.067 328.867C217.353 332.413 213.8 334.78 208.84 334.78C207.42 334.78 206.24 334.54 204.813 334.307C195.827 332.173 187.307 327.68 178.793 320.58C185.357 319.47 192.003 318.917 198.66 318.927C203.633 318.927 207.893 319.16 210.727 319.873C214.04 320.58 219.247 322.713 218.06 328.86L218.067 328.867ZM167.907 317.747C161.305 318.984 154.756 320.483 148.273 322.24C142.62 323.71 137.017 325.366 131.473 327.207C134.355 321.625 137.039 315.944 139.52 310.173C142.36 303.547 144.72 296.687 147.093 290.3C149.453 294.32 152.06 298.347 154.66 301.893C158.911 307.313 163.329 312.6 167.907 317.747ZM136.92 229.733C137.338 228.895 137.978 228.188 138.77 227.688C139.563 227.189 140.477 226.916 141.413 226.9C146.38 226.9 147.327 232.573 147.327 237.073C147.327 244.64 144.96 256.233 140.94 269.48C134.073 251.027 133.607 235.653 136.92 229.733ZM110.893 339.98C98.8267 359.853 87.2333 372.153 80.14 372.153C78.8601 372.161 77.6134 371.746 76.5933 370.973C75.1733 369.553 74.46 367.9 74.9333 366.007C76.3533 358.907 90.0733 348.973 110.893 339.98Z" fill="white"/>
</g>
<defs>
<clipPath id="clip0_409_87">
<rect width="160" height="160" fill="white" transform="translate(70 220)"/>
</clipPath>
</defs>
</svg>
