<svg width="620" height="600" viewBox="0 0 620 600" fill="none" xmlns="http://www.w3.org/2000/svg">
<path d="M158 32C158 18.7452 168.745 8 182 8H482.503C489.844 8 496.781 11.3596 501.332 17.1191L606.83 150.611C610.178 154.848 612 160.091 612 165.492V568C612 581.255 601.255 592 588 592H182C168.745 592 158 581.255 158 568V32Z" fill="#1D232D" stroke="#364152" stroke-width="16"/>
<rect x="218" y="216" width="333" height="18" fill="#F6752D"/>
<rect x="218" y="282" width="333" height="18" fill="#F6752D" fill-opacity="0.75"/>
<rect x="218" y="348" width="333" height="18" fill="#F6752D" fill-opacity="0.5"/>
<rect x="218" y="414" width="333" height="18" fill="#F6752D" fill-opacity="0.25"/>
<path d="M498 22.0964L543.817 77.0772L603.235 150.5H498V22.0964Z" stroke="#364152" stroke-width="16"/>
<rect y="150" width="300" height="300" rx="37.5" fill="#F6752D"/>
<mask id="path-8-outside-1_410_59" maskUnits="userSpaceOnUse" x="40" y="267" width="218" height="65" fill="black">
<rect fill="white" x="40" y="267" width="218" height="65"/>
<path d="M66.2686 308.206H50.6895V298.38H66.2686C68.6761 298.38 70.6357 297.988 72.1475 297.204C73.6592 296.392 74.765 295.272 75.4648 293.845C76.1647 292.417 76.5146 290.807 76.5146 289.016C76.5146 287.196 76.1647 285.502 75.4648 283.935C74.765 282.367 73.6592 281.107 72.1475 280.155C70.6357 279.203 68.6761 278.728 66.2686 278.728H55.0566V330H42.459V268.859H66.2686C71.0557 268.859 75.1569 269.727 78.5723 271.463C82.0156 273.171 84.6471 275.536 86.4668 278.56C88.2865 281.583 89.1963 285.04 89.1963 288.932C89.1963 292.879 88.2865 296.294 86.4668 299.178C84.6471 302.061 82.0156 304.287 78.5723 305.854C75.1569 307.422 71.0557 308.206 66.2686 308.206ZM121.698 308.206H106.119V298.38H121.698C124.106 298.38 126.065 297.988 127.577 297.204C129.089 296.392 130.195 295.272 130.895 293.845C131.594 292.417 131.944 290.807 131.944 289.016C131.944 287.196 131.594 285.502 130.895 283.935C130.195 282.367 129.089 281.107 127.577 280.155C126.065 279.203 124.106 278.728 121.698 278.728H110.486V330H97.8887V268.859H121.698C126.485 268.859 130.587 269.727 134.002 271.463C137.445 273.171 140.077 275.536 141.896 278.56C143.716 281.583 144.626 285.04 144.626 288.932C144.626 292.879 143.716 296.294 141.896 299.178C140.077 302.061 137.445 304.287 134.002 305.854C130.587 307.422 126.485 308.206 121.698 308.206ZM180.655 268.859V330H168.1V268.859H180.655ZM199.468 268.859V278.728H149.581V268.859H199.468ZM217.021 268.859L228.526 290.191L240.032 268.859H254.436L236.673 299.178L254.897 330H240.368L228.526 308.248L216.685 330H202.071L220.338 299.178L202.533 268.859H217.021Z"/>
</mask>
<path d="M66.2686 308.206H50.6895V298.38H66.2686C68.6761 298.38 70.6357 297.988 72.1475 297.204C73.6592 296.392 74.765 295.272 75.4648 293.845C76.1647 292.417 76.5146 290.807 76.5146 289.016C76.5146 287.196 76.1647 285.502 75.4648 283.935C74.765 282.367 73.6592 281.107 72.1475 280.155C70.6357 279.203 68.6761 278.728 66.2686 278.728H55.0566V330H42.459V268.859H66.2686C71.0557 268.859 75.1569 269.727 78.5723 271.463C82.0156 273.171 84.6471 275.536 86.4668 278.56C88.2865 281.583 89.1963 285.04 89.1963 288.932C89.1963 292.879 88.2865 296.294 86.4668 299.178C84.6471 302.061 82.0156 304.287 78.5723 305.854C75.1569 307.422 71.0557 308.206 66.2686 308.206ZM121.698 308.206H106.119V298.38H121.698C124.106 298.38 126.065 297.988 127.577 297.204C129.089 296.392 130.195 295.272 130.895 293.845C131.594 292.417 131.944 290.807 131.944 289.016C131.944 287.196 131.594 285.502 130.895 283.935C130.195 282.367 129.089 281.107 127.577 280.155C126.065 279.203 124.106 278.728 121.698 278.728H110.486V330H97.8887V268.859H121.698C126.485 268.859 130.587 269.727 134.002 271.463C137.445 273.171 140.077 275.536 141.896 278.56C143.716 281.583 144.626 285.04 144.626 288.932C144.626 292.879 143.716 296.294 141.896 299.178C140.077 302.061 137.445 304.287 134.002 305.854C130.587 307.422 126.485 308.206 121.698 308.206ZM180.655 268.859V330H168.1V268.859H180.655ZM199.468 268.859V278.728H149.581V268.859H199.468ZM217.021 268.859L228.526 290.191L240.032 268.859H254.436L236.673 299.178L254.897 330H240.368L228.526 308.248L216.685 330H202.071L220.338 299.178L202.533 268.859H217.021Z" fill="white"/>
<path d="M50.6895 308.206H49.1895V309.706H50.6895V308.206ZM50.6895 298.38V296.88H49.1895V298.38H50.6895ZM72.1475 297.204L72.8379 298.536L72.8476 298.531L72.8572 298.526L72.1475 297.204ZM55.0566 278.728V277.228H53.5566V278.728H55.0566ZM55.0566 330V331.5H56.5566V330H55.0566ZM42.459 330H40.959V331.5H42.459V330ZM42.459 268.859V267.359H40.959V268.859H42.459ZM78.5723 271.463L77.8927 272.8L77.8992 272.803L77.9058 272.807L78.5723 271.463ZM78.5723 305.854L77.9507 304.489L77.9465 304.491L78.5723 305.854ZM66.2686 306.706H50.6895V309.706H66.2686V306.706ZM52.1895 308.206V298.38H49.1895V308.206H52.1895ZM50.6895 299.88H66.2686V296.88H50.6895V299.88ZM66.2686 299.88C68.8231 299.88 71.0431 299.466 72.8379 298.536L71.457 295.872C70.2284 296.51 68.5291 296.88 66.2686 296.88V299.88ZM72.8572 298.526C74.6221 297.578 75.9627 296.237 76.8117 294.505L74.118 293.184C73.5672 294.308 72.6963 295.207 71.4378 295.883L72.8572 298.526ZM76.8117 294.505C77.6245 292.847 78.0146 291.007 78.0146 289.016H75.0146C75.0146 290.608 74.705 291.987 74.118 293.184L76.8117 294.505ZM78.0146 289.016C78.0146 286.998 77.6254 285.095 76.8345 283.323L74.0951 284.546C74.704 285.91 75.0146 287.394 75.0146 289.016H78.0146ZM76.8345 283.323C76.0087 281.473 74.6987 279.989 72.9467 278.886L71.3482 281.425C72.6197 282.225 73.5213 283.261 74.0951 284.546L76.8345 283.323ZM72.9467 278.886C71.126 277.74 68.8635 277.228 66.2686 277.228V280.228C68.4888 280.228 70.1455 280.667 71.3482 281.425L72.9467 278.886ZM66.2686 277.228H55.0566V280.228H66.2686V277.228ZM53.5566 278.728V330H56.5566V278.728H53.5566ZM55.0566 328.5H42.459V331.5H55.0566V328.5ZM43.959 330V268.859H40.959V330H43.959ZM42.459 270.359H66.2686V267.359H42.459V270.359ZM66.2686 270.359C70.8771 270.359 74.7339 271.195 77.8927 272.8L79.2518 270.126C75.5799 268.26 71.2342 267.359 66.2686 267.359V270.359ZM77.9058 272.807C81.1165 274.399 83.5227 276.577 85.1816 279.333L87.752 277.786C85.7716 274.496 82.9147 271.942 79.2387 270.119L77.9058 272.807ZM85.1816 279.333C86.8466 282.099 87.6963 285.284 87.6963 288.932H90.6963C90.6963 284.797 89.7264 281.067 87.752 277.786L85.1816 279.333ZM87.6963 288.932C87.6963 292.641 86.8441 295.769 85.1983 298.377L87.7353 299.978C89.7288 296.819 90.6963 293.117 90.6963 288.932H87.6963ZM85.1983 298.377C83.5515 300.987 81.1583 303.029 77.9507 304.489L79.1938 307.22C82.873 305.545 85.7428 303.136 87.7353 299.978L85.1983 298.377ZM77.9465 304.491C74.7735 305.948 70.8968 306.706 66.2686 306.706V309.706C71.2146 309.706 75.5403 308.897 79.198 307.218L77.9465 304.491ZM106.119 308.206H104.619V309.706H106.119V308.206ZM106.119 298.38V296.88H104.619V298.38H106.119ZM127.577 297.204L128.268 298.536L128.277 298.531L128.287 298.526L127.577 297.204ZM110.486 278.728V277.228H108.986V278.728H110.486ZM110.486 330V331.5H111.986V330H110.486ZM97.8887 330H96.3887V331.5H97.8887V330ZM97.8887 268.859V267.359H96.3887V268.859H97.8887ZM134.002 271.463L133.322 272.8L133.329 272.803L133.336 272.807L134.002 271.463ZM134.002 305.854L133.38 304.489L133.376 304.491L134.002 305.854ZM121.698 306.706H106.119V309.706H121.698V306.706ZM107.619 308.206V298.38H104.619V308.206H107.619ZM106.119 299.88H121.698V296.88H106.119V299.88ZM121.698 299.88C124.253 299.88 126.473 299.466 128.268 298.536L126.887 295.872C125.658 296.51 123.959 296.88 121.698 296.88V299.88ZM128.287 298.526C130.052 297.578 131.392 296.237 132.241 294.505L129.548 293.184C128.997 294.308 128.126 295.207 126.867 295.883L128.287 298.526ZM132.241 294.505C133.054 292.847 133.444 291.007 133.444 289.016H130.444C130.444 290.608 130.135 291.987 129.548 293.184L132.241 294.505ZM133.444 289.016C133.444 286.998 133.055 285.095 132.264 283.323L129.525 284.546C130.134 285.91 130.444 287.394 130.444 289.016H133.444ZM132.264 283.323C131.438 281.473 130.128 279.989 128.376 278.886L126.778 281.425C128.049 282.225 128.951 283.261 129.525 284.546L132.264 283.323ZM128.376 278.886C126.556 277.74 124.293 277.228 121.698 277.228V280.228C123.918 280.228 125.575 280.667 126.778 281.425L128.376 278.886ZM121.698 277.228H110.486V280.228H121.698V277.228ZM108.986 278.728V330H111.986V278.728H108.986ZM110.486 328.5H97.8887V331.5H110.486V328.5ZM99.3887 330V268.859H96.3887V330H99.3887ZM97.8887 270.359H121.698V267.359H97.8887V270.359ZM121.698 270.359C126.307 270.359 130.164 271.195 133.322 272.8L134.682 270.126C131.01 268.26 126.664 267.359 121.698 267.359V270.359ZM133.336 272.807C136.546 274.399 138.952 276.577 140.611 279.333L143.182 277.786C141.201 274.496 138.344 271.942 134.668 270.119L133.336 272.807ZM140.611 279.333C142.276 282.099 143.126 285.284 143.126 288.932H146.126C146.126 284.797 145.156 281.067 143.182 277.786L140.611 279.333ZM143.126 288.932C143.126 292.641 142.274 295.769 140.628 298.377L143.165 299.978C145.159 296.819 146.126 293.117 146.126 288.932H143.126ZM140.628 298.377C138.981 300.987 136.588 303.029 133.38 304.489L134.623 307.22C138.303 305.545 141.172 303.136 143.165 299.978L140.628 298.377ZM133.376 304.491C130.203 305.948 126.326 306.706 121.698 306.706V309.706C126.644 309.706 130.97 308.897 134.628 307.218L133.376 304.491ZM180.655 268.859H182.155V267.359H180.655V268.859ZM180.655 330V331.5H182.155V330H180.655ZM168.1 330H166.6V331.5H168.1V330ZM168.1 268.859V267.359H166.6V268.859H168.1ZM199.468 268.859H200.968V267.359H199.468V268.859ZM199.468 278.728V280.228H200.968V278.728H199.468ZM149.581 278.728H148.081V280.228H149.581V278.728ZM149.581 268.859V267.359H148.081V268.859H149.581ZM179.155 268.859V330H182.155V268.859H179.155ZM180.655 328.5H168.1V331.5H180.655V328.5ZM169.6 330V268.859H166.6V330H169.6ZM168.1 270.359H180.655V267.359H168.1V270.359ZM197.968 268.859V278.728H200.968V268.859H197.968ZM199.468 277.228H149.581V280.228H199.468V277.228ZM151.081 278.728V268.859H148.081V278.728H151.081ZM149.581 270.359H199.468V267.359H149.581V270.359ZM217.021 268.859L218.341 268.147L217.916 267.359H217.021V268.859ZM228.526 290.191L227.206 290.903L228.526 293.351L229.847 290.903L228.526 290.191ZM240.032 268.859V267.359H239.137L238.712 268.147L240.032 268.859ZM254.436 268.859L255.73 269.618L257.053 267.359H254.436V268.859ZM236.673 299.178L235.379 298.419L234.932 299.181L235.382 299.941L236.673 299.178ZM254.897 330V331.5H257.527L256.189 329.237L254.897 330ZM240.368 330L239.051 330.717L239.477 331.5H240.368V330ZM228.526 308.248L229.844 307.531L228.526 305.111L227.209 307.531L228.526 308.248ZM216.685 330V331.5H217.576L218.002 330.717L216.685 330ZM202.071 330L200.781 329.235L199.439 331.5H202.071V330ZM220.338 299.178L221.628 299.942L222.079 299.181L221.631 298.418L220.338 299.178ZM202.533 268.859V267.359H199.913L201.24 269.619L202.533 268.859ZM215.7 269.571L227.206 290.903L229.847 289.479L218.341 268.147L215.7 269.571ZM229.847 290.903L241.352 269.571L238.712 268.147L227.206 289.479L229.847 290.903ZM240.032 270.359H254.436V267.359H240.032V270.359ZM253.141 268.101L235.379 298.419L237.967 299.936L255.73 269.618L253.141 268.101ZM235.382 299.941L253.606 330.763L256.189 329.237L237.964 298.414L235.382 299.941ZM254.897 328.5H240.368V331.5H254.897V328.5ZM241.686 329.283L229.844 307.531L227.209 308.965L239.051 330.717L241.686 329.283ZM227.209 307.531L215.367 329.283L218.002 330.717L229.844 308.965L227.209 307.531ZM216.685 328.5H202.071V331.5H216.685V328.5ZM203.362 330.765L221.628 299.942L219.047 298.413L200.781 329.235L203.362 330.765ZM221.631 298.418L203.827 268.1L201.24 269.619L219.044 299.937L221.631 298.418ZM202.533 270.359H217.021V267.359H202.533V270.359Z" fill="#B14204" mask="url(#path-8-outside-1_410_59)"/>
</svg>
