<svg width="620" height="600" viewBox="0 0 620 600" fill="none" xmlns="http://www.w3.org/2000/svg">
<path d="M158 32C158 18.7452 168.745 8 182 8H482.503C489.844 8 496.781 11.3596 501.332 17.1191L606.83 150.611C610.178 154.848 612 160.091 612 165.492V568C612 581.255 601.255 592 588 592H182C168.745 592 158 581.255 158 568V32Z" fill="#1D232D" stroke="#364152" stroke-width="16"/>
<rect x="218" y="216" width="333" height="18" fill="#FF4545"/>
<rect x="218" y="282" width="333" height="18" fill="#FF4545" fill-opacity="0.75"/>
<rect x="218" y="348" width="333" height="18" fill="#FF4545" fill-opacity="0.5"/>
<rect x="218" y="414" width="333" height="18" fill="#FF4545" fill-opacity="0.25"/>
<path d="M498 22.0964L543.817 77.0772L603.235 150.5H498V22.0964Z" stroke="#364152" stroke-width="16"/>
<rect y="150" width="300" height="300" rx="37.5" fill="#FF4545"/>
<mask id="path-8-outside-1_409_87" maskUnits="userSpaceOnUse" x="36" y="251" width="231" height="96" fill="black">
<rect fill="white" x="36" y="251" width="231" height="96"/>
<path d="M73.9028 312.309H50.5342V297.57H73.9028C77.5142 297.57 80.4536 296.982 82.7212 295.806C84.9888 294.588 86.6475 292.909 87.6973 290.767C88.7471 288.625 89.272 286.211 89.272 283.523C89.272 280.794 88.7471 278.253 87.6973 275.902C86.6475 273.55 84.9888 271.661 82.7212 270.233C80.4536 268.805 77.5142 268.091 73.9028 268.091H57.085V345H38.1885V253.289H73.9028C81.0835 253.289 87.2354 254.591 92.3584 257.194C97.5234 259.756 101.471 263.304 104.2 267.839C106.93 272.375 108.294 277.561 108.294 283.397C108.294 289.318 106.93 294.441 104.2 298.767C101.471 303.092 97.5234 306.43 92.3584 308.782C87.2354 311.133 81.0835 312.309 73.9028 312.309ZM149.489 345H129.521L129.647 330.261H149.489C154.444 330.261 158.622 329.148 162.023 326.922C165.425 324.655 167.986 321.358 169.708 317.033C171.472 312.708 172.354 307.48 172.354 301.349V296.877C172.354 292.174 171.85 288.038 170.842 284.468C169.876 280.899 168.427 277.896 166.496 275.461C164.564 273.025 162.191 271.199 159.378 269.981C156.564 268.721 153.331 268.091 149.678 268.091H129.144V253.289H149.678C155.809 253.289 161.415 254.339 166.496 256.438C171.619 258.496 176.049 261.457 179.786 265.32C183.523 269.183 186.4 273.802 188.416 279.177C190.473 284.51 191.502 290.452 191.502 297.003V301.349C191.502 307.858 190.473 313.8 188.416 319.175C186.4 324.55 183.523 329.169 179.786 333.032C176.091 336.854 171.661 339.814 166.496 341.914C161.373 343.971 155.704 345 149.489 345ZM140.229 253.289V345H121.333V253.289H140.229ZM224.13 253.289V345H205.233V253.289H224.13ZM260.663 292.468V307.207H218.965V292.468H260.663ZM265.072 253.289V268.091H218.965V253.289H265.072Z"/>
</mask>
<path d="M73.9028 312.309H50.5342V297.57H73.9028C77.5142 297.57 80.4536 296.982 82.7212 295.806C84.9888 294.588 86.6475 292.909 87.6973 290.767C88.7471 288.625 89.272 286.211 89.272 283.523C89.272 280.794 88.7471 278.253 87.6973 275.902C86.6475 273.55 84.9888 271.661 82.7212 270.233C80.4536 268.805 77.5142 268.091 73.9028 268.091H57.085V345H38.1885V253.289H73.9028C81.0835 253.289 87.2354 254.591 92.3584 257.194C97.5234 259.756 101.471 263.304 104.2 267.839C106.93 272.375 108.294 277.561 108.294 283.397C108.294 289.318 106.93 294.441 104.2 298.767C101.471 303.092 97.5234 306.43 92.3584 308.782C87.2354 311.133 81.0835 312.309 73.9028 312.309ZM149.489 345H129.521L129.647 330.261H149.489C154.444 330.261 158.622 329.148 162.023 326.922C165.425 324.655 167.986 321.358 169.708 317.033C171.472 312.708 172.354 307.48 172.354 301.349V296.877C172.354 292.174 171.85 288.038 170.842 284.468C169.876 280.899 168.427 277.896 166.496 275.461C164.564 273.025 162.191 271.199 159.378 269.981C156.564 268.721 153.331 268.091 149.678 268.091H129.144V253.289H149.678C155.809 253.289 161.415 254.339 166.496 256.438C171.619 258.496 176.049 261.457 179.786 265.32C183.523 269.183 186.4 273.802 188.416 279.177C190.473 284.51 191.502 290.452 191.502 297.003V301.349C191.502 307.858 190.473 313.8 188.416 319.175C186.4 324.55 183.523 329.169 179.786 333.032C176.091 336.854 171.661 339.814 166.496 341.914C161.373 343.971 155.704 345 149.489 345ZM140.229 253.289V345H121.333V253.289H140.229ZM224.13 253.289V345H205.233V253.289H224.13ZM260.663 292.468V307.207H218.965V292.468H260.663ZM265.072 253.289V268.091H218.965V253.289H265.072Z" fill="white"/>
<path d="M50.5342 312.309H49.0342V313.809H50.5342V312.309ZM50.5342 297.57V296.07H49.0342V297.57H50.5342ZM82.7212 295.806L83.4117 297.138L83.4213 297.133L83.4309 297.128L82.7212 295.806ZM57.085 268.091V266.591H55.585V268.091H57.085ZM57.085 345V346.5H58.585V345H57.085ZM38.1885 345H36.6885V346.5H38.1885V345ZM38.1885 253.289V251.789H36.6885V253.289H38.1885ZM92.3584 257.194L91.6788 258.532L91.6854 258.535L91.692 258.538L92.3584 257.194ZM92.3584 308.782L91.7369 307.417L91.7326 307.418L92.3584 308.782ZM73.9028 310.809H50.5342V313.809H73.9028V310.809ZM52.0342 312.309V297.57H49.0342V312.309H52.0342ZM50.5342 299.07H73.9028V296.07H50.5342V299.07ZM73.9028 299.07C77.6611 299.07 80.8609 298.46 83.4117 297.138L82.0307 294.475C80.0463 295.503 77.3672 296.07 73.9028 296.07V299.07ZM83.4309 297.128C85.9517 295.774 87.8452 293.873 89.0441 291.427L86.3504 290.107C85.4497 291.944 84.0259 293.403 82.0115 294.485L83.4309 297.128ZM89.0441 291.427C90.2068 289.055 90.772 286.411 90.772 283.523H87.772C87.772 286.011 87.2873 288.195 86.3504 290.107L89.0441 291.427ZM90.772 283.523C90.772 280.596 90.2078 277.846 89.067 275.29L86.3276 276.513C87.2864 278.661 87.772 280.992 87.772 283.523H90.772ZM89.067 275.29C87.8912 272.657 86.0283 270.543 83.5204 268.964L81.922 271.502C83.9493 272.779 85.4038 274.444 86.3276 276.513L89.067 275.29ZM83.5204 268.964C80.9438 267.341 77.7015 266.591 73.9028 266.591V269.591C77.3268 269.591 79.9634 270.269 81.922 271.502L83.5204 268.964ZM73.9028 266.591H57.085V269.591H73.9028V266.591ZM55.585 268.091V345H58.585V268.091H55.585ZM57.085 343.5H38.1885V346.5H57.085V343.5ZM39.6885 345V253.289H36.6885V345H39.6885ZM38.1885 254.789H73.9028V251.789H38.1885V254.789ZM73.9028 254.789C80.905 254.789 86.8123 256.058 91.6788 258.532L93.038 255.857C87.6584 253.123 81.262 251.789 73.9028 251.789V254.789ZM91.692 258.538C96.6243 260.984 100.346 264.345 102.915 268.613L105.485 267.066C102.595 262.264 98.4225 258.527 93.0248 255.851L91.692 258.538ZM102.915 268.613C105.49 272.891 106.794 277.804 106.794 283.397H109.794C109.794 277.317 108.37 271.858 105.485 267.066L102.915 268.613ZM106.794 283.397C106.794 289.081 105.487 293.916 102.932 297.966L105.469 299.567C108.372 294.966 109.794 289.556 109.794 283.397H106.794ZM102.932 297.966C100.375 302.017 96.6661 305.172 91.7369 307.417L92.9799 310.147C98.3808 307.688 102.566 304.166 105.469 299.567L102.932 297.966ZM91.7326 307.418C86.8519 309.659 80.9246 310.809 73.9028 310.809V313.809C81.2424 313.809 87.6188 312.608 92.9841 310.145L91.7326 307.418ZM129.521 345L128.022 344.987L128.009 346.5H129.521V345ZM129.647 330.261V328.761H128.16L128.148 330.248L129.647 330.261ZM162.023 326.922L162.845 328.178L162.855 328.17L162.023 326.922ZM169.708 317.033L168.319 316.467L168.314 316.478L169.708 317.033ZM170.842 284.468L169.394 284.86L169.396 284.868L169.398 284.876L170.842 284.468ZM159.378 269.981L158.765 271.35L158.773 271.354L158.782 271.358L159.378 269.981ZM129.144 268.091H127.644V269.591H129.144V268.091ZM129.144 253.289V251.789H127.644V253.289H129.144ZM166.496 256.438L165.923 257.825L165.93 257.828L165.937 257.83L166.496 256.438ZM188.416 279.177L187.011 279.704L187.014 279.711L187.016 279.717L188.416 279.177ZM188.416 319.175L187.015 318.639L187.011 318.648L188.416 319.175ZM179.786 333.032L178.708 331.989L178.708 331.989L179.786 333.032ZM166.496 341.914L167.055 343.306L167.06 343.303L166.496 341.914ZM140.229 253.289H141.729V251.789H140.229V253.289ZM140.229 345V346.5H141.729V345H140.229ZM121.333 345H119.833V346.5H121.333V345ZM121.333 253.289V251.789H119.833V253.289H121.333ZM149.489 343.5H129.521V346.5H149.489V343.5ZM131.021 345.013L131.147 330.274L128.148 330.248L128.022 344.987L131.021 345.013ZM129.647 331.761H149.489V328.761H129.647V331.761ZM149.489 331.761C154.671 331.761 159.15 330.595 162.845 328.178L161.202 325.667C158.094 327.701 154.217 328.761 149.489 328.761V331.761ZM162.855 328.17C166.544 325.711 169.284 322.155 171.102 317.588L168.314 316.478C166.689 320.562 164.305 323.598 161.191 325.674L162.855 328.17ZM171.097 317.6C172.953 313.048 173.854 307.617 173.854 301.349H170.854C170.854 307.343 169.99 312.368 168.319 316.467L171.097 317.6ZM173.854 301.349V296.877H170.854V301.349H173.854ZM173.854 296.877C173.854 292.071 173.339 287.793 172.285 284.061L169.398 284.876C170.36 288.283 170.854 292.277 170.854 296.877H173.854ZM172.29 284.076C171.281 280.347 169.751 277.151 167.671 274.529L165.32 276.393C167.104 278.642 168.471 281.451 169.394 284.86L172.29 284.076ZM167.671 274.529C165.588 271.902 163.017 269.922 159.974 268.604L158.782 271.358C161.365 272.476 163.54 274.148 165.32 276.393L167.671 274.529ZM159.991 268.612C156.952 267.251 153.504 266.591 149.678 266.591V269.591C153.158 269.591 156.177 270.191 158.765 271.35L159.991 268.612ZM149.678 266.591H129.144V269.591H149.678V266.591ZM130.644 268.091V253.289H127.644V268.091H130.644ZM129.144 254.789H149.678V251.789H129.144V254.789ZM149.678 254.789C155.635 254.789 161.043 255.808 165.923 257.825L167.068 255.052C161.786 252.869 155.983 251.789 149.678 251.789V254.789ZM165.937 257.83C170.869 259.812 175.121 262.655 178.708 266.363L180.864 264.277C176.976 260.258 172.368 257.181 167.055 255.047L165.937 257.83ZM178.708 266.363C182.293 270.068 185.063 274.508 187.011 279.704L189.82 278.651C187.737 273.096 184.754 268.298 180.864 264.277L178.708 266.363ZM187.016 279.717C188.998 284.855 190.002 290.61 190.002 297.003H193.002C193.002 290.294 191.948 284.166 189.815 278.637L187.016 279.717ZM190.002 297.003V301.349H193.002V297.003H190.002ZM190.002 301.349C190.002 307.698 188.999 313.456 187.015 318.639L189.816 319.711C191.948 314.144 193.002 308.017 193.002 301.349H190.002ZM187.011 318.648C185.063 323.844 182.293 328.284 178.708 331.989L180.864 334.075C184.754 330.054 187.737 325.256 189.82 319.701L187.011 318.648ZM178.708 331.989C175.165 335.653 170.912 338.499 165.931 340.524L167.06 343.303C172.409 341.129 177.017 338.054 180.864 334.075L178.708 331.989ZM165.937 340.522C161.012 342.499 155.536 343.5 149.489 343.5V346.5C155.871 346.5 161.733 345.443 167.055 343.306L165.937 340.522ZM138.729 253.289V345H141.729V253.289H138.729ZM140.229 343.5H121.333V346.5H140.229V343.5ZM122.833 345V253.289H119.833V345H122.833ZM121.333 254.789H140.229V251.789H121.333V254.789ZM224.13 253.289H225.63V251.789H224.13V253.289ZM224.13 345V346.5H225.63V345H224.13ZM205.233 345H203.733V346.5H205.233V345ZM205.233 253.289V251.789H203.733V253.289H205.233ZM260.663 292.468H262.163V290.968H260.663V292.468ZM260.663 307.207V308.707H262.163V307.207H260.663ZM218.965 307.207H217.465V308.707H218.965V307.207ZM218.965 292.468V290.968H217.465V292.468H218.965ZM265.072 253.289H266.572V251.789H265.072V253.289ZM265.072 268.091V269.591H266.572V268.091H265.072ZM218.965 268.091H217.465V269.591H218.965V268.091ZM218.965 253.289V251.789H217.465V253.289H218.965ZM222.63 253.289V345H225.63V253.289H222.63ZM224.13 343.5H205.233V346.5H224.13V343.5ZM206.733 345V253.289H203.733V345H206.733ZM205.233 254.789H224.13V251.789H205.233V254.789ZM259.163 292.468V307.207H262.163V292.468H259.163ZM260.663 305.707H218.965V308.707H260.663V305.707ZM220.465 307.207V292.468H217.465V307.207H220.465ZM218.965 293.968H260.663V290.968H218.965V293.968ZM263.572 253.289V268.091H266.572V253.289H263.572ZM265.072 266.591H218.965V269.591H265.072V266.591ZM220.465 268.091V253.289H217.465V268.091H220.465ZM218.965 254.789H265.072V251.789H218.965V254.789Z" fill="#AA0000" mask="url(#path-8-outside-1_409_87)"/>
</svg>
