<svg width="750" height="500" viewBox="0 0 750 500" fill="none" xmlns="http://www.w3.org/2000/svg">
<path d="M91.09 126.84L93.79 159.71C93.79 159.71 70.36 155.87 64.15 168.3C57.94 180.73 57.93 213.22 72.44 230.49C82.89 242.94 94.06 237.81 99.49 233.97L102.31 269.88C102.31 283.29 128.07 307.99 159.85 307.99C191.63 307.99 217.39 283.29 217.39 269.88L228.6 126.88L91.09 126.84ZM80.73 216C71.73 208.4 76.58 175.23 80.73 171.09C83.8 168.01 91.06 170.26 94.6 171.63L98.31 218.93C93.68 220.08 86.38 220.77 80.73 216Z" fill="#364152"/>
<path d="M159.85 308.491C128.93 308.491 101.85 284.431 101.85 269.881L99.1 234.881C93.1 238.881 82.29 242.971 72.1 230.831C57.9 213.911 57.24 181.111 63.75 168.091C69.56 156.481 89.4 158.591 93.29 159.091L90.6 126.311H229.14V126.851L217.93 269.851C217.89 284.431 190.76 308.491 159.85 308.491ZM99.92 233.051L102.8 269.841C102.8 282.421 127.47 307.491 159.85 307.491C192.23 307.491 216.85 282.421 216.85 269.881L228.02 127.341H91.64L94.34 160.341L93.7 160.241C93.47 160.241 70.58 156.601 64.59 168.571C58.2 181.351 58.85 213.571 72.82 230.211C82.93 242.211 93.69 237.501 99.2 233.601L99.92 233.051ZM91.76 220.271C87.6285 220.382 83.5965 218.993 80.41 216.361C76.53 213.091 75.41 205.651 75.21 199.991C74.7 187.751 77.67 173.421 80.38 170.711C83.59 167.491 90.78 169.601 94.78 171.141L95.08 171.251L98.84 219.251L98.43 219.351C96.2531 219.931 94.0128 220.24 91.76 220.271ZM81.05 215.601C86.28 220.021 92.96 219.671 97.78 218.521L94.13 172.001C90.93 170.801 83.92 168.631 81.13 171.461C78.54 174.001 75.72 188.261 76.21 200.001C76.53 207.831 78.21 213.241 81.05 215.651V215.601Z" fill="#364152"/>
<path d="M159.85 155.86C197.82 155.86 228.6 142.868 228.6 126.84C228.6 110.813 197.82 97.8203 159.85 97.8203C121.88 97.8203 91.1 110.813 91.1 126.84C91.1 142.868 121.88 155.86 159.85 155.86Z" fill="white"/>
<path d="M159.85 156.37C121.66 156.37 90.59 143.12 90.59 126.84C90.59 110.56 121.66 97.3203 159.85 97.3203C198.04 97.3203 229.1 110.57 229.1 126.84C229.1 143.11 198 156.37 159.85 156.37ZM159.85 98.3203C122.21 98.3203 91.59 111.12 91.59 126.84C91.59 142.56 122.21 155.37 159.85 155.37C197.49 155.37 228.1 142.57 228.1 126.84C228.1 111.11 197.48 98.3203 159.85 98.3203Z" fill="#364152"/>
<path d="M159.85 152.661C193.633 152.661 221.02 141.101 221.02 126.841C221.02 112.581 193.633 101.021 159.85 101.021C126.067 101.021 98.6801 112.581 98.6801 126.841C98.6801 141.101 126.067 152.661 159.85 152.661Z" fill="white"/>
<path d="M159.85 153.171C125.85 153.171 98.17 141.361 98.17 126.841C98.17 112.321 125.84 100.521 159.85 100.521C193.86 100.521 221.52 112.331 221.52 126.841C221.52 141.351 193.85 153.171 159.85 153.171ZM159.85 101.521C126.39 101.521 99.17 112.881 99.17 126.841C99.17 140.801 126.39 152.171 159.85 152.171C193.31 152.171 220.52 140.811 220.52 126.841C220.52 112.871 193.3 101.521 159.85 101.521Z" fill="#364152"/>
<path d="M159.85 152.661C183.587 152.661 202.83 149.325 202.83 145.211C202.83 141.096 183.587 137.761 159.85 137.761C136.113 137.761 116.87 141.096 116.87 145.211C116.87 149.325 136.113 152.661 159.85 152.661Z" fill="#30F094"/>
<path d="M159.85 153.171C143.59 153.171 128.26 150.511 116.67 145.671L115.57 145.211L116.67 144.751C128.26 139.921 143.59 137.261 159.85 137.261C176.11 137.261 191.44 139.921 203.02 144.751L204.13 145.211L203.02 145.671C191.44 150.511 176.1 153.171 159.85 153.171ZM118.19 145.171C129.52 149.661 144.25 152.171 159.85 152.171C175.45 152.171 190.18 149.701 201.5 145.171C190.18 140.681 175.45 138.171 159.85 138.171C144.25 138.171 129.52 140.721 118.19 145.211V145.171Z" fill="#364152"/>
<path d="M403 203.25C403 203.25 435.7 280.91 443.57 285.02C451.44 289.13 682.16 269.1 682.16 269.1L675.61 261.81L675.3 211.55L683.93 211.17L595.79 95.0898L396.63 109.64C396.63 109.64 386 117 384.52 123.44C383.04 129.88 383.42 139.51 383.42 139.51L403 203.25Z" fill="#364152"/>
<path d="M451.28 285.999C446.89 285.999 444.12 285.819 443.35 285.419C435.41 281.279 403.88 206.579 402.55 203.419V203.369L382.92 139.599V139.529C382.92 139.429 382.61 129.719 384.03 123.329C385.45 116.939 395.9 109.529 396.35 109.219L396.46 109.149H396.59L596 94.5693L596.16 94.7893L684.9 211.619L675.8 212.029L676.11 261.619L683.2 269.509L682.2 269.589C673.69 270.329 492.23 285.999 451.28 285.999ZM403.48 202.999C414.77 229.809 437.71 281.309 443.81 284.489C449.91 287.669 601.11 275.539 681.12 268.599L675.12 261.919V261.729L674.81 210.989L682.96 210.629L595.56 95.6093L396.81 110.119C395.68 110.929 386.3 117.759 385.01 123.549C383.67 129.549 383.89 138.549 383.91 139.429L403.48 202.999Z" fill="#364152"/>
<path d="M675.3 211.55L449 229.77C445.58 232.026 442.7 235.009 440.566 238.505C438.431 242.002 437.094 245.927 436.65 250C434.99 264.13 440.7 278.48 444.95 280.54C448.046 281.865 451.356 282.62 454.72 282.77L675.61 261.77L675.3 211.55Z" fill="#E0E0E0"/>
<path d="M454.77 283.28C451.326 283.135 447.937 282.363 444.77 281C440.2 278.78 434.54 264 436.19 250C436.653 245.855 438.018 241.862 440.187 238.3C442.357 234.738 445.28 231.693 448.75 229.38L448.96 229.31L675.8 211L676.12 262.25L675.66 262.3L454.77 283.28ZM449.11 230.28C445.797 232.519 443.009 235.449 440.938 238.869C438.866 242.289 437.56 246.117 437.11 250.09C435.44 264.37 441.39 278.3 445.11 280.09C448.144 281.384 451.385 282.122 454.68 282.27L675.05 261.35L674.74 212.08L449.11 230.28Z" fill="#364152"/>
<path d="M445 36.1393L353.71 162.189C353.71 162.189 348.71 167.089 348.97 179.099C349.23 191.109 349.82 210.699 353.39 212.099C356.96 213.499 621.12 233.499 621.12 233.499L682.12 92.6293L677.36 90.6293L679 55.8993L683 44.6593L451.71 33.8193L445 36.1393Z" fill="#30F094"/>
<path d="M621.44 234H621.08C610.29 233.19 356.82 213.93 353.22 212.55C350.33 211.44 348.91 201.44 348.47 179.12C348.23 167.03 353.15 162.05 353.36 161.84L444.69 35.7196L451.63 33.3096H451.73L683.66 44.1896L679.5 55.9996L677.86 90.2596L682.76 92.3596L682.56 92.8296L621.44 234ZM445.31 36.5596L354.11 162.48C354.01 162.59 349.24 167.48 349.47 179.09C349.62 186.8 350.09 210.27 353.57 211.61C357 212.72 529.64 226.05 620.8 233L681.45 92.8896L676.83 90.8896L678.53 55.7196L682.27 45.0996L451.78 34.3196L445.31 36.5596Z" fill="#364152"/>
<path d="M361.92 165.779C361.92 165.779 353.66 163.219 351.31 171.159C348.96 179.099 354.74 207.869 354.74 207.869C354.74 207.869 359.67 209.929 361.94 209.999C364.21 210.069 618.41 226.849 618.41 226.849L677.34 90.5894L679 55.8994L622.62 177.999L361.92 165.779Z" fill="white"/>
<path d="M618.73 227.369H618.38C615.84 227.199 364.15 210.579 361.92 210.519C359.69 210.459 354.75 208.439 354.54 208.359L354.3 208.249L354.25 207.989C354.01 206.809 348.48 178.989 350.84 171.039C351.101 169.96 351.582 168.947 352.251 168.061C352.92 167.175 353.764 166.436 354.73 165.889C357.008 164.828 359.591 164.619 362.01 165.299L622.31 177.509L679.62 53.3594L677.8 90.7794L618.73 227.369ZM355.17 207.509C356.17 207.919 360.08 209.439 361.95 209.509C364.18 209.569 603.53 225.379 618.09 226.339L676.85 90.4694L678.38 58.4694L622.94 178.519H622.6L361.84 166.269H361.77C359.591 165.651 357.263 165.824 355.2 166.759C354.354 167.248 353.615 167.903 353.029 168.685C352.443 169.467 352.021 170.36 351.79 171.309C349.63 178.629 354.61 204.609 355.17 207.509Z" fill="#364152"/>
<path d="M616.79 177.729L361.92 165.779C361.92 165.779 353.66 163.219 351.31 171.159C348.96 179.099 354.74 207.869 354.74 207.869C354.74 207.869 359.67 209.929 361.94 209.999C364.21 210.069 618.41 226.849 618.41 226.849L618.06 178.849L616.79 177.729Z" fill="#E0E0E0"/>
<path d="M618.92 227.38H618.38C615.84 227.21 364.15 210.59 361.92 210.53C359.69 210.47 354.75 208.45 354.54 208.37L354.3 208.26L354.25 208C354.01 206.82 348.48 179 350.84 171.05C351.101 169.971 351.582 168.957 352.251 168.071C352.92 167.185 353.764 166.446 354.73 165.9C357.008 164.838 359.591 164.629 362.01 165.31L617.01 177.31L618.58 178.65V178.88L618.92 227.38ZM355.17 207.51C356.17 207.92 360.08 209.44 361.95 209.51C364.17 209.57 601.62 225.25 617.95 226.32L617.6 179.06L616.6 178.23L361.84 166.27H361.77C359.591 165.651 357.263 165.825 355.2 166.76C354.354 167.248 353.615 167.903 353.029 168.685C352.443 169.467 352.021 170.36 351.79 171.31C349.63 178.63 354.61 204.61 355.17 207.51Z" fill="#364152"/>
<path d="M396.16 423.999C396.16 423.999 405.5 437.469 415.26 437.259C480.32 435.839 592.52 466.999 605.54 466.999C618.56 466.999 628.24 465.849 628.24 463.079C628.24 460.309 582.45 279.079 582.45 279.079L573.37 276.319L604.55 453.179C604.55 453.179 565.86 447.659 487.7 434.629C409.54 421.599 412.7 410.629 403.26 412.569C393.82 414.509 396.16 423.999 396.16 423.999Z" fill="#30F094"/>
<path d="M605.54 467.479C601.6 467.479 588.8 464.689 571.09 460.829C529.85 451.829 460.8 436.749 415.27 437.829H415C405.18 437.829 396.11 424.909 395.73 424.359L395.65 424.189C395.65 424.009 394.57 419.709 396.79 416.189C397.515 415.12 398.453 414.213 399.546 413.524C400.639 412.836 401.863 412.381 403.14 412.189C406.54 411.489 408.4 412.369 412.46 414.309C420.21 417.999 436.33 425.669 487.76 434.249C559.48 446.249 598.4 451.899 603.92 452.699L572.71 275.699L582.84 278.789L582.91 279.059C584.78 286.459 628.72 460.359 628.72 463.149C628.72 465.939 620.94 467.479 605.54 467.479ZM419.74 436.739C465.36 436.739 531.35 451.129 571.3 459.849C588.95 463.699 601.7 466.479 605.54 466.479C621.91 466.479 627.74 464.719 627.74 463.059C627.6 460.369 597.82 341.999 582 279.489L574 277.049L605.17 453.789L604.48 453.689C604.1 453.629 564.89 448.009 487.62 435.129C436.04 426.539 419.84 418.819 412.05 415.129C408.05 413.239 406.43 412.449 403.37 413.129C402.22 413.299 401.118 413.706 400.133 414.324C399.149 414.942 398.303 415.758 397.65 416.719C396.472 418.91 396.117 421.45 396.65 423.879C397.43 424.969 406.3 437.039 415.28 436.879C416.72 436.749 418.22 436.739 419.74 436.739Z" fill="#364152"/>
<path d="M614.82 462.27C601.4 461.48 575.29 454.69 510.82 441.46C446.35 428.23 398.08 420.22 398.08 420.22L396.72 424.87C398.95 427.8 406.93 437.47 415.21 437.29C480.32 435.84 592.52 467 605.54 467C618.56 467 628.24 465.85 628.24 463.08C628.24 462.84 621.51 462.67 614.82 462.27Z" fill="#364152"/>
<path d="M605.54 467.479C601.6 467.479 588.8 464.689 571.09 460.829C529.85 451.829 460.82 436.759 415.27 437.829C406.73 438.049 398.66 428.219 396.37 425.209L396.22 425.009L397.77 419.699L398.21 419.769C398.69 419.849 447.29 427.939 510.97 441.009C534.05 445.749 552.12 449.639 566.63 452.769C592.19 458.279 606.27 461.309 614.85 461.769C617.4 461.919 619.97 462.039 622.16 462.139C628.74 462.449 628.74 462.449 628.74 463.059C628.74 465.999 620.94 467.479 605.54 467.479ZM419.74 436.739C465.36 436.739 531.35 451.129 571.3 459.849C588.95 463.699 601.7 466.479 605.54 466.479C620.65 466.479 626.78 464.979 627.63 463.479C626.71 463.379 624.46 463.279 622.11 463.169C619.92 463.069 617.35 462.949 614.79 462.799C606.14 462.289 592.03 459.249 566.42 453.739C551.91 450.609 533.84 446.739 510.77 441.979C450.32 429.569 403.48 421.659 398.48 420.819L397.32 424.819C399.7 427.909 407.25 436.819 415.03 436.819H415.25C416.72 436.749 418.22 436.739 419.74 436.739Z" fill="#364152"/>
<path d="M185.34 272C185.34 272 180.6 273.58 179.82 277.13C179.04 280.68 133.63 462.68 137.97 463.13C142.31 463.58 381.55 465.13 384.31 462.34C387.07 459.55 396.16 424 396.16 424L376 451.27L168.35 446.14L193.22 276.38L185.34 272Z" fill="#30F094"/>
<path d="M287.91 464.48C219.32 464.48 139.22 463.73 137.91 463.61C137.812 463.601 137.717 463.571 137.632 463.521C137.547 463.47 137.475 463.402 137.42 463.32C136.7 462.32 134.5 459.22 177.23 285.59C178.47 280.59 179.23 277.49 179.32 277.06C180.16 273.28 184.97 271.63 185.17 271.57L185.38 271.5L193.77 276.11L168.94 445.65L375.78 450.77L397.27 421.68L396.64 424.16C395.71 427.81 387.45 459.9 384.64 462.68C383.28 464.07 338.75 464.48 287.91 464.48ZM138.21 462.63C146.14 462.85 378.79 464.56 384.02 461.93C386.02 459.93 392.13 437.55 395.02 426.4L376.26 451.78H376L167.78 446.64L167.86 446.08L192.68 276.66L185.29 272.6C184.41 272.94 180.92 274.46 180.29 277.29C180.2 277.73 179.45 280.78 178.2 285.84C142.05 432.77 137.52 460 138.21 462.63Z" fill="#364152"/>
<path d="M384.31 462.329C387.08 459.559 396.16 424.029 396.16 424.029L394.82 425.829L382.34 457.999L140.34 461.119L137.93 463.119C142.31 463.509 381.55 465.089 384.31 462.329Z" fill="#364152"/>
<path d="M287.91 464.48C219.32 464.48 139.22 463.73 137.91 463.61L136.71 463.5L140.19 460.6H140.37L382 457.49L394.42 425.54L397.27 421.68L396.64 424.16C395.71 427.81 387.45 459.9 384.64 462.68C383.28 464.07 338.76 464.48 287.91 464.48ZM139.31 462.65C158.31 462.94 378.2 464.49 383.99 461.94C385.99 459.77 391.83 438.63 394.8 427.28L382.68 458.48H382.35L140.57 461.6L139.31 462.65Z" fill="#364152"/>
<path d="M190.87 269.669L185.34 272.039L147.05 457.189L382.34 457.979L398.13 417.319L177.05 427.979L197.58 269.279L190.87 269.669Z" fill="white"/>
<path d="M382.68 458.48H382.34L146.43 457.69L184.91 271.69L190.84 269.18L198.15 268.75L198.08 269.35L177.62 427.45L398.88 416.79L382.68 458.48ZM147.68 456.7L382.02 457.48L397.41 417.86L176.48 428.51L176.56 427.92L197 269.81L191 270.17L185.79 272.4L147.68 456.7Z" fill="#364152"/>
<path d="M162.84 433.899L152.11 451.749L147.05 457.189L382.34 457.979L398.13 417.319L177.05 427.979L162.84 433.899Z" fill="#E0E0E0"/>
<path d="M382.68 458.48H382.34L145.9 457.69L151.71 451.44L162.5 433.5L177.03 427.5L398.88 416.81L382.68 458.48ZM148.19 456.7L382 457.48L397.39 417.86L177.16 428.48L163.16 434.3L152.46 452.09L148.19 456.7Z" fill="#364152"/>
<path d="M398.13 417.32V381L208.24 401.92L194.03 426.8L398.13 417.32Z" fill="#B8B8B8"/>
<path d="M193.14 427.34L207.93 401.46H208.19L398.63 380.46V417.8H398.15L193.14 427.34ZM208.55 402.39L194.91 426.25L397.63 416.84V381.56L208.55 402.39Z" fill="#364152"/>
<path d="M199.55 249.54L194.03 250.33L162.84 433.9C162.84 433.9 188.5 431.9 223.24 423.64C257.98 415.38 328.65 402.71 352.34 406.27C376.03 409.83 396.16 424 396.16 424C396.16 424 425.72 429.87 458.88 436.58C492.04 443.29 541.39 453.58 574.16 459.09C606.93 464.6 614.82 462.24 614.82 462.24L574.16 273.14L570.21 272L591.92 443.33C591.92 443.33 455 405.48 436.82 405.48C418.64 405.48 408.82 386.13 372.47 379.03C336.12 371.93 295.47 386.13 261.14 392.03C239.616 395.83 218.379 401.109 197.58 407.83L206.66 249.52L199.55 249.54Z" fill="#E0E0E0"/>
<path d="M608.1 463.29C602.2 463.29 591.75 462.59 574.1 459.61C546.5 455 507.22 447 475.66 440.53L458.78 437.1C426 430.47 396.36 424.58 396.06 424.52L395.87 424.44C395.67 424.3 375.55 410.26 352.26 406.76C328.2 403.15 255.26 416.51 223.36 424.12C203.467 428.964 183.256 432.399 162.88 434.4L162.24 434.45L162.35 433.82L193.6 249.88L199.6 249.04H207.24L198.17 407.14C218.777 400.543 239.805 395.338 261.11 391.56C269.77 390.07 278.7 388.08 288.16 385.97C316.29 379.69 345.37 373.21 372.62 378.54C392.29 382.39 404.28 389.84 413.92 395.82C422.15 400.94 428.65 404.98 436.87 404.98C454.4 404.98 579.49 439.36 591.38 442.64L569.61 271.29L574.61 272.78L574.67 273.07L615.4 462.62L614.96 462.75C614.81 462.8 613.05 463.29 608.1 463.29ZM396.36 423.56C398.3 423.95 427.16 429.68 458.98 436.12L475.86 439.55C507.41 445.98 546.68 453.97 574.24 458.62C602.31 463.36 612.13 462.26 614.24 461.89L573.73 273.57L570.8 272.69L592.51 444L591.79 443.8C590.42 443.42 454.71 405.97 436.79 405.97C428.28 405.97 421.67 401.86 413.31 396.66C403.75 390.72 391.84 383.32 372.31 379.51C345.31 374.22 316.31 380.68 288.31 386.93C278.84 389.04 269.9 391.04 261.21 392.54C239.712 396.345 218.5 401.614 197.72 408.31L197.02 408.55L206.13 250H199.59L194.46 250.73L163.46 433.31C183.566 431.274 203.509 427.866 223.15 423.11C256.15 415.24 327.92 402.11 352.43 405.73C375.15 409.18 394.87 422.53 396.36 423.56Z" fill="#364152"/>
<path d="M177.05 427.98L162.84 433.9L194.03 250.33L206.66 249.54L177.05 427.98Z" fill="white"/>
<path d="M162.19 434.71L193.6 249.85L207.26 249L177.5 428.34L162.19 434.71ZM194.45 250.8L163.45 433.09L176.57 427.62L206.03 250.08L194.45 250.8Z" fill="#364152"/>
<path d="M393.39 225.06C393.39 225.06 396.95 218.74 429.32 227.06C461.69 235.38 495.59 256.22 523.23 260.16C550.87 264.1 569 268 569 268L606.51 458.29C606.51 458.29 545.34 450 487.7 434.64C430.06 419.28 405.63 409 398.13 417.32L393.39 225.06Z" fill="white"/>
<path d="M607.15 458.92L606.46 458.82C605.85 458.74 544.58 450.35 487.57 435.12C473.85 431.46 462.15 428.12 451.84 425.19C420 416.12 404 411.57 398.5 417.66L397.66 418.58L392.89 224.94L392.96 224.82C393.11 224.54 397.07 218.26 429.44 226.55C444.22 230.34 459.34 236.75 473.96 242.94C491.63 250.43 508.31 257.51 523.3 259.65C550.63 263.55 568.95 267.51 569.13 267.55L569.45 267.62L607.15 458.92ZM407 413.85C415.7 413.85 429.87 417.85 452.15 424.23C462.46 427.16 474.15 430.49 487.87 434.16C541.5 448.49 599 456.76 605.9 457.73L568.6 268.46C566.04 267.92 548.48 264.26 523.16 260.64C508.04 258.48 491.3 251.38 473.57 243.87C458.99 237.68 443.9 231.29 429.19 227.52C400.19 220.08 394.57 224.52 393.9 225.23L398.6 416.23C400.53 414.58 403.25 413.85 407 413.85Z" fill="#364152"/>
<path d="M558.84 291.999C495.12 277.999 491.29 277.579 491.15 277.569V276.569C491.23 276.569 493.94 276.729 559.02 291.029L558.84 291.999Z" fill="#364152"/>
<path d="M560.24 300.21C552.12 298.42 544.64 296.76 537.93 295.26C529.44 293.37 522.11 291.74 516.27 290.49C494.21 285.76 491.9 285.56 491.81 285.55L491.86 284.55C491.94 284.55 494.01 284.7 516.48 289.55C522.32 290.8 529.65 292.44 538.14 294.33L560.46 299.27L560.24 300.21Z" fill="#364152"/>
<path d="M561.64 308.43C553.18 306.57 544.83 304.67 537.45 302.99C529.58 301.2 522.79 299.66 517.21 298.46C495.55 293.82 492.58 293.56 492.46 293.55L492.53 292.55C492.64 292.55 495.53 292.79 517.42 297.48C523 298.68 529.8 300.23 537.68 302.02C545.05 303.69 553.4 305.59 561.86 307.45L561.64 308.43Z" fill="#364152"/>
<path d="M563 316.65C555 314.9 546.85 313 538.94 311.16C531.2 309.37 523.88 307.67 518.12 306.43C496.95 301.89 493.12 301.56 493.12 301.55L493.19 300.55C493.34 300.55 497.04 300.87 518.38 305.45C524.15 306.69 531.47 308.38 539.22 310.18C547.13 312.01 555.31 313.91 563.22 315.66L563 316.65Z" fill="#364152"/>
<path d="M564.45 324.869C557.17 323.269 548.97 321.329 541.05 319.459C532.9 317.539 525.2 315.709 519.1 314.459C498.46 310.029 493.81 309.609 493.76 309.609L493.84 308.609C494.02 308.609 498.54 309.019 519.31 313.479C525.42 314.789 533.12 316.609 541.31 318.539C549.23 320.409 557.42 322.339 564.69 323.939L564.45 324.869Z" fill="#364152"/>
<path d="M565.85 333.09C559.31 331.65 551.22 329.71 543.39 327.83C535.11 325.83 526.54 323.77 520.05 322.38C499.94 318.06 494.47 317.56 494.41 317.56L494.5 316.56C494.72 316.56 500.05 317.06 520.26 321.4C526.76 322.8 535.33 324.86 543.63 326.85C551.45 328.73 559.53 330.68 566.06 332.11L565.85 333.09Z" fill="#364152"/>
<path d="M567.25 341.31C561.46 340.04 553.89 338.19 545.87 336.23C537.05 334.07 527.87 331.84 520.99 330.35C501.44 326.15 495.13 325.57 495.07 325.56L495.15 324.56C495.21 324.56 501.56 325.14 521.2 329.36C528.14 330.86 537.28 333.09 546.11 335.25C554.11 337.2 561.68 339.05 567.46 340.32L567.25 341.31Z" fill="#364152"/>
<path d="M568.65 349.529C563.65 348.419 556.26 346.599 548.49 344.669C539.08 342.329 529.35 339.919 521.94 338.319C502.94 334.239 495.79 333.569 495.72 333.569L495.81 332.569C495.88 332.569 503.07 333.249 522.15 337.339C529.57 338.939 539.31 341.339 548.73 343.699C556.5 345.629 563.83 347.449 568.86 348.549L568.65 349.529Z" fill="#364152"/>
<path d="M570.05 357.749C565.73 356.799 558.7 355.029 551.27 353.159C541.69 350.739 530.83 347.999 522.88 346.289C504.44 342.289 496.45 341.579 496.37 341.569L496.46 340.569C496.54 340.569 504.58 341.339 523.09 345.319C531.09 347.029 541.92 349.769 551.51 352.189C558.94 354.059 565.96 355.829 570.27 356.779L570.05 357.749Z" fill="#364152"/>
<path d="M571.45 366C567.83 365.21 561.45 363.59 554.15 361.71C543.93 359.09 532.35 356.13 523.83 354.29C505.95 350.45 497.11 349.61 497.03 349.6L497.12 348.6C497.21 348.6 506.12 349.45 524.04 353.31C532.58 355.15 544.17 358.11 554.4 360.73C561.73 362.6 568.06 364.23 571.67 365.02L571.45 366Z" fill="#364152"/>
<path d="M572.85 374.2C569.91 373.55 564.02 372.02 557.2 370.25C546.83 367.56 533.93 364.25 524.77 362.25C507.46 358.52 497.77 357.59 497.68 357.59L497.77 356.59C506.922 357.667 516.012 359.226 525 361.26C534.18 363.26 547.09 366.59 557.47 369.26C564.28 371.03 570.16 372.56 573.09 373.2L572.85 374.2Z" fill="#364152"/>
<path d="M574.26 382.42C571.95 381.91 566.84 380.56 560.37 378.86C549.91 376.11 535.58 372.34 525.72 370.21C516.678 368.184 507.535 366.638 498.33 365.58L498.43 364.58C507.672 365.647 516.851 367.199 525.93 369.23C535.81 371.36 550.15 375.14 560.63 377.9C567.08 379.59 572.18 380.9 574.47 381.44L574.26 382.42Z" fill="#364152"/>
<path d="M575.66 390.64C573.95 390.26 569.45 389.06 563.76 387.54C552.6 384.54 537.32 380.48 526.66 378.18C517.524 376.161 508.288 374.626 498.99 373.58L499.08 372.58C508.418 373.626 517.694 375.165 526.87 377.19C537.55 379.5 552.87 383.58 564.02 386.57C569.7 388.08 574.18 389.28 575.87 389.65L575.66 390.64Z" fill="#364152"/>
<path d="M577.06 398.86C575.9 398.6 572.33 397.64 567.39 396.3C556.85 393.44 539.19 388.66 527.61 386.15C518.362 384.145 509.016 382.619 499.61 381.58L499.71 380.58C509.144 381.616 518.517 383.148 527.79 385.17C539.4 387.67 557.07 392.46 567.62 395.32C572.55 396.66 576.11 397.62 577.24 397.87L577.06 398.86Z" fill="#364152"/>
<path d="M578.46 407.08C577.79 406.93 575.21 406.22 571.31 405.15C560.81 402.25 541.31 396.87 528.55 394.15C519.215 392.151 509.782 390.639 500.29 389.62L500.39 388.62C509.92 389.646 519.389 391.168 528.76 393.18C541.5 395.93 561.06 401.32 571.57 404.18C575.32 405.18 578.03 405.96 578.67 406.1L578.46 407.08Z" fill="#364152"/>
<path d="M579.86 415.3C579.6 415.24 578.23 414.86 575.76 414.17C566.18 411.48 543.76 405.17 529.5 402.1C520.084 400.108 510.571 398.603 501 397.59L501.09 396.59C510.717 397.613 520.286 399.125 529.76 401.12C544.05 404.21 566.5 410.51 576.08 413.2C578.29 413.82 579.89 414.27 580.13 414.32L579.86 415.3Z" fill="#364152"/>
<path d="M581.23 423.51C580.91 423.42 548.65 414.01 530.44 410.07C516.5 407.07 501.75 405.61 501.6 405.59L501.7 404.59C511.419 405.6 521.081 407.099 530.65 409.08C548.89 413.08 581.19 422.45 581.51 422.54L581.23 423.51Z" fill="#364152"/>
<path d="M481 274.759C468.59 269.049 459.86 264.069 452.85 260.069C445.56 255.899 439.79 252.619 433.43 250.559C424.418 247.842 415.11 246.223 405.71 245.739V244.739C415.206 245.224 424.608 246.859 433.71 249.609C440.18 251.699 445.98 255.009 453.33 259.199C460.33 263.199 469.03 268.199 481.4 273.849L481 274.759Z" fill="#364152"/>
<path d="M481.67 282.88C470.54 277.76 462.34 273.14 455.75 269.43C448.06 265.1 441.98 261.68 434.85 259.37C421.03 254.88 407.01 254.14 405.93 254.31L405.67 253.31C406.33 253.11 420.67 253.69 435.16 258.39C442.39 260.73 448.5 264.17 456.24 268.53C463.15 272.42 470.99 276.84 482.09 281.95L481.67 282.88Z" fill="#364152"/>
<path d="M482.3 290.999C472.38 286.429 465.05 282.359 458.58 278.759C450.53 274.279 444.17 270.759 436.24 268.159C420.72 263.099 406.87 262.619 406.02 262.869L405.72 261.869C406.92 261.489 421.26 262.179 436.55 267.169C444.55 269.789 450.97 273.339 459.07 277.849C465.52 281.429 472.83 285.499 482.72 290.049L482.3 290.999Z" fill="#364152"/>
<path d="M482.94 299.13C474.16 295.13 467.38 291.37 461.4 288.13C453.4 283.71 446.4 279.9 437.63 277.02C421.27 271.66 407.54 271.02 406.07 271.49L405.77 270.54C407.77 269.9 421.92 270.82 437.94 276.07C446.81 278.97 453.79 282.81 461.88 287.25C467.88 290.53 474.61 294.25 483.35 298.25L482.94 299.13Z" fill="#364152"/>
<path d="M483.57 307.26C475.88 303.72 469.67 300.35 464.19 297.38C455.87 292.86 448.69 288.97 439.01 285.78C421.49 280.02 408.01 279.43 406.12 280.03L405.82 279.08C408.25 278.3 422.59 279.33 439.33 284.83C449.09 288.04 456.33 291.96 464.67 296.5C470.13 299.5 476.33 302.82 483.98 306.35L483.57 307.26Z" fill="#364152"/>
<path d="M484.2 315.379C477.54 312.319 472.15 309.429 466.95 306.629C458.4 302.049 451.01 298.089 440.4 294.629C421.87 288.509 408.59 287.879 406.17 288.629L405.87 287.679C408.92 286.679 423.18 287.869 440.71 293.679C451.41 297.209 459.19 301.379 467.42 305.789C472.61 308.579 477.99 311.459 484.62 314.509L484.2 315.379Z" fill="#364152"/>
<path d="M484.83 323.499C479.14 320.889 474.32 318.329 469.67 315.859C461.3 311.429 453.4 307.24 441.79 303.39C422.72 297.08 409.21 296.229 406.22 297.189L405.92 296.189C409.5 295.049 423.48 296.189 442.1 302.399C453.79 306.279 461.73 310.479 470.1 314.939C474.75 317.399 479.56 319.939 485.22 322.549L484.83 323.499Z" fill="#364152"/>
<path d="M485.46 331.63C480.68 329.43 476.46 327.2 472.33 325.05C463.85 320.6 455.83 316.4 443.17 312.2C422.82 305.43 409.74 304.66 406.27 305.76L405.97 304.81C410.46 303.38 425.14 305.15 443.49 311.25C456.23 315.48 464.65 319.9 472.8 324.17C476.89 326.31 481.12 328.53 485.88 330.72L485.46 331.63Z" fill="#364152"/>
<path d="M486.09 339.749C482.15 337.939 478.65 336.119 474.94 334.199C465.218 328.921 455.052 324.504 444.56 320.999C424.7 314.379 410.81 312.909 406.32 314.339L406.02 313.389C410.82 311.859 424.69 313.329 444.88 320.049C455.42 323.573 465.632 328.01 475.4 333.309C479.1 335.229 482.59 337.039 486.51 338.839L486.09 339.749Z" fill="#364152"/>
<path d="M486.72 347.87C483.56 346.42 480.61 344.87 477.48 343.3C467.388 337.92 456.856 333.407 446 329.81C423.95 322.44 410.9 321.5 406.42 322.92L406.12 321.97C410.96 320.43 424.06 321.43 446.32 328.86C457.242 332.471 467.836 337.004 477.99 342.41C481.1 344.01 484.05 345.52 487.19 346.97L486.72 347.87Z" fill="#364152"/>
<path d="M487.35 355.999C484.9 354.869 482.49 353.639 479.93 352.349C469.461 346.885 458.561 342.29 447.34 338.609C419.51 329.299 409.45 330.529 406.42 331.499L406.12 330.499C412.72 328.409 427.86 330.999 447.65 337.619C458.922 341.308 469.87 345.924 480.38 351.419C482.93 352.709 485.33 353.929 487.77 355.049L487.35 355.999Z" fill="#364152"/>
<path d="M488 364.12C486.18 363.28 484.29 362.33 482.29 361.33C471.495 355.805 460.276 351.15 448.74 347.41C422.46 338.6 411.26 338.56 406.49 340.08L406.19 339.08C413.19 336.84 428.06 339.38 449.06 346.43C460.64 350.196 471.902 354.878 482.74 360.43C484.74 361.43 486.62 362.37 488.42 363.2L488 364.12Z" fill="#364152"/>
<path d="M488.61 372.25C487.35 371.66 486.02 371 484.48 370.25C478.36 367.25 469.11 362.62 450.11 356.25C428.37 348.94 413.71 346.4 406.52 348.68L406.22 347.73C413.71 345.35 428.17 347.82 450.43 355.3C469.49 361.71 478.78 366.3 484.92 369.37C486.46 370.13 487.78 370.79 489.03 371.37L488.61 372.25Z" fill="#364152"/>
<path d="M489.24 380.37C488.45 380 487.56 379.57 486.52 379.06C481.11 376.4 472.05 371.95 451.52 365.06C428.52 357.32 414.23 354.84 406.59 357.27L406.29 356.27C414.14 353.77 428.61 356.27 451.84 364.07C472.45 371.01 481.55 375.48 486.98 378.15C487.98 378.66 488.9 379.09 489.68 379.45L489.24 380.37Z" fill="#364152"/>
<path d="M489.87 388.49L488.35 387.76C484.35 385.84 475.14 381.329 452.89 373.829C428.57 365.629 414.73 363.229 406.63 365.829L406.32 364.88C414.65 362.23 428.67 364.63 453.21 372.88C475.52 380.41 484.82 384.93 488.79 386.88C489.39 387.18 489.88 387.42 490.29 387.6L489.87 388.49Z" fill="#364152"/>
<path d="M490.5 396.619L489.92 396.339C482.3 392.659 470.31 388.049 454.27 382.629C428.94 374.079 415.15 371.689 406.68 374.389L406.37 373.389C415.19 370.589 428.71 372.899 454.59 381.649C470.67 387.079 482.7 391.699 490.35 395.399L490.92 395.669L490.5 396.619Z" fill="#364152"/>
<path d="M491.12 404.73C491.04 404.73 482.74 400.6 455.66 391.44C428.96 382.44 415.66 380.11 406.73 382.96L406.42 382.01C415.62 379.08 429.05 381.38 455.98 390.49C483.15 399.68 491.49 403.8 491.57 403.84L491.12 404.73Z" fill="#364152"/>
<path d="M393.39 225.06L398.13 417.32C398.13 417.32 383.92 388.11 346.02 389.32C308.12 390.53 224.43 419.72 211.02 422.48C197.61 425.24 177.05 428 177.05 428L199.55 244.43C199.55 244.43 299 226.25 320 219.93C341 213.61 359.09 206.93 372.51 210.06C385.93 213.19 393.39 215.59 393.39 225.06Z" fill="white"/>
<path d="M176.48 428.56L176.56 427.92L199.1 244L199.46 243.93C200.46 243.75 299.16 225.71 319.82 219.47C322.527 218.65 325.193 217.833 327.82 217.02C345.51 211.54 360.82 206.81 372.6 209.59C385.81 212.7 393.91 215.11 393.91 225.07L398.71 419.62L397.71 417.56C397.57 417.27 383.18 388.64 346.06 389.81C318.22 390.68 265.69 406.69 234.3 416.25C222.92 419.72 214.69 422.25 211.13 422.96C197.85 425.7 177.35 428.47 177.13 428.5L176.48 428.56ZM200 244.83L177.63 427.4C181.21 426.9 198.98 424.4 210.9 421.96C214.42 421.24 223.05 418.61 233.98 415.28C265.42 405.7 317.98 389.67 345.98 388.79C378.31 387.79 393.7 409 397.56 415.34L392.87 225.06C392.87 215.83 385.45 213.63 372.34 210.55C360.78 207.83 345.63 212.55 328.08 217.96C325.46 218.76 322.8 219.59 320.08 220.41C300 226.47 206.62 243.62 200 244.83Z" fill="#364152"/>
<path d="M296.623 249.944L222.584 266.565L222.804 267.545L296.843 250.924L296.623 249.944Z" fill="#364152"/>
<path d="M220.51 275.249L220.29 274.249C236.48 270.599 267.29 263.629 268.16 263.359C269.16 263.039 293.62 257.599 294.66 257.359L294.87 258.359C286.08 260.359 269.24 264.089 268.46 264.359C267.36 264.689 222.42 274.819 220.51 275.249Z" fill="#364152"/>
<path d="M219.7 283.469L219.48 282.469C219.94 282.359 265.61 271.949 267.74 271.279C269.87 270.609 293.46 265.379 294.47 265.149L294.69 266.149C294.44 266.149 270.01 271.629 268.04 272.249C265.87 272.999 221.59 282.999 219.7 283.469Z" fill="#364152"/>
<path d="M218.9 291.689L218.67 290.689C219.12 290.589 264.11 280.209 267.33 279.199C270.33 278.259 293.33 273.149 294.28 272.939L294.5 273.939C294.26 273.999 270.58 279.249 267.63 280.179C264.38 281.199 220.75 291.269 218.9 291.689Z" fill="#364152"/>
<path d="M218.09 299.919L217.86 298.919C218.31 298.819 262.62 288.469 266.91 287.119C270.91 285.869 293.15 280.939 294.1 280.729L294.31 281.729C294.08 281.729 271.15 286.859 267.21 288.099C262.88 289.459 219.91 299.489 218.09 299.919Z" fill="#364152"/>
<path d="M217.28 308.13L217.05 307.13C217.49 307.03 261.13 296.72 266.5 295.03C271.5 293.47 293 288.71 293.91 288.51L294.13 289.51C293.9 289.56 271.73 294.51 266.8 296.01C261.39 297.71 219.08 307.71 217.28 308.13Z" fill="#364152"/>
<path d="M216.47 316.36L216.24 315.36C216.67 315.26 259.63 304.99 266.08 302.96C272.08 301.08 293.51 296.35 293.72 296.3L293.94 297.3C293.72 297.35 272.3 302.07 266.38 303.93C259.9 306 216.9 316.25 216.47 316.36Z" fill="#364152"/>
<path d="M215.66 324.58L215.43 323.58C215.85 323.48 258.14 313.24 265.66 310.88C272.66 308.69 293.33 304.13 293.54 304.09L293.75 305.09C293.54 305.14 272.88 309.69 265.96 311.86C258.41 314.23 216.09 324.47 215.66 324.58Z" fill="#364152"/>
<path d="M214.85 332.8L214.62 331.8C215.03 331.69 256.62 321.49 265.25 318.8C273.19 316.3 293.15 311.92 293.35 311.87L293.57 312.87C293.36 312.87 273.45 317.29 265.57 319.77C256.91 322.48 215.27 332.7 214.85 332.8Z" fill="#364152"/>
<path d="M214.05 341L213.8 340C214.22 339.9 255.15 329.73 264.8 326.68C273.74 323.87 292.94 319.68 293.13 319.63L293.35 320.63C293.16 320.63 274 324.86 265.1 327.63C255.42 330.74 214.46 340.92 214.05 341Z" fill="#364152"/>
<path d="M213.24 349.24L212.99 348.24C213.4 348.14 253.65 338 264.42 334.62C274.34 331.5 292.79 327.47 292.98 327.43L293.19 328.43C293.01 328.43 274.6 332.49 264.71 335.59C253.93 339 213.64 349.14 213.24 349.24Z" fill="#364152"/>
<path d="M212.43 357.46L212.18 356.46C212.58 356.36 252.18 346.26 264 342.54C274.92 339.11 292.61 335.26 292.79 335.22L293 336.22C292.83 336.22 275.17 340.09 264.3 343.51C252.43 347.25 212.83 357.36 212.43 357.46Z" fill="#364152"/>
<path d="M211.62 365.68L211.37 364.68C211.76 364.58 250.67 354.52 263.58 350.46C275.49 346.71 292.44 343.04 292.58 343L292.79 344C292.62 344 275.72 347.7 263.85 351.43C250.94 355.51 212 365.58 211.62 365.68Z" fill="#364152"/>
<path d="M210.81 373.9L210.56 372.9C210.94 372.8 249.17 362.77 263.17 358.38C276.07 354.32 292.26 350.82 292.42 350.79L292.63 351.79C292.47 351.79 276.32 355.31 263.47 359.35C249.45 363.76 211.2 373.8 210.81 373.9Z" fill="#364152"/>
<path d="M210 382.12L209.74 381.12C210.12 381.01 247.67 371.02 262.74 366.28C276.63 361.92 292.07 358.6 292.22 358.56L292.43 359.56C292.28 359.56 276.89 362.9 263.04 367.26C248 372 210.38 382 210 382.12Z" fill="#364152"/>
<path d="M209.2 390.34L208.94 389.34C209.31 389.24 246.18 379.28 262.33 374.2C277.22 369.52 291.9 366.38 292.05 366.35L292.25 367.35C292.11 367.35 277.47 370.51 262.63 375.17C246.46 380.28 209.57 390.24 209.2 390.34Z" fill="#364152"/>
<path d="M208.39 398.56L208.13 397.56C208.49 397.46 244.69 387.56 261.92 382.12C277.79 377.12 291.72 374.12 291.86 374.12L292.07 375.12C291.93 375.12 278.07 378.12 262.22 383.12C245 388.53 208.75 398.46 208.39 398.56Z" fill="#364152"/>
<path d="M305.57 247.59L305.26 246.59C308.08 245.69 374.44 224.69 384.51 235.76L383.77 236.44C374.13 225.88 306.25 247.37 305.57 247.59Z" fill="#364152"/>
<path d="M305.35 255.559L305.04 254.609C305.28 254.529 328.65 247.029 349.44 243.119C358.26 241.479 379.34 238.279 384.54 243.999L383.8 244.679C380.43 240.959 367.65 240.749 349.62 244.099C328.9 247.999 305.58 255.479 305.35 255.559Z" fill="#364152"/>
<path d="M305.13 263.529L304.83 262.579C305.06 262.499 328.83 254.789 349.36 250.989C367.15 247.769 380.98 248.239 384.57 252.189L383.83 252.869C380.52 249.219 366.73 248.869 349.54 251.979C329.1 255.759 305.37 263.449 305.13 263.529Z" fill="#364152"/>
<path d="M304.92 271.5L304.6 270.55C304.85 270.47 329.04 262.5 349.27 258.87C366.18 255.87 381.04 256.47 384.6 260.38L383.86 261.06C380.57 257.44 365.78 256.92 349.45 259.85C329.29 263.47 305.16 271.42 304.92 271.5Z" fill="#364152"/>
<path d="M304.7 279.47L304.39 278.47C304.63 278.39 329.24 270.2 349.19 266.69C365.52 263.82 381.09 264.62 384.63 268.52L383.89 269.2C381.03 266.05 367.02 264.57 349.36 267.67C329.49 271.22 305 279.39 304.7 279.47Z" fill="#364152"/>
<path d="M304.49 287.45L304.17 286.5C304.42 286.41 329.44 278 349.11 274.61C366.49 271.61 381.52 273.31 384.67 276.76L383.92 277.44C381.42 274.68 367.64 272.44 349.28 275.6C329.69 279 304.74 287.36 304.49 287.45Z" fill="#364152"/>
<path d="M304.27 295.419L303.95 294.469C304.2 294.379 329.64 285.749 349.03 282.469C367.69 279.339 382 281.999 384.7 284.999L383.96 285.679C381.69 283.179 368.13 280.329 349.19 283.519C329.89 286.719 304.52 295.329 304.27 295.419Z" fill="#364152"/>
<path d="M304.05 303.39L303.73 302.44C303.99 302.35 329.85 293.51 348.94 290.36C368.03 287.21 382.33 290.51 384.73 293.14L383.99 293.82C381.78 291.39 367.47 288.32 349.11 291.34C330.09 294.48 304.31 303.3 304.05 303.39Z" fill="#364152"/>
<path d="M303.84 311.359L303.51 310.419C303.77 310.319 330.05 301.269 348.86 298.229C367.52 295.229 382.36 298.699 384.76 301.329L384 301.999C382 299.799 367.68 296.189 349 299.209C330.32 302.229 304.1 311.269 303.84 311.359Z" fill="#364152"/>
<path d="M303.62 319.33L303.29 318.39C303.56 318.29 330.29 309.03 348.78 306.1C367.78 303.1 382.62 307.1 384.78 309.52L384.04 310.2C382.44 308.44 368.36 304.02 348.92 307.09C330.5 310 303.89 319.24 303.62 319.33Z" fill="#364152"/>
<path d="M303.4 327.3L303.07 326.36C303.34 326.26 330.45 316.79 348.7 313.98C368.45 310.93 383.09 315.81 384.82 317.71L384.08 318.39C382.88 317.07 369.34 311.8 348.85 314.96C330.7 317.77 303.67 327.21 303.4 327.3Z" fill="#364152"/>
<path d="M303.18 335.279L302.85 334.329C303.13 334.229 330.66 324.559 348.61 321.849C369.44 318.699 383.56 324.479 384.85 325.849L384.11 326.529C383.04 325.339 369.11 319.719 348.76 322.789C330.9 325.529 303.46 335.179 303.18 335.279Z" fill="#364152"/>
<path d="M303 343.25L302.66 342.3C302.94 342.21 330.89 332.3 348.56 329.72C369.24 326.72 383.76 332.82 384.91 334.09L384.17 334.77C383.54 334.07 370.01 327.57 348.71 330.71C331.1 333.3 303.25 343.15 303 343.25Z" fill="#364152"/>
<path d="M302.75 351.219L302.41 350.279C302.7 350.169 331.06 340.099 348.41 337.589C369.03 334.589 383.69 340.979 384.87 342.279L384.13 342.959C383.32 342.149 369.49 335.569 348.55 338.579C331.31 341.069 303 351.119 302.75 351.219Z" fill="#364152"/>
<path d="M302.53 359.19L302.2 358.25C302.48 358.15 331.27 347.9 348.36 345.47C369.98 342.47 384.26 349.72 384.94 350.47L384.21 351.15C383.08 350.15 369.06 343.61 348.5 346.46C331.51 348.88 302.82 359.09 302.53 359.19Z" fill="#364152"/>
<path d="M302.32 367.159L301.98 366.219C302.27 366.119 331.47 355.659 348.28 353.339C369.84 350.409 384.28 357.889 384.98 358.659L384.24 359.339C384.17 359.339 370.46 351.339 348.42 354.339C331.71 356.629 302.61 367.059 302.32 367.159Z" fill="#364152"/>
<path d="M302.1 375.13L301.76 374.19C302.06 374.08 331.68 363.42 348.2 361.19C370.53 358.19 384.76 366.66 384.9 366.74L384.38 367.6C384.24 367.51 370.3 359.26 348.33 362.19C331.92 364.39 302.39 375 302.1 375.13Z" fill="#364152"/>
<path d="M474.8 435.929C474.8 435.929 471.7 435.159 466.88 434.149L467.09 433.149C471.93 434.149 475.02 434.929 475.09 434.939L474.8 435.929Z" fill="#364152"/>
<path d="M463.29 433.42C459.07 432.59 455.56 429.57 451.85 426.42C447.17 422.42 442.33 418.21 435.53 418.01C422.176 417.76 408.891 419.974 396.34 424.54L395.95 424.69L395.73 424.33C394.198 421.996 392.511 419.767 390.68 417.66L391.43 417.01C393.208 419.053 394.855 421.208 396.36 423.46C408.932 418.97 422.212 416.785 435.56 417.01C442.71 417.22 447.69 421.51 452.51 425.66C456.11 428.76 459.51 431.66 463.51 432.48L463.29 433.42Z" fill="#364152"/>
<path d="M388.07 414.759C385.593 412.172 382.918 409.781 380.07 407.609L380.67 406.819C383.558 409.017 386.267 411.442 388.77 414.069L388.07 414.759Z" fill="#364152"/>
<path d="M380.09 407.61C376.065 404.515 371.616 402.012 366.88 400.18C346.32 392.38 323.44 398.24 320.88 398.93L320.62 397.93C323.19 397.23 346.36 391.3 367.22 399.22C372.043 401.085 376.573 403.635 380.67 406.79L380.09 407.61Z" fill="#364152"/>
<path d="M262.64 413.17L262.42 412.17C262.98 412.04 318.64 399.61 342.42 400.17C351.691 400.302 360.88 401.933 369.63 405L369.29 405.94C360.63 402.906 351.535 401.302 342.36 401.19C318.71 400.64 263.2 413.05 262.64 413.17Z" fill="#364152"/>
<path d="M378.3 410.25C376.835 409.294 375.293 408.461 373.69 407.76L374.1 406.85C375.752 407.585 377.347 408.444 378.87 409.42L378.3 410.25Z" fill="#364152"/>
<path d="M375.007 425.576L223.9 432.808L223.947 433.806L375.054 426.575L375.007 425.576Z" fill="#364152"/>
<path d="M389.223 424.875L380.973 425.27L381.021 426.268L389.271 425.874L389.223 424.875Z" fill="#364152"/>
<path d="M271.072 439.698L262.265 439.921L262.29 440.921L271.097 440.698L271.072 439.698Z" fill="#364152"/>
<path d="M257.215 440.059L187.357 441.827L187.383 442.827L257.24 441.059L257.215 440.059Z" fill="#364152"/>
<path d="M367.391 445.341L359.631 445.574L359.661 446.574L367.421 446.341L367.391 445.341Z" fill="#364152"/>
<path d="M353.39 445.75L254.99 448.702L255.02 449.702L353.42 446.75L353.39 445.75Z" fill="#364152"/>
<path d="M326.702 436.84L306.094 437.545L306.129 438.544L326.736 437.839L326.702 436.84Z" fill="#364152"/>
<path d="M383.46 434.899L332.35 436.648L332.385 437.648L383.495 435.899L383.46 434.899Z" fill="#364152"/>
<path d="M238.282 448.144L231.155 448.339L231.182 449.338L238.31 449.143L238.282 448.144Z" fill="#364152"/>
<path d="M226.707 448.46L160.392 450.277L160.419 451.277L226.735 449.459L226.707 448.46Z" fill="#364152"/>
<path d="M279.12 230.29C279.12 230.29 293.82 210.96 303.12 202.91C312.42 194.86 328.29 182.17 334.74 182.17C341.19 182.17 342.79 186.17 343.2 187.6C343.61 189.03 349 209.35 349 210.36C349 211.37 343.37 212.98 343 211.77C342.63 210.56 340.18 193.24 339.18 190.02C338.18 186.8 338.37 185.02 330.72 188.21C323.07 191.4 300.52 215.59 295.88 221.21C291.24 226.83 286.82 232.69 286.82 232.69C286.82 232.69 281.34 230.29 279.12 230.29Z" fill="#364152"/>
<path d="M286.93 233.33L286.57 233.17C286.52 233.17 281.2 230.79 279.12 230.79H278.12L278.73 229.99C278.88 229.8 293.57 210.53 302.73 202.53C309.94 196.26 327.49 181.67 334.67 181.67C341.24 181.67 343.11 185.72 343.61 187.47C343.89 188.47 349.46 209.21 349.46 210.36C349.46 211.51 346.09 212.45 345.19 212.6C343.6 212.85 342.68 212.6 342.45 211.93C342.29 211.43 341.9 209 341.22 204.74C340.38 199.4 339.22 192.08 338.62 190.17L338.4 189.43C338.07 188.29 337.82 187.43 337.19 187.17C336.29 186.74 334.32 187.17 330.83 188.67C323.41 191.79 301.11 215.56 296.19 221.55C291.62 227.12 287.19 232.95 287.14 233.01L286.93 233.33ZM280.06 229.89C282.31 230.413 284.503 231.153 286.61 232.1C287.61 230.81 291.47 225.76 295.45 220.92C299.86 215.54 322.54 191.09 330.45 187.75C334.37 186.1 336.39 185.68 337.62 186.27C338.62 186.76 338.98 187.87 339.36 189.15C339.43 189.38 339.5 189.62 339.58 189.87C340.2 191.87 341.31 198.87 342.21 204.58C342.75 207.97 343.21 211.17 343.4 211.58C343.923 211.725 344.477 211.725 345 211.58C346.255 211.441 347.453 210.983 348.48 210.25C348.41 209.25 343.17 189.53 342.64 187.7C342.11 185.87 340.35 182.63 334.64 182.63C327.64 182.63 308.91 198.41 303.35 203.25C295.29 210.34 282.81 226.33 280.06 229.89Z" fill="#364152"/>
<path d="M527.94 250C527.47 249.32 526.84 248.53 526.4 248.42C525.69 248.24 520.97 256.26 519.81 258.24C520.446 257.437 521.17 256.709 521.97 256.07C521.97 256.67 519.55 268.55 517.34 274.19C515.13 279.83 515.72 282.45 517.94 282.25C520.16 282.05 523.17 271.98 524.94 266.34C526.516 261.015 527.522 255.538 527.94 250Z" fill="white"/>
<path d="M517.71 282.76C517.383 282.776 517.057 282.711 516.76 282.572C516.464 282.432 516.206 282.222 516.01 281.96C515.01 280.66 515.34 277.96 516.87 274.01C518.65 269.48 520.57 260.84 521.23 257.44L520.18 258.58L517 262L519.36 257.95C525.36 247.61 526.06 247.78 526.5 247.89C526.94 248 527.34 248.24 528.33 249.67L528.43 249.82V250C528.024 255.578 527.018 261.097 525.43 266.46L524.98 267.89C522.34 276.17 520.15 282.51 517.98 282.71L517.71 282.76ZM522 255.54L522.15 255.59L522.47 255.71V256.07C522.47 256.77 520.02 268.71 517.8 274.37C515.87 279.29 516.46 280.89 516.8 281.37C516.928 281.526 517.096 281.645 517.286 281.714C517.476 281.782 517.682 281.798 517.88 281.76C519.59 281.6 522.6 272.16 524.04 267.63L524.5 266.19C526.034 260.974 527.013 255.611 527.42 250.19C527.153 249.747 526.815 249.352 526.42 249.02C524.77 251.068 523.291 253.248 522 255.54Z" fill="#364152"/>
<path d="M527.81 245.8C527 242.17 521.81 246.8 519.55 250.03C517.29 253.26 507.27 264.12 501.63 269.56C495.99 275 474.85 293.12 472.63 294.73C470.41 296.34 467.8 299.16 466.19 299.36C464.58 299.56 460.35 299.36 458.34 298.15C456.33 296.94 455.34 294.73 445.65 289.5C435.96 284.27 394.1 272.18 391.08 272C388.06 271.82 385.64 274.82 381.41 276.63C377.18 278.44 370.14 278.84 367.12 276.22C364.1 273.6 360.47 266.96 358.46 262.13C356.45 257.3 353.22 256.13 350.4 254.48C347.58 252.83 313.76 238 307.51 235.93C301.26 233.86 295.03 232.51 292.21 232.31C290.387 232.205 288.558 232.339 286.77 232.71C286.77 232.71 286.37 233.31 284.77 232.11C283.17 230.91 277.92 228.68 276.31 231.9C274.7 235.12 272.31 242.58 273.69 245.4L275.1 248.22C275.1 248.22 273.69 266.34 274.3 272.58C274.91 278.82 279.74 286.88 283.76 291.71C287.78 296.54 303.9 305.6 315.76 308.42C327.62 311.24 334.89 309.63 338.11 307.42C341.33 305.21 351.2 294.13 353.62 291.51C356.04 288.89 355.83 287.28 363.68 289.7C371.53 292.12 374.36 297.75 375.77 301.98C377.18 306.21 382.41 323.12 386.64 328.56C391.934 335.707 399.019 341.333 407.18 344.87C417.45 349.3 424.29 352.72 433.96 351.52C443.63 350.32 448.86 345.88 451.88 340.64C454.9 335.4 456.88 324.94 457.88 321.71C458.709 319.568 460.188 317.739 462.11 316.48C462.11 316.48 466.11 314.67 467.35 311.85C468.59 309.03 478.02 300.37 478.02 300.37C478.02 300.37 493.32 288.29 499.16 281.64C505 274.99 522 255.46 522 256.07C522 256.68 519.58 268.55 517.37 274.19C515.16 279.83 515.75 282.45 517.97 282.25C520.19 282.05 523.2 271.98 524.97 266.34C526.74 260.7 528.61 249.42 527.81 245.8ZM356.65 279C356.292 280.219 355.749 281.375 355.04 282.43C353.83 284.24 345.77 297.13 340.74 301.15C335.71 305.17 329.87 308.6 323.82 308C317.77 307.4 302.28 301.56 290.82 292.5C279.36 283.44 277.73 271.55 278.94 260.08C280.15 248.61 284.18 240.74 290.22 239.54C296.26 238.34 316.22 243.36 329.89 250.61C343.56 257.86 355.26 266.72 356.06 269.74C356.86 272.76 356.65 279 356.65 279ZM453.1 320.3C451.89 330.77 449.48 336.82 445.85 341.65C442.22 346.48 438 348.7 426.72 347.65C415.44 346.6 406.99 342.41 399.13 336.78C391.27 331.15 388.66 323.69 385.64 316.64C382.62 309.59 377.39 295.5 380.41 286.64C383.43 277.78 392.29 280 392.29 280C392.29 280 399.74 281.61 400.29 281.81C400.84 282.01 445.4 295.1 447.41 298.12C449.42 301.14 454.31 309.83 453.1 320.3Z" fill="#364152"/>
<path d="M430.11 352.26C422.94 352.26 417.02 349.69 409.28 346.32L406.99 345.32C398.752 341.754 391.601 336.076 386.26 328.86C382.4 323.86 377.81 309.8 375.84 303.78C375.63 303.12 375.44 302.56 375.3 302.13C373.97 298.13 371.3 292.55 363.55 290.13C357.07 288.13 356.43 288.92 354.87 290.79C354.61 291.11 354.33 291.45 353.99 291.79L352.49 293.43C348.83 297.43 341.2 305.85 338.4 307.77C336.76 308.9 330.26 312.32 315.65 308.85C303.96 306.07 287.55 296.99 283.37 291.97C279.03 286.77 274.37 278.75 273.79 272.57C273.21 266.57 274.45 250.07 274.58 248.25L273.24 245.56C271.72 242.56 274.24 234.86 275.86 231.62C276.083 231.158 276.409 230.754 276.813 230.438C277.217 230.123 277.688 229.904 278.19 229.8C280.69 229.21 283.96 230.8 285.06 231.65C285.92 232.29 286.31 232.31 286.41 232.3L286.47 232.21L286.66 232.16C288.497 231.776 290.377 231.638 292.25 231.75C295.31 231.97 301.79 233.5 307.67 235.4C313.91 237.4 347.93 252.4 350.67 253.96L351.75 254.56C354.26 255.93 357.11 257.47 358.94 261.86C361.05 266.93 364.66 273.34 367.46 275.77C370.26 278.2 377 277.9 381.24 276.09C382.727 275.407 384.152 274.598 385.5 273.67C387.5 272.39 389.15 271.3 391.13 271.42C394.35 271.63 436.48 283.89 445.91 289C452.79 292.72 455.28 294.9 456.91 296.34C457.429 296.83 457.991 297.272 458.59 297.66C460.45 298.78 464.59 299 466.13 298.81C467.06 298.69 468.57 297.39 470.04 296.14C470.8 295.49 471.59 294.81 472.34 294.27C474.48 292.71 495.59 274.63 501.28 269.14C506.77 263.84 516.93 252.89 519.14 249.68C520.67 247.46 524.51 243.51 526.81 243.95C527.201 244.04 527.555 244.251 527.82 244.552C528.086 244.853 528.25 245.23 528.29 245.63C529.16 249.54 527.2 261.02 525.46 266.43L525.01 267.86C522.37 276.14 520.18 282.48 518.01 282.68C517.637 282.745 517.254 282.707 516.901 282.57C516.548 282.432 516.24 282.201 516.01 281.9C515.01 280.6 515.34 277.9 516.87 273.95C518.65 269.42 520.57 260.77 521.23 257.38C518.34 260.45 509.87 270.14 504.5 276.29L499.59 282C493.79 288.61 478.53 300.67 478.38 300.79C475.16 303.74 468.78 309.92 467.86 312.07C466.59 315.07 462.54 316.89 462.37 316.96C460.563 318.154 459.166 319.875 458.37 321.89C458.12 322.7 457.79 324.03 457.37 325.57C456.24 330.11 454.54 336.97 452.25 340.92C448.56 347.33 442.58 350.92 433.96 352.04C432.682 352.192 431.397 352.265 430.11 352.26ZM358 288C359.994 288.135 361.959 288.546 363.84 289.22C372.04 291.74 374.84 297.62 376.25 301.82C376.39 302.25 376.58 302.82 376.79 303.48C378.74 309.48 383.3 323.48 387.04 328.25C392.282 335.334 399.302 340.909 407.39 344.41L409.68 345.41C418.68 349.31 425.11 352.13 433.91 351.03C442.19 350.03 447.91 346.52 451.46 340.4C453.67 336.57 455.36 329.79 456.46 325.3C456.85 323.75 457.18 322.42 457.46 321.57C458.317 319.308 459.872 317.378 461.9 316.06C461.99 316.01 465.82 314.26 466.9 311.66C468.13 308.77 477.3 300.37 477.69 300.01C477.87 299.87 493.05 287.86 498.8 281.32L503.71 275.71C521.48 255.36 521.58 255.4 522.1 255.6L522.42 255.72V256.08C522.42 256.78 519.97 268.72 517.75 274.38C515.82 279.3 516.41 280.9 516.75 281.38C516.878 281.537 517.046 281.655 517.236 281.724C517.426 281.793 517.632 281.809 517.83 281.77C519.54 281.61 522.55 272.17 523.99 267.64L524.45 266.2C526.3 260.45 528.02 249.38 527.26 245.93C527.1 245.2 526.78 245.06 526.56 245.01C525.08 244.74 521.72 247.69 519.9 250.33C517.61 253.66 507.51 264.55 501.9 269.94C496.29 275.33 475 293.59 472.85 295.15C472.13 295.67 471.36 296.34 470.61 296.98C468.96 298.39 467.4 299.72 466.17 299.88C464.7 300.06 460.25 299.96 458 298.6C457.348 298.184 456.735 297.708 456.17 297.18C454.56 295.76 452.11 293.63 445.33 289.95C435.97 284.88 394.15 272.71 390.97 272.5C389.32 272.38 387.83 273.36 385.97 274.59C384.574 275.553 383.095 276.39 381.55 277.09C377.04 279.02 369.84 279.3 366.73 276.6C363.62 273.9 360.03 267.34 357.94 262.32C356.25 258.26 353.68 256.87 351.19 255.52L350.1 254.91C347.39 253.36 313.52 238.43 307.3 236.43C302.365 234.743 297.278 233.537 292.11 232.83C290.382 232.732 288.648 232.853 286.95 233.19C286.825 233.278 286.681 233.336 286.53 233.36C285.738 233.375 284.973 233.077 284.4 232.53C283.34 231.73 280.4 230.38 278.4 230.85C278.042 230.924 277.706 231.08 277.418 231.305C277.13 231.531 276.898 231.82 276.74 232.15C275.14 235.34 272.84 242.63 274.12 245.15L275.59 248.15V248.28C275.59 248.47 274.19 266.43 274.79 272.56C275.36 278.56 279.9 286.33 284.14 291.42C288.22 296.33 304.36 305.23 315.88 307.97C330.1 311.34 336.28 308.11 337.88 307.03C340.58 305.18 348.15 296.85 351.79 292.85C352.43 292.15 352.94 291.58 353.3 291.2C353.66 290.82 353.89 290.52 354.14 290.2C355.22 288.84 356 288 358 288ZM431.59 348.43C430.12 348.43 428.49 348.35 426.68 348.19C416.76 347.3 408.17 343.92 398.84 337.19C391.56 331.96 388.72 325.19 385.97 318.7C385.71 318.08 385.45 317.46 385.18 316.85C381.18 307.6 377.09 294.85 379.93 286.48C383.07 277.3 392.32 279.48 392.41 279.48C393.16 279.64 399.89 281.09 400.5 281.3L401.56 281.62C421.8 287.67 446.27 295.4 447.88 297.81C449.49 300.22 454.88 309.29 453.6 320.29C452.47 330.06 450.27 336.52 446.25 341.88C443.17 346.05 439.69 348.43 431.59 348.43ZM389.83 280.27C387.12 280.27 382.83 281.27 380.88 286.84C378 295.3 382.88 309.04 386.1 316.48C386.37 317.1 386.63 317.72 386.89 318.34C389.58 324.73 392.37 331.34 399.43 336.41C408.6 343 417.03 346.32 426.77 347.19C438.03 348.19 442.03 345.92 445.45 341.35C449.36 336.14 451.5 329.83 452.6 320.25C453.83 309.58 448.66 300.85 447.05 298.43C446.64 297.82 442.13 294.87 401.27 282.64L400.18 282.32C399.76 282.18 395.18 281.17 392.18 280.52C391.409 280.347 390.62 280.263 389.83 280.27ZM325.26 308.59C324.763 308.592 324.265 308.568 323.77 308.52C317.45 307.88 301.96 301.96 290.49 292.91C277.64 282.76 277.49 269.29 278.42 260.04C279.7 247.94 283.95 240.3 290.1 239.04C296.25 237.78 316.23 242.82 330.1 250.16C343.27 257.16 355.62 266.22 356.53 269.6C357.34 272.66 357.15 278.75 357.15 279.01V279.12C356.776 280.389 356.21 281.593 355.47 282.69C355.34 282.89 355.14 283.21 354.86 283.63C352.58 287.15 345.63 297.89 341.07 301.53C335.09 306.33 330 308.59 325.26 308.59ZM292.45 239.87C291.726 239.86 291.002 239.92 290.29 240.05C284.69 241.17 280.62 248.68 279.42 260.15C277.91 274.47 281.62 284.63 291.11 292.15C302 300.75 317.53 306.92 323.87 307.55C328.8 308.05 334.06 305.91 340.43 300.81C344.86 297.27 351.74 286.64 354.01 283.14L354.62 282.2C355.288 281.209 355.803 280.124 356.15 278.98C356.15 278.35 356.3 272.68 355.56 269.92C354.82 267.16 343.34 258.36 329.63 251.1C317.29 244.54 300.08 239.87 292.45 239.87Z" fill="#364152"/>
<path d="M371.63 282.81C370.752 282.815 369.877 282.721 369.02 282.53C361.84 280.94 359.07 273.18 357.24 268.04L356.98 267.31C355.27 262.56 353.56 261.31 353.55 261.31L354.1 260.49C354.18 260.54 356.1 261.84 357.92 266.97L358.18 267.7C359.94 272.63 362.6 280.08 369.24 281.56C376.16 283.09 383.24 277.09 383.3 277.03L383.96 277.79C383.69 278 378 282.81 371.63 282.81Z" fill="white"/>
<path d="M461.79 305.77C459.425 305.677 457.109 305.073 455 304C454.769 303.8 454.582 303.555 454.45 303.28C453.52 301.7 450.67 296.92 438.76 291.55C424.67 285.2 392.45 277.16 392.13 277.08L392.37 276.08C392.69 276.16 425 284.22 439.17 290.61C451.36 296.11 454.34 301.09 455.31 302.73C455.42 302.91 455.54 303.11 455.58 303.16C455.99 303.42 461.86 306 464.64 303.95L465.24 304.76C464.224 305.45 463.017 305.803 461.79 305.77Z" fill="white"/>
<path d="M351.9 259.47C351.9 259.47 347.9 256.18 331.27 248.67C320.353 243.862 309.041 240.008 297.46 237.15C296.28 236.84 295.35 236.6 294.69 236.41C291.123 235.529 287.38 235.671 283.89 236.82C280.84 237.68 277.13 234.43 276.98 234.29L277.64 233.54C277.64 233.54 281.1 236.54 283.64 235.85C287.307 234.653 291.238 234.514 294.98 235.45C295.64 235.64 296.57 235.88 297.73 236.18C309.377 239.049 320.753 242.924 331.73 247.76C348.52 255.35 352.43 258.57 352.59 258.71L351.9 259.47Z" fill="white"/>
<path d="M285.24 290.68C276.1 282.75 276.8 269.26 276.81 269.13L277.81 269.19C277.81 269.32 277.13 282.33 285.89 289.92L285.24 290.68Z" fill="white"/>
</svg>
