<svg width="192" height="188" viewBox="0 0 192 188" fill="none" xmlns="http://www.w3.org/2000/svg">
<g clip-path="url(#clip0_145_1196)">
<path d="M121.889 42.1492H70.1537C68.9747 42.1507 67.8444 42.6196 67.0108 43.4533C66.1771 44.2869 65.7081 45.4172 65.7067 46.5962V161.579L65.1138 161.76L52.4222 165.647C51.8207 165.83 51.171 165.767 50.6158 165.472C50.0605 165.177 49.6451 164.674 49.4606 164.073L11.709 40.7588C11.5252 40.1573 11.5879 39.5075 11.883 38.9521C12.1782 38.3968 12.6818 37.9814 13.2832 37.7972L32.8409 31.8086L89.5394 14.4537L109.097 8.46514C109.395 8.37354 109.707 8.34153 110.017 8.37094C110.327 8.40036 110.629 8.49062 110.904 8.63656C111.179 8.7825 111.422 8.98126 111.621 9.22146C111.819 9.46166 111.968 9.73859 112.059 10.0364L121.709 41.5563L121.889 42.1492Z" fill="#C5C5D0"/>
<path d="M133.179 41.5559L121.549 3.56712C121.355 2.93416 121.039 2.34553 120.618 1.83486C120.197 1.3242 119.679 0.901512 119.095 0.590955C118.51 0.280398 117.87 0.0880539 117.211 0.0249225C116.553 -0.0382089 115.888 0.0291091 115.255 0.223023L87.758 8.6396L31.0625 25.9975L3.56562 34.417C2.28826 34.8093 1.21871 35.6923 0.591731 36.8723C-0.035246 38.0523 -0.168425 39.4329 0.221433 40.7109L39.9712 170.541C40.2879 171.573 40.9269 172.476 41.7945 173.117C42.6621 173.759 43.7125 174.106 44.7917 174.107C45.2912 174.108 45.7879 174.033 46.2651 173.885L65.1142 168.116L65.7071 167.932V167.312L65.1142 167.493L46.0902 173.319C44.9627 173.662 43.7449 173.545 42.7039 172.992C41.663 172.439 40.8839 171.496 40.5375 170.369L0.790763 40.536C0.619138 39.9778 0.559322 39.3911 0.614739 38.8097C0.670155 38.2283 0.839711 37.6635 1.11371 37.1477C1.3877 36.6319 1.76076 36.1753 2.2115 35.8039C2.66224 35.4325 3.18182 35.1536 3.74048 34.9833L31.2374 26.5637L87.933 9.20881L115.43 0.789272C115.854 0.659955 116.294 0.594018 116.737 0.593606C117.688 0.59574 118.613 0.90227 119.377 1.4683C120.141 2.03432 120.704 2.8301 120.983 3.73908L132.559 41.5559L132.743 42.1488H133.36L133.179 41.5559Z" fill="#A1A7B5"/>
<path d="M36.3703 37.8936C35.7989 37.8932 35.2427 37.7097 34.7832 37.37C34.3237 37.0303 33.9852 36.5523 33.8173 36.0061L29.9988 23.5334C29.8962 23.1984 29.8606 22.8464 29.894 22.4976C29.9274 22.1488 30.0293 21.81 30.1936 21.5006C30.358 21.1911 30.5818 20.9171 30.8521 20.6941C31.1224 20.4712 31.434 20.3036 31.769 20.2011L83.9284 4.2325C84.605 4.02602 85.3359 4.09644 85.9607 4.4283C86.5855 4.76016 87.0531 5.32635 87.2609 6.00259L91.0794 18.4754C91.2857 19.1521 91.2153 19.883 90.8834 20.5077C90.5516 21.1324 89.9855 21.6 89.3093 21.8079L37.1498 37.7765C36.8972 37.854 36.6345 37.8935 36.3703 37.8936Z" fill="#1C1D24"/>
<path d="M56.3736 13.3273C59.6482 13.3273 62.3028 10.6726 62.3028 7.398C62.3028 4.12337 59.6482 1.46875 56.3736 1.46875C53.099 1.46875 50.4443 4.12337 50.4443 7.398C50.4443 10.6726 53.099 13.3273 56.3736 13.3273Z" fill="#1C1D24"/>
<path d="M56.3732 11.1527C58.4468 11.1527 60.1278 9.47174 60.1278 7.39814C60.1278 5.32454 58.4468 3.64355 56.3732 3.64355C54.2996 3.64355 52.6187 5.32454 52.6187 7.39814C52.6187 9.47174 54.2996 11.1527 56.3732 11.1527Z" fill="#C5C5D0"/>
<path d="M178.659 172.593H78.455C77.7869 172.592 77.1464 172.326 76.674 171.854C76.2016 171.381 75.9358 170.741 75.9351 170.073V50.0053C75.9358 49.3372 76.2015 48.6967 76.674 48.2242C77.1464 47.7518 77.7869 47.4861 78.455 47.4854H178.659C179.327 47.4861 179.968 47.7519 180.44 48.2243C180.913 48.6967 181.179 49.3372 181.179 50.0053V170.073C181.179 170.741 180.913 171.381 180.44 171.854C179.968 172.326 179.327 172.592 178.659 172.593Z" fill="#C5C5D0"/>
<path d="M132.559 41.5566H70.1536C68.8176 41.5585 67.5368 42.0901 66.592 43.0349C65.6473 43.9796 65.1157 45.2604 65.1138 46.5965V167.494L65.7067 167.313V46.5965C65.7081 45.4175 66.1771 44.2873 67.0108 43.4536C67.8444 42.62 68.9747 42.151 70.1536 42.1496H132.743L132.559 41.5566ZM186.96 41.5566H70.1536C68.8176 41.5585 67.5368 42.0901 66.592 43.0349C65.6473 43.9796 65.1157 45.2604 65.1138 46.5965V182.376C65.1157 183.713 65.6473 184.993 66.592 185.938C67.5368 186.883 68.8176 187.414 70.1536 187.416H186.96C188.296 187.414 189.577 186.883 190.522 185.938C191.466 184.993 191.998 183.713 192 182.376V46.5965C191.998 45.2604 191.466 43.9796 190.522 43.0349C189.577 42.0901 188.296 41.5585 186.96 41.5566ZM191.407 182.376C191.405 183.555 190.936 184.686 190.103 185.519C189.269 186.353 188.139 186.822 186.96 186.823H70.1536C68.9747 186.822 67.8444 186.353 67.0108 185.519C66.1771 184.686 65.7081 183.555 65.7067 182.376V46.5965C65.7081 45.4175 66.1771 44.2873 67.0108 43.4536C67.8444 42.62 68.9747 42.151 70.1536 42.1496H186.96C188.139 42.151 189.269 42.62 190.103 43.4536C190.936 44.2873 191.405 45.4175 191.407 46.5965V182.376Z" fill="#A1A7B5"/>
<path d="M155.832 54.6004H101.282C100.575 54.5996 99.8968 54.3183 99.3966 53.818C98.8964 53.3178 98.6151 52.6396 98.6143 51.9323V38.8879C98.6151 38.1805 98.8964 37.5023 99.3966 37.0021C99.8968 36.5019 100.575 36.2205 101.282 36.2197H155.832C156.539 36.2205 157.217 36.5019 157.717 37.0021C158.218 37.5023 158.499 38.1805 158.5 38.8879V51.9323C158.499 52.6396 158.218 53.3178 157.717 53.818C157.217 54.3183 156.539 54.5996 155.832 54.6004Z" fill="#1C1D24"/>
<path d="M128.557 37.1095C131.832 37.1095 134.486 34.4549 134.486 31.1802C134.486 27.9056 131.832 25.251 128.557 25.251C125.283 25.251 122.628 27.9056 122.628 31.1802C122.628 34.4549 125.283 37.1095 128.557 37.1095Z" fill="#1C1D24"/>
<path d="M128.557 34.7913C130.551 34.7913 132.168 33.1744 132.168 31.1798C132.168 29.1853 130.551 27.5684 128.557 27.5684C126.562 27.5684 124.945 29.1853 124.945 31.1798C124.945 33.1744 126.562 34.7913 128.557 34.7913Z" fill="#C5C5D0"/>
</g>
<defs>
<clipPath id="clip0_145_1196">
<rect width="192" height="187.416" fill="white"/>
</clipPath>
</defs>
</svg>
