<svg width="420" height="526" viewBox="0 0 420 526" fill="none" xmlns="http://www.w3.org/2000/svg">
<rect x="0.529594" y="0.91729" width="224.664" height="298.612" rx="11.25" transform="matrix(0.966282 0.257487 -0.260157 0.965566 191.959 36.1175)" stroke="#66667B" stroke-width="1.5"/>
<rect width="205.055" height="276.103" rx="6" transform="matrix(0.966282 0.257487 -0.260157 0.965566 198.778 50.5309)" fill="#DBDBDD"/>
<rect width="120.621" height="36.0134" rx="3" transform="matrix(0.966282 0.257487 -0.260157 0.965566 245.818 38.2191)" fill="#242835"/>
<path d="M319.605 45.4581C317.773 52.2567 310.744 56.2969 303.899 54.473C297.055 52.649 292.998 45.6548 294.83 38.8562C296.662 32.0576 303.691 28.0174 310.536 29.8413C317.381 31.6653 321.437 38.6595 319.605 45.4581Z" stroke="#242835" stroke-width="1.5"/>
<rect x="1" y="127" width="299.663" height="398" rx="15" stroke="#66667B" stroke-width="2"/>
<rect x="14.5776" y="142.5" width="272.508" height="367" rx="7.5" fill="white" stroke="#A1A7B5"/>
<rect x="70.388" y="110" width="160.887" height="48" rx="4" fill="#242835"/>
<path d="M167.931 94C167.931 103.384 160.281 111 150.831 111C141.382 111 133.732 103.384 133.732 94C133.732 84.6164 141.382 77 150.831 77C160.281 77 167.931 84.6164 167.931 94Z" stroke="#242835" stroke-width="2"/>
</svg>
