<svg width="555" height="120" viewBox="0 0 555 120" fill="none" xmlns="http://www.w3.org/2000/svg">
<rect x="1" y="1" width="118" height="118" rx="29" stroke="#63637A" stroke-width="2"/>
<path d="M82.6451 59.555L82.2451 59.005C81.5451 58.155 80.7201 57.48 79.7701 56.98C78.4951 56.255 77.0451 55.88 75.5451 55.88H44.4201C42.9201 55.88 41.4951 56.255 40.1951 56.98C39.2201 57.505 38.3451 58.23 37.6201 59.13C36.1951 60.955 35.5201 63.205 35.7451 65.455L36.6701 77.13C36.9951 80.655 37.4201 85.005 45.3451 85.005H74.6451C82.5701 85.005 82.9701 80.655 83.3201 77.105L84.2451 65.48C84.4701 63.38 83.9201 61.28 82.6451 59.555ZM65.9701 73.355H53.9951C53.0201 73.355 52.2451 72.555 52.2451 71.605C52.2451 70.655 53.0201 69.855 53.9951 69.855H65.9701C66.9451 69.855 67.7201 70.655 67.7201 71.605C67.7201 72.58 66.9451 73.355 65.9701 73.355Z" fill="#EEEEF0"/>
<path opacity="0.4" d="M38.4476 58.275C38.9976 57.775 39.5476 57.325 40.1976 56.975C41.4726 56.25 42.9226 55.875 44.4226 55.875H75.5726C77.0726 55.875 78.4976 56.25 79.7976 56.975C80.4476 57.325 81.0226 57.775 81.5476 58.3V54.55C81.5476 45.625 78.8226 42.9 69.8976 42.9H63.9476C62.8476 42.9 62.8226 42.875 62.1726 42.025L59.1726 38C57.7476 36.15 56.6226 35 53.0476 35H50.0976C41.1726 35 38.4476 37.725 38.4476 46.65V58.275Z" fill="#EEEEF0"/>
<path d="M169.908 92.5H156.468V30.34H169.908L196.116 69.904V30.34H209.556V92.5H196.116L169.908 53.02V92.5ZM218.639 71.416C218.639 58.144 228.383 49.24 241.823 49.24C255.179 49.24 264.923 58.144 264.923 71.416C264.923 84.688 255.179 93.508 241.823 93.508C228.383 93.508 218.639 84.688 218.639 71.416ZM231.659 71.332C231.659 77.716 235.775 81.916 241.823 81.916C247.787 81.916 251.903 77.716 251.903 71.332C251.903 65.032 247.787 60.832 241.823 60.832C235.775 60.832 231.659 65.032 231.659 71.332ZM288.981 92.5H276.045V61.252H268.065V50.5H276.045V37.48H288.981V50.5H296.961V61.252H288.981V92.5ZM321.852 93.592C309.168 93.592 300.096 84.352 300.096 71.416C300.096 58.312 308.916 49.156 321.6 49.156C334.788 49.156 343.02 57.808 343.02 71.5V74.776L312.528 74.944C313.284 80.488 316.392 83.092 322.104 83.092C326.976 83.092 330.42 81.328 331.344 78.304H343.188C341.676 87.628 333.36 93.592 321.852 93.592ZM321.684 59.656C316.56 59.656 313.704 61.924 312.696 66.964H330.168C330.168 62.512 326.892 59.656 321.684 59.656ZM365.885 92.5H352.277V30.34H376.301C391.421 30.34 399.989 37.648 399.989 50.5C399.989 58.564 396.545 64.276 389.657 67.804L400.577 92.5H385.709L376.385 70.744H365.885V92.5ZM365.885 42.436V58.816H376.217C382.181 58.816 385.625 55.792 385.625 50.5C385.625 45.292 382.349 42.436 376.301 42.436H365.885ZM425.048 93.592C412.364 93.592 403.292 84.352 403.292 71.416C403.292 58.312 412.112 49.156 424.796 49.156C437.984 49.156 446.216 57.808 446.216 71.5V74.776L415.724 74.944C416.48 80.488 419.588 83.092 425.3 83.092C430.172 83.092 433.616 81.328 434.54 78.304H446.384C444.872 87.628 436.556 93.592 425.048 93.592ZM424.88 59.656C419.756 59.656 416.9 61.924 415.892 66.964H433.364C433.364 62.512 430.088 59.656 424.88 59.656ZM453.876 112.66V50.5H466.056L466.728 55.624C469.08 51.76 474.372 49.156 480.336 49.156C492.012 49.156 500.16 57.304 500.16 70.828C500.16 84.1 492.936 93.676 480.42 93.676C474.624 93.676 469.248 91.492 466.812 88.3V112.66H453.876ZM466.896 71.5C466.896 77.8 471.096 82 477.144 82C483.276 82 487.14 77.716 487.14 71.5C487.14 65.284 483.276 61 477.144 61C471.096 61 466.896 65.2 466.896 71.5ZM505.338 71.416C505.338 58.144 515.082 49.24 528.522 49.24C541.878 49.24 551.622 58.144 551.622 71.416C551.622 84.688 541.878 93.508 528.522 93.508C515.082 93.508 505.338 84.688 505.338 71.416ZM518.358 71.332C518.358 77.716 522.474 81.916 528.522 81.916C534.486 81.916 538.602 77.716 538.602 71.332C538.602 65.032 534.486 60.832 528.522 60.832C522.474 60.832 518.358 65.032 518.358 71.332Z" fill="#EEEEF0"/>
</svg>
