<svg width="358" height="96" viewBox="0 0 358 96" fill="none" xmlns="http://www.w3.org/2000/svg">
<rect x="1.5" y="1" width="94" height="94" rx="23" stroke="#BEBEC9" stroke-width="2"/>
<path d="M66.616 47.6441L66.296 47.2041C65.736 46.5241 65.076 45.9841 64.316 45.5841C63.296 45.0041 62.136 44.7041 60.936 44.7041H36.036C34.836 44.7041 33.696 45.0041 32.656 45.5841C31.876 46.0041 31.176 46.5841 30.596 47.3041C29.456 48.7641 28.916 50.5641 29.096 52.3641L29.836 61.7041C30.096 64.5241 30.436 68.0041 36.776 68.0041H60.216C66.556 68.0041 66.876 64.5241 67.156 61.6841L67.896 52.3841C68.076 50.7041 67.636 49.0241 66.616 47.6441ZM53.276 58.6841H43.696C42.916 58.6841 42.296 58.0441 42.296 57.2841C42.296 56.5241 42.916 55.8841 43.696 55.8841H53.276C54.056 55.8841 54.676 56.5241 54.676 57.2841C54.676 58.0641 54.056 58.6841 53.276 58.6841Z" fill="#0D0E13"/>
<path opacity="0.4" d="M31.2581 46.62C31.6981 46.22 32.1381 45.86 32.6581 45.58C33.6781 45 34.8381 44.7 36.0381 44.7H60.9581C62.1581 44.7 63.2981 45 64.3381 45.58C64.8581 45.86 65.3181 46.22 65.7381 46.64V43.64C65.7381 36.5 63.5581 34.32 56.4181 34.32H51.6581C50.7781 34.32 50.7581 34.3 50.2381 33.62L47.8381 30.4C46.6981 28.92 45.7981 28 42.9381 28H40.5781C33.4381 28 31.2581 30.18 31.2581 37.32V46.62Z" fill="#0D0E13"/>
<path d="M137.876 66.5H130.196V30.98H137.876L152.852 53.588V30.98H160.532V66.5H152.852L137.876 43.94V66.5ZM165.722 54.452C165.722 46.868 171.29 41.78 178.97 41.78C186.602 41.78 192.17 46.868 192.17 54.452C192.17 62.036 186.602 67.076 178.97 67.076C171.29 67.076 165.722 62.036 165.722 54.452ZM173.162 54.404C173.162 58.052 175.514 60.452 178.97 60.452C182.378 60.452 184.73 58.052 184.73 54.404C184.73 50.804 182.378 48.404 178.97 48.404C175.514 48.404 173.162 50.804 173.162 54.404ZM205.918 66.5H198.526V48.644H193.966V42.5H198.526V35.06H205.918V42.5H210.478V48.644H205.918V66.5ZM224.701 67.124C217.453 67.124 212.269 61.844 212.269 54.452C212.269 46.964 217.309 41.732 224.557 41.732C232.093 41.732 236.797 46.676 236.797 54.5V56.372L219.373 56.468C219.805 59.636 221.581 61.124 224.845 61.124C227.629 61.124 229.597 60.116 230.125 58.388H236.893C236.029 63.716 231.277 67.124 224.701 67.124ZM224.605 47.732C221.677 47.732 220.045 49.028 219.469 51.908H229.453C229.453 49.364 227.581 47.732 224.605 47.732ZM249.863 66.5H242.087V30.98H255.815C264.455 30.98 269.351 35.156 269.351 42.5C269.351 47.108 267.383 50.372 263.447 52.388L269.687 66.5H261.191L255.863 54.068H249.863V66.5ZM249.863 37.892V47.252H255.767C259.175 47.252 261.143 45.524 261.143 42.5C261.143 39.524 259.271 37.892 255.815 37.892H249.863ZM283.67 67.124C276.422 67.124 271.238 61.844 271.238 54.452C271.238 46.964 276.278 41.732 283.526 41.732C291.062 41.732 295.766 46.676 295.766 54.5V56.372L278.342 56.468C278.774 59.636 280.55 61.124 283.814 61.124C286.598 61.124 288.566 60.116 289.094 58.388H295.862C294.998 63.716 290.246 67.124 283.67 67.124ZM283.574 47.732C280.646 47.732 279.014 49.028 278.438 51.908H288.422C288.422 49.364 286.55 47.732 283.574 47.732ZM300.143 78.02V42.5H307.103L307.487 45.428C308.831 43.22 311.855 41.732 315.263 41.732C321.935 41.732 326.591 46.388 326.591 54.116C326.591 61.7 322.463 67.172 315.311 67.172C311.999 67.172 308.927 65.924 307.535 64.1V78.02H300.143ZM307.583 54.5C307.583 58.1 309.983 60.5 313.439 60.5C316.943 60.5 319.151 58.052 319.151 54.5C319.151 50.948 316.943 48.5 313.439 48.5C309.983 48.5 307.583 50.9 307.583 54.5ZM329.551 54.452C329.551 46.868 335.118 41.78 342.799 41.78C350.431 41.78 355.999 46.868 355.999 54.452C355.999 62.036 350.431 67.076 342.799 67.076C335.118 67.076 329.551 62.036 329.551 54.452ZM336.991 54.404C336.991 58.052 339.343 60.452 342.799 60.452C346.207 60.452 348.559 58.052 348.559 54.404C348.559 50.804 346.207 48.404 342.799 48.404C339.343 48.404 336.991 50.804 336.991 54.404Z" fill="#0D0E13"/>
</svg>
