<svg width="1200" height="320" viewBox="0 0 1200 320" fill="none" xmlns="http://www.w3.org/2000/svg">
<rect width="1200" height="320" rx="16" fill="white"/>
<rect x="391.25" y="83.75" width="88.5" height="88.5" rx="21.75" stroke="#A1A7B5" stroke-width="1.5"/>
<path d="M452.484 127.666L452.184 127.254C451.659 126.616 451.04 126.11 450.328 125.735C449.371 125.191 448.284 124.91 447.159 124.91H423.815C422.69 124.91 421.621 125.191 420.646 125.735C419.915 126.129 419.259 126.673 418.715 127.348C417.646 128.716 417.14 130.404 417.309 132.091L418.003 140.848C418.246 143.491 418.565 146.754 424.509 146.754H446.484C452.428 146.754 452.728 143.491 452.99 140.829L453.684 132.11C453.853 130.535 453.44 128.96 452.484 127.666ZM439.978 138.016H430.996C430.265 138.016 429.684 137.416 429.684 136.704C429.684 135.991 430.265 135.391 430.996 135.391H439.978C440.709 135.391 441.29 135.991 441.29 136.704C441.29 137.435 440.709 138.016 439.978 138.016Z" fill="#0D0E13"/>
<path opacity="0.4" d="M419.336 126.706C419.748 126.331 420.161 125.994 420.648 125.731C421.604 125.187 422.692 124.906 423.817 124.906H447.179C448.304 124.906 449.373 125.187 450.348 125.731C450.836 125.994 451.267 126.331 451.661 126.725V123.912C451.661 117.219 449.617 115.175 442.923 115.175H438.461C437.636 115.175 437.617 115.156 437.129 114.519L434.879 111.5C433.811 110.113 432.967 109.25 430.286 109.25H428.073C421.379 109.25 419.336 111.294 419.336 117.987V126.706Z" fill="#0D0E13"/>
<path d="M519.431 152.5H509.351V105.88H519.431L539.087 135.553V105.88H549.167V152.5H539.087L519.431 122.89V152.5ZM555.979 136.687C555.979 126.733 563.287 120.055 573.367 120.055C583.384 120.055 590.692 126.733 590.692 136.687C590.692 146.641 583.384 153.256 573.367 153.256C563.287 153.256 555.979 146.641 555.979 136.687ZM565.744 136.624C565.744 141.412 568.831 144.562 573.367 144.562C577.84 144.562 580.927 141.412 580.927 136.624C580.927 131.899 577.84 128.749 573.367 128.749C568.831 128.749 565.744 131.899 565.744 136.624ZM608.735 152.5H599.033V129.064H593.048V121H599.033V111.235H608.735V121H614.72V129.064H608.735V152.5ZM633.389 153.319C623.876 153.319 617.072 146.389 617.072 136.687C617.072 126.859 623.687 119.992 633.2 119.992C643.091 119.992 649.265 126.481 649.265 136.75V139.207L626.396 139.333C626.963 143.491 629.294 145.444 633.578 145.444C637.232 145.444 639.815 144.121 640.508 141.853H649.391C648.257 148.846 642.02 153.319 633.389 153.319ZM633.263 127.867C629.42 127.867 627.278 129.568 626.522 133.348H639.626C639.626 130.009 637.169 127.867 633.263 127.867ZM666.413 152.5H656.207V105.88H674.225C685.565 105.88 691.991 111.361 691.991 121C691.991 127.048 689.408 131.332 684.242 133.978L692.432 152.5H681.281L674.288 136.183H666.413V152.5ZM666.413 114.952V127.237H674.162C678.635 127.237 681.218 124.969 681.218 121C681.218 117.094 678.761 114.952 674.225 114.952H666.413ZM710.786 153.319C701.273 153.319 694.469 146.389 694.469 136.687C694.469 126.859 701.084 119.992 710.597 119.992C720.488 119.992 726.662 126.481 726.662 136.75V139.207L703.793 139.333C704.36 143.491 706.691 145.444 710.975 145.444C714.629 145.444 717.212 144.121 717.905 141.853H726.788C725.654 148.846 719.417 153.319 710.786 153.319ZM710.66 127.867C706.817 127.867 704.675 129.568 703.919 133.348H717.023C717.023 130.009 714.566 127.867 710.66 127.867ZM732.407 167.62V121H741.542L742.046 124.843C743.81 121.945 747.779 119.992 752.252 119.992C761.009 119.992 767.12 126.103 767.12 136.246C767.12 146.2 761.702 153.382 752.315 153.382C747.968 153.382 743.936 151.744 742.109 149.35V167.62H732.407ZM742.172 136.75C742.172 141.475 745.322 144.625 749.858 144.625C754.457 144.625 757.355 141.412 757.355 136.75C757.355 132.088 754.457 128.875 749.858 128.875C745.322 128.875 742.172 132.025 742.172 136.75ZM771.004 136.687C771.004 126.733 778.312 120.055 788.392 120.055C798.409 120.055 805.717 126.733 805.717 136.687C805.717 146.641 798.409 153.256 788.392 153.256C778.312 153.256 771.004 146.641 771.004 136.687ZM780.769 136.624C780.769 141.412 783.856 144.562 788.392 144.562C792.865 144.562 795.952 141.412 795.952 136.624C795.952 131.899 792.865 128.749 788.392 128.749C783.856 128.749 780.769 131.899 780.769 136.624Z" fill="#0D0E13"/>
<path d="M269.736 230H267.288L273.624 212.648H276.24L282.6 230H280.128L278.568 225.68H271.272L269.736 230ZM274.632 216.392L271.992 223.64H277.872L275.208 216.392C275.088 216.056 274.968 215.648 274.92 215.384C274.872 215.624 274.752 216.032 274.632 216.392ZM290.317 224.144C290.317 220.472 292.645 217.928 296.077 217.928C299.029 217.928 301.093 219.608 301.501 222.224H299.245C298.861 220.736 297.661 219.944 296.149 219.944C294.013 219.944 292.549 221.576 292.549 224.12C292.549 226.64 293.917 228.272 296.053 228.272C297.661 228.272 298.861 227.432 299.269 226.04H301.525C301.069 228.584 298.885 230.288 296.053 230.288C292.597 230.288 290.317 227.84 290.317 224.144ZM303.137 224.12C303.137 220.496 305.729 217.952 309.257 217.952C312.761 217.952 315.353 220.496 315.353 224.12C315.353 227.744 312.761 230.288 309.257 230.288C305.729 230.288 303.137 227.744 303.137 224.12ZM305.417 224.12C305.417 226.568 306.977 228.272 309.257 228.272C311.513 228.272 313.097 226.568 313.097 224.12C313.097 221.672 311.513 219.968 309.257 219.968C306.977 219.968 305.417 221.672 305.417 224.12ZM320.155 230H317.899V212.336H320.155V230ZM325.78 230H323.524V212.336H325.78V230ZM332.533 230.288C330.013 230.288 328.525 228.872 328.525 226.736C328.525 224.576 330.133 223.232 332.893 223.016L336.589 222.728V222.392C336.589 220.424 335.413 219.728 333.829 219.728C331.933 219.728 330.853 220.568 330.853 221.984H328.885C328.885 219.536 330.901 217.928 333.925 217.928C336.829 217.928 338.797 219.464 338.797 222.632V230H336.877L336.637 228.104C336.037 229.448 334.429 230.288 332.533 230.288ZM333.181 228.536C335.317 228.536 336.613 227.144 336.613 224.936V224.312L333.613 224.552C331.621 224.744 330.805 225.512 330.805 226.664C330.805 227.912 331.717 228.536 333.181 228.536ZM343.961 230H341.921V212.336H344.177V220.28C344.945 218.744 346.529 217.928 348.449 217.928C351.809 217.928 353.825 220.568 353.825 224.192C353.825 227.744 351.713 230.288 348.305 230.288C346.457 230.288 344.897 229.472 344.129 227.864L343.961 230ZM344.201 224.096C344.201 226.544 345.593 228.248 347.897 228.248C350.201 228.248 351.569 226.52 351.569 224.096C351.569 221.696 350.201 219.968 347.897 219.968C345.593 219.968 344.201 221.696 344.201 224.096ZM355.544 224.12C355.544 220.496 358.136 217.952 361.664 217.952C365.168 217.952 367.76 220.496 367.76 224.12C367.76 227.744 365.168 230.288 361.664 230.288C358.136 230.288 355.544 227.744 355.544 224.12ZM357.824 224.12C357.824 226.568 359.384 228.272 361.664 228.272C363.92 228.272 365.504 226.568 365.504 224.12C365.504 221.672 363.92 219.968 361.664 219.968C359.384 219.968 357.824 221.672 357.824 224.12ZM376.977 218.168V220.232H375.969C373.833 220.232 372.513 221.528 372.513 223.784V230H370.257V218.288H372.369L372.513 220.064C372.993 218.84 374.169 218.024 375.777 218.024C376.185 218.024 376.521 218.072 376.977 218.168ZM382.056 230.288C379.536 230.288 378.048 228.872 378.048 226.736C378.048 224.576 379.656 223.232 382.416 223.016L386.112 222.728V222.392C386.112 220.424 384.936 219.728 383.352 219.728C381.456 219.728 380.376 220.568 380.376 221.984H378.408C378.408 219.536 380.424 217.928 383.448 217.928C386.352 217.928 388.32 219.464 388.32 222.632V230H386.4L386.16 228.104C385.56 229.448 383.952 230.288 382.056 230.288ZM382.704 228.536C384.84 228.536 386.136 227.144 386.136 224.936V224.312L383.136 224.552C381.144 224.744 380.328 225.512 380.328 226.664C380.328 227.912 381.24 228.536 382.704 228.536ZM394.569 230H392.313V220.16H390.009V218.264H392.313V214.592H394.569V218.264H396.873V220.16H394.569V230ZM400.002 215.48C399.186 215.48 398.514 214.808 398.514 213.992C398.514 213.152 399.186 212.504 400.002 212.504C400.818 212.504 401.49 213.152 401.49 213.992C401.49 214.808 400.818 215.48 400.002 215.48ZM398.898 230V218.264H401.154V230H398.898ZM407.717 230L402.989 218.264H405.389L407.957 224.816C408.365 225.92 408.701 226.904 408.893 227.624C409.085 226.856 409.469 225.848 409.877 224.816L412.493 218.264H414.845L409.949 230H407.717ZM421.165 230.288C417.709 230.288 415.333 227.792 415.333 224.144C415.333 220.472 417.661 217.928 421.069 217.928C424.405 217.928 426.589 220.232 426.589 223.712V224.552L417.517 224.576C417.685 227.048 418.981 228.416 421.213 228.416C422.965 228.416 424.117 227.696 424.501 226.352H426.613C426.037 228.872 424.069 230.288 421.165 230.288ZM421.069 219.824C419.101 219.824 417.853 221 417.565 223.064H424.333C424.333 221.12 423.061 219.824 421.069 219.824ZM440.735 230.288C437.279 230.288 434.903 227.792 434.903 224.144C434.903 220.472 437.231 217.928 440.639 217.928C443.975 217.928 446.159 220.232 446.159 223.712V224.552L437.087 224.576C437.255 227.048 438.551 228.416 440.783 228.416C442.535 228.416 443.687 227.696 444.071 226.352H446.183C445.607 228.872 443.639 230.288 440.735 230.288ZM440.639 219.824C438.671 219.824 437.423 221 437.135 223.064H443.903C443.903 221.12 442.631 219.824 440.639 219.824ZM447.431 218.264H449.159V216.392C449.159 213.512 450.719 212.336 452.879 212.336C453.311 212.336 453.815 212.36 454.247 212.432V214.376H453.239C451.775 214.376 451.415 215.12 451.415 216.392V218.264H456.623V216.392C456.623 213.512 458.183 212.336 460.319 212.336C460.751 212.336 461.279 212.36 461.711 212.432V214.376H460.703C459.239 214.376 458.855 215.12 458.855 216.392V218.264H461.639V220.16H458.855V230H456.623V220.16H451.415V230H449.159V220.16H447.431V218.264ZM462.606 224.12C462.606 220.496 465.198 217.952 468.726 217.952C472.23 217.952 474.822 220.496 474.822 224.12C474.822 227.744 472.23 230.288 468.726 230.288C465.198 230.288 462.606 227.744 462.606 224.12ZM464.886 224.12C464.886 226.568 466.446 228.272 468.726 228.272C470.982 228.272 472.566 226.568 472.566 224.12C472.566 221.672 470.982 219.968 468.726 219.968C466.446 219.968 464.886 221.672 464.886 224.12ZM484.04 218.168V220.232H483.032C480.896 220.232 479.576 221.528 479.576 223.784V230H477.32V218.288H479.432L479.576 220.064C480.056 218.84 481.232 218.024 482.84 218.024C483.248 218.024 483.584 218.072 484.04 218.168ZM489.936 230H487.68V220.16H485.376V218.264H487.68V214.592H489.936V218.264H492.24V220.16H489.936V230ZM504.139 230H501.883V220.16H499.579V218.264H501.883V214.592H504.139V218.264H506.443V220.16H504.139V230ZM507.583 224.12C507.583 220.496 510.175 217.952 513.703 217.952C517.207 217.952 519.799 220.496 519.799 224.12C519.799 227.744 517.207 230.288 513.703 230.288C510.175 230.288 507.583 227.744 507.583 224.12ZM509.863 224.12C509.863 226.568 511.423 228.272 513.703 228.272C515.959 228.272 517.543 226.568 517.543 224.12C517.543 221.672 515.959 219.968 513.703 219.968C511.423 219.968 509.863 221.672 509.863 224.12ZM531.115 230H528.859V218.264H530.875L531.091 219.8C531.691 218.696 532.939 217.928 534.595 217.928C536.419 217.928 537.715 218.84 538.315 220.304C538.867 218.84 540.283 217.928 542.107 217.928C544.795 217.928 546.427 219.608 546.427 222.32V230H544.219V222.872C544.219 221.024 543.187 219.968 541.603 219.968C539.899 219.968 538.771 221.168 538.771 223.04V230H536.539V222.848C536.539 221 535.531 219.992 533.947 219.992C532.243 219.992 531.115 221.168 531.115 223.04V230ZM552.986 230.288C550.466 230.288 548.978 228.872 548.978 226.736C548.978 224.576 550.586 223.232 553.346 223.016L557.042 222.728V222.392C557.042 220.424 555.866 219.728 554.282 219.728C552.386 219.728 551.306 220.568 551.306 221.984H549.338C549.338 219.536 551.354 217.928 554.378 217.928C557.282 217.928 559.25 219.464 559.25 222.632V230H557.33L557.09 228.104C556.49 229.448 554.882 230.288 552.986 230.288ZM553.634 228.536C555.77 228.536 557.066 227.144 557.066 224.936V224.312L554.066 224.552C552.074 224.744 551.258 225.512 551.258 226.664C551.258 227.912 552.17 228.536 553.634 228.536ZM564.678 230H562.422V212.336H564.678V223.784L569.886 218.264H572.718L568.23 222.944L572.694 230H570.102L566.67 224.576L564.678 226.664V230ZM579.18 230.288C575.724 230.288 573.348 227.792 573.348 224.144C573.348 220.472 575.676 217.928 579.084 217.928C582.42 217.928 584.604 220.232 584.604 223.712V224.552L575.532 224.576C575.7 227.048 576.996 228.416 579.228 228.416C580.98 228.416 582.132 227.696 582.516 226.352H584.628C584.052 228.872 582.084 230.288 579.18 230.288ZM579.084 219.824C577.116 219.824 575.868 221 575.58 223.064H582.348C582.348 221.12 581.076 219.824 579.084 219.824ZM592.727 226.592H594.887C594.887 227.792 595.799 228.512 597.287 228.512C598.871 228.512 599.783 227.864 599.783 226.784C599.783 225.992 599.399 225.512 598.175 225.2L596.111 224.72C594.023 224.216 593.039 223.184 593.039 221.456C593.039 219.296 594.863 217.928 597.455 217.928C600.023 217.928 601.703 219.368 601.751 221.6H599.591C599.543 220.424 598.751 219.68 597.383 219.68C595.967 219.68 595.175 220.304 595.175 221.384C595.175 222.176 595.751 222.704 596.903 222.992L598.967 223.496C600.959 223.976 601.943 224.888 601.943 226.64C601.943 228.872 600.023 230.288 597.239 230.288C594.479 230.288 592.727 228.824 592.727 226.592ZM606.701 229.976H604.445V212.336H606.701V220.064C607.445 218.792 608.861 217.928 610.685 217.928C613.685 217.928 615.125 219.824 615.125 222.824V230H612.869V223.328C612.869 220.952 611.741 219.992 610.061 219.992C607.877 219.992 606.701 221.576 606.701 223.592V229.976ZM621.681 230.288C619.161 230.288 617.673 228.872 617.673 226.736C617.673 224.576 619.281 223.232 622.041 223.016L625.737 222.728V222.392C625.737 220.424 624.561 219.728 622.977 219.728C621.081 219.728 620.001 220.568 620.001 221.984H618.033C618.033 219.536 620.049 217.928 623.073 217.928C625.977 217.928 627.945 219.464 627.945 222.632V230H626.025L625.785 228.104C625.185 229.448 623.577 230.288 621.681 230.288ZM622.329 228.536C624.465 228.536 625.761 227.144 625.761 224.936V224.312L622.761 224.552C620.769 224.744 619.953 225.512 619.953 226.664C619.953 227.912 620.865 228.536 622.329 228.536ZM637.79 218.168V220.232H636.782C634.646 220.232 633.326 221.528 633.326 223.784V230H631.07V218.288H633.182L633.326 220.064C633.806 218.84 634.982 218.024 636.59 218.024C636.998 218.024 637.334 218.072 637.79 218.168ZM641.009 215.48C640.193 215.48 639.521 214.808 639.521 213.992C639.521 213.152 640.193 212.504 641.009 212.504C641.825 212.504 642.497 213.152 642.497 213.992C642.497 214.808 641.825 215.48 641.009 215.48ZM639.905 230V218.264H642.161V230H639.905ZM647.693 230H645.437V218.264H647.477L647.717 220.064C648.461 218.72 649.949 217.928 651.605 217.928C654.701 217.928 656.117 219.824 656.117 222.824V230H653.861V223.328C653.861 220.952 652.757 219.992 651.029 219.992C648.917 219.992 647.693 221.504 647.693 223.784V230ZM658.497 223.832C658.497 220.52 660.633 217.928 664.041 217.928C665.937 217.928 667.401 218.792 668.145 220.256L668.313 218.264H670.329V229.52C670.329 233.216 668.049 235.568 664.449 235.568C661.257 235.568 659.073 233.768 658.641 230.792H660.897C661.185 232.52 662.481 233.528 664.449 233.528C666.657 233.528 668.097 232.088 668.097 229.856V227.504C667.329 228.872 665.793 229.688 663.945 229.688C660.609 229.688 658.497 227.12 658.497 223.832ZM660.753 223.784C660.753 225.992 662.121 227.72 664.329 227.72C666.609 227.72 668.001 226.088 668.001 223.784C668.001 221.528 666.657 219.896 664.353 219.896C662.097 219.896 660.753 221.624 660.753 223.784ZM682.452 230H680.196V212.336H682.452V230ZM690.837 230.288C687.381 230.288 685.005 227.792 685.005 224.144C685.005 220.472 687.333 217.928 690.741 217.928C694.077 217.928 696.261 220.232 696.261 223.712V224.552L687.189 224.576C687.357 227.048 688.653 228.416 690.885 228.416C692.637 228.416 693.789 227.696 694.173 226.352H696.285C695.709 228.872 693.741 230.288 690.837 230.288ZM690.741 219.824C688.773 219.824 687.525 221 687.237 223.064H694.005C694.005 221.12 692.733 219.824 690.741 219.824ZM698.012 224.144C698.012 220.472 700.34 217.928 703.772 217.928C706.724 217.928 708.788 219.608 709.196 222.224H706.94C706.556 220.736 705.356 219.944 703.844 219.944C701.708 219.944 700.244 221.576 700.244 224.12C700.244 226.64 701.612 228.272 703.748 228.272C705.356 228.272 706.556 227.432 706.964 226.04H709.22C708.764 228.584 706.58 230.288 703.748 230.288C700.292 230.288 698.012 227.84 698.012 224.144ZM714.913 230H712.657V220.16H710.353V218.264H712.657V214.592H714.913V218.264H717.217V220.16H714.913V230ZM727.353 218.264H729.585V230H727.569L727.329 228.224C726.657 229.448 725.097 230.288 723.369 230.288C720.633 230.288 719.097 228.44 719.097 225.56V218.264H721.353V224.816C721.353 227.336 722.433 228.296 724.161 228.296C726.225 228.296 727.353 226.976 727.353 224.456V218.264ZM739.579 218.168V220.232H738.571C736.435 220.232 735.115 221.528 735.115 223.784V230H732.859V218.288H734.971L735.115 220.064C735.595 218.84 736.771 218.024 738.379 218.024C738.787 218.024 739.123 218.072 739.579 218.168ZM746.337 230.288C742.881 230.288 740.505 227.792 740.505 224.144C740.505 220.472 742.833 217.928 746.241 217.928C749.577 217.928 751.761 220.232 751.761 223.712V224.552L742.689 224.576C742.857 227.048 744.153 228.416 746.385 228.416C748.137 228.416 749.289 227.696 749.673 226.352H751.785C751.209 228.872 749.241 230.288 746.337 230.288ZM746.241 219.824C744.273 219.824 743.025 221 742.737 223.064H749.505C749.505 221.12 748.233 219.824 746.241 219.824ZM763.099 230H760.843V218.264H762.859L763.075 219.8C763.675 218.696 764.923 217.928 766.579 217.928C768.403 217.928 769.699 218.84 770.299 220.304C770.851 218.84 772.267 217.928 774.091 217.928C776.779 217.928 778.411 219.608 778.411 222.32V230H776.203V222.872C776.203 221.024 775.171 219.968 773.587 219.968C771.883 219.968 770.755 221.168 770.755 223.04V230H768.523V222.848C768.523 221 767.515 219.992 765.931 219.992C764.227 219.992 763.099 221.168 763.099 223.04V230ZM784.97 230.288C782.45 230.288 780.962 228.872 780.962 226.736C780.962 224.576 782.57 223.232 785.33 223.016L789.026 222.728V222.392C789.026 220.424 787.85 219.728 786.266 219.728C784.37 219.728 783.29 220.568 783.29 221.984H781.322C781.322 219.536 783.338 217.928 786.362 217.928C789.266 217.928 791.234 219.464 791.234 222.632V230H789.314L789.074 228.104C788.474 229.448 786.866 230.288 784.97 230.288ZM785.618 228.536C787.754 228.536 789.05 227.144 789.05 224.936V224.312L786.05 224.552C784.058 224.744 783.242 225.512 783.242 226.664C783.242 227.912 784.154 228.536 785.618 228.536ZM797.483 230H795.227V220.16H792.923V218.264H795.227V214.592H797.483V218.264H799.787V220.16H797.483V230ZM806.759 230.288C803.303 230.288 800.927 227.792 800.927 224.144C800.927 220.472 803.255 217.928 806.663 217.928C809.999 217.928 812.182 220.232 812.182 223.712V224.552L803.111 224.576C803.279 227.048 804.575 228.416 806.807 228.416C808.559 228.416 809.711 227.696 810.095 226.352H812.207C811.631 228.872 809.663 230.288 806.759 230.288ZM806.663 219.824C804.695 219.824 803.447 221 803.159 223.064H809.927C809.927 221.12 808.655 219.824 806.663 219.824ZM821.422 218.168V220.232H820.414C818.278 220.232 816.958 221.528 816.958 223.784V230H814.702V218.288H816.814L816.958 220.064C817.438 218.84 818.614 218.024 820.222 218.024C820.63 218.024 820.966 218.072 821.422 218.168ZM824.642 215.48C823.826 215.48 823.154 214.808 823.154 213.992C823.154 213.152 823.826 212.504 824.642 212.504C825.458 212.504 826.13 213.152 826.13 213.992C826.13 214.808 825.458 215.48 824.642 215.48ZM823.538 230V218.264H825.794V230H823.538ZM832.502 230.288C829.982 230.288 828.494 228.872 828.494 226.736C828.494 224.576 830.102 223.232 832.862 223.016L836.558 222.728V222.392C836.558 220.424 835.382 219.728 833.798 219.728C831.902 219.728 830.822 220.568 830.822 221.984H828.854C828.854 219.536 830.87 217.928 833.894 217.928C836.798 217.928 838.766 219.464 838.766 222.632V230H836.846L836.606 228.104C836.006 229.448 834.398 230.288 832.502 230.288ZM833.15 228.536C835.286 228.536 836.582 227.144 836.582 224.936V224.312L833.582 224.552C831.59 224.744 830.774 225.512 830.774 226.664C830.774 227.912 831.686 228.536 833.15 228.536ZM844.194 230H841.938V212.336H844.194V230ZM846.555 226.592H848.715C848.715 227.792 849.627 228.512 851.115 228.512C852.699 228.512 853.611 227.864 853.611 226.784C853.611 225.992 853.227 225.512 852.003 225.2L849.939 224.72C847.851 224.216 846.867 223.184 846.867 221.456C846.867 219.296 848.691 217.928 851.283 217.928C853.851 217.928 855.531 219.368 855.579 221.6H853.419C853.371 220.424 852.579 219.68 851.211 219.68C849.795 219.68 849.003 220.304 849.003 221.384C849.003 222.176 849.579 222.704 850.731 222.992L852.795 223.496C854.787 223.976 855.771 224.888 855.771 226.64C855.771 228.872 853.851 230.288 851.067 230.288C848.307 230.288 846.555 228.824 846.555 226.592ZM869.899 230.288C866.443 230.288 864.067 227.792 864.067 224.144C864.067 220.472 866.395 217.928 869.803 217.928C873.139 217.928 875.323 220.232 875.323 223.712V224.552L866.251 224.576C866.419 227.048 867.715 228.416 869.947 228.416C871.699 228.416 872.851 227.696 873.235 226.352H875.347C874.771 228.872 872.803 230.288 869.899 230.288ZM869.803 219.824C867.835 219.824 866.587 221 866.299 223.064H873.067C873.067 221.12 871.795 219.824 869.803 219.824ZM881.158 230.288C878.638 230.288 877.15 228.872 877.15 226.736C877.15 224.576 878.758 223.232 881.518 223.016L885.214 222.728V222.392C885.214 220.424 884.038 219.728 882.454 219.728C880.558 219.728 879.478 220.568 879.478 221.984H877.51C877.51 219.536 879.526 217.928 882.55 217.928C885.454 217.928 887.422 219.464 887.422 222.632V230H885.502L885.262 228.104C884.662 229.448 883.054 230.288 881.158 230.288ZM881.806 228.536C883.942 228.536 885.238 227.144 885.238 224.936V224.312L882.238 224.552C880.246 224.744 879.43 225.512 879.43 226.664C879.43 227.912 880.342 228.536 881.806 228.536ZM889.586 226.592H891.746C891.746 227.792 892.658 228.512 894.146 228.512C895.73 228.512 896.642 227.864 896.642 226.784C896.642 225.992 896.258 225.512 895.034 225.2L892.97 224.72C890.882 224.216 889.898 223.184 889.898 221.456C889.898 219.296 891.722 217.928 894.314 217.928C896.882 217.928 898.562 219.368 898.61 221.6H896.45C896.402 220.424 895.61 219.68 894.242 219.68C892.826 219.68 892.034 220.304 892.034 221.384C892.034 222.176 892.61 222.704 893.762 222.992L895.826 223.496C897.818 223.976 898.802 224.888 898.802 226.64C898.802 228.872 896.882 230.288 894.098 230.288C891.338 230.288 889.586 228.824 889.586 226.592ZM902.408 215.48C901.592 215.48 900.92 214.808 900.92 213.992C900.92 213.152 901.592 212.504 902.408 212.504C903.224 212.504 903.896 213.152 903.896 213.992C903.896 214.808 903.224 215.48 902.408 215.48ZM901.304 230V218.264H903.56V230H901.304ZM911.899 230.288C908.443 230.288 906.067 227.792 906.067 224.144C906.067 220.472 908.395 217.928 911.803 217.928C915.139 217.928 917.323 220.232 917.323 223.712V224.552L908.251 224.576C908.419 227.048 909.715 228.416 911.947 228.416C913.699 228.416 914.851 227.696 915.235 226.352H917.347C916.771 228.872 914.803 230.288 911.899 230.288ZM911.803 219.824C909.835 219.824 908.587 221 908.299 223.064H915.067C915.067 221.12 913.795 219.824 911.803 219.824ZM926.563 218.168V220.232H925.555C923.419 220.232 922.099 221.528 922.099 223.784V230H919.843V218.288H921.955L922.099 220.064C922.579 218.84 923.755 218.024 925.363 218.024C925.771 218.024 926.107 218.072 926.563 218.168ZM928.46 230.288C927.524 230.288 926.732 229.52 926.732 228.608C926.732 227.672 927.524 226.904 928.46 226.904C929.372 226.904 930.164 227.672 930.164 228.608C930.164 229.52 929.372 230.288 928.46 230.288Z" fill="#66667B"/>
</svg>
